<svg xmlns="http://www.w3.org/2000/svg" xmlns:xlink="http://www.w3.org/1999/xlink" width="188" zoomAndPan="magnify" viewBox="0 0 141 125.249995" height="167" preserveAspectRatio="xMidYMid meet" version="1.0"><defs><clipPath id="6b30c6d0fd"><path d="M 15 0.695312 L 125.875 0.695312 L 125.875 123.707031 L 15 123.707031 Z M 15 0.695312 " clip-rule="nonzero"/></clipPath><clipPath id="efd1530840"><path d="M 15 0.695312 L 125 0.695312 L 125 93 L 15 93 Z M 15 0.695312 " clip-rule="nonzero"/></clipPath><clipPath id="ae89567f33"><path d="M 69 30 L 125.875 30 L 125.875 93 L 69 93 Z M 69 30 " clip-rule="nonzero"/></clipPath></defs><g clip-path="url(#6b30c6d0fd)"><path fill="#283593" d="M 67.140625 1.820312 C 69.117188 0.710938 71.550781 0.710938 73.519531 1.820312 C 83.28125 7.308594 112.644531 23.832031 122.40625 29.320312 C 124.382812 30.429688 125.597656 32.480469 125.597656 34.703125 C 125.597656 45.679688 125.597656 78.722656 125.597656 89.699219 C 125.597656 91.921875 124.382812 93.972656 122.40625 95.082031 C 112.648438 100.570312 83.28125 117.09375 73.519531 122.582031 C 71.546875 123.695312 69.113281 123.695312 67.140625 122.582031 C 57.382812 117.09375 28.019531 100.570312 18.257812 95.082031 C 16.285156 93.972656 15.070312 91.921875 15.070312 89.703125 C 15.070312 78.722656 15.070312 45.683594 15.070312 34.703125 C 15.070312 32.484375 16.285156 30.429688 18.257812 29.320312 C 28.015625 23.832031 57.386719 7.308594 67.140625 1.820312 Z M 67.140625 1.820312 " fill-opacity="1" fill-rule="evenodd"/></g><g clip-path="url(#efd1530840)"><path fill="#5c6bc0" d="M 15.953125 92.53125 C 15.179688 91.492188 15.070312 90.507812 15.070312 89.179688 C 15.070312 78.265625 15.070312 45.414062 15.070312 34.496094 C 15.070312 32.289062 16.28125 30.246094 18.25 29.144531 C 27.972656 23.6875 57.242188 7.261719 66.964844 1.804688 C 68.933594 0.699219 71.601562 0.722656 73.570312 1.828125 C 83.292969 7.28125 112.460938 23.570312 122.1875 29.027344 C 122.972656 29.46875 123.570312 30.003906 124.105469 30.707031 Z M 15.953125 92.53125 " fill-opacity="1" fill-rule="evenodd"/></g><path fill="#ffffff" d="M 70.332031 21.390625 C 92.808594 21.390625 111.054688 39.675781 111.054688 62.203125 C 111.054688 84.726562 92.808594 103.011719 70.332031 103.011719 C 47.859375 103.011719 29.613281 84.726562 29.613281 62.203125 C 29.613281 39.675781 47.859375 21.390625 70.332031 21.390625 Z M 70.332031 41.796875 C 81.570312 41.796875 90.695312 50.9375 90.695312 62.203125 C 90.695312 73.460938 81.570312 82.605469 70.332031 82.605469 C 59.097656 82.605469 49.972656 73.460938 49.972656 62.203125 C 49.972656 50.9375 59.09375 41.796875 70.332031 41.796875 Z M 70.332031 41.796875 " fill-opacity="1" fill-rule="evenodd"/><g clip-path="url(#ae89567f33)"><path fill="#3949ab" d="M 124.101562 30.734375 C 125.601562 32.140625 125.570312 34.265625 125.570312 35.933594 C 125.570312 46.996094 125.480469 78.460938 125.597656 89.523438 C 125.609375 90.679688 125.230469 91.894531 124.660156 92.808594 L 69.148438 62.203125 Z M 124.101562 30.734375 " fill-opacity="1" fill-rule="evenodd"/></g></svg>