<svg xmlns="http://www.w3.org/2000/svg" xmlns:xlink="http://www.w3.org/1999/xlink" width="188" zoomAndPan="magnify" viewBox="0 0 141 125.249995" height="167" preserveAspectRatio="xMidYMid meet" version="1.0"><defs><clipPath id="7db9d85fee"><path d="M 14 1.398438 L 126.996094 1.398438 L 126.996094 122.917969 L 14 122.917969 Z M 14 1.398438 " clip-rule="nonzero"/></clipPath><clipPath id="5dbc2fc587"><path d="M 116.914062 25.816406 L 114.730469 25.816406 C 111.9375 20.996094 106.738281 17.738281 100.785156 17.738281 L 100.785156 10.671875 C 100.785156 5.664062 96.714844 1.585938 91.710938 1.585938 C 87.054688 1.585938 83.25 5.132812 82.738281 9.664062 L 80.621094 9.664062 C 79.503906 9.664062 78.605469 10.566406 78.605469 11.679688 L 78.605469 17.738281 L 68.523438 17.738281 C 62.566406 17.738281 57.367188 20.996094 54.574219 25.816406 L 42.789062 25.816406 L 32.894531 8.65625 C 31.546875 6.320312 29.375 4.648438 26.773438 3.949219 C 24.175781 3.253906 21.457031 3.609375 19.121094 4.957031 C 16.792969 6.304688 15.121094 8.484375 14.425781 11.085938 C 13.726562 13.695312 14.082031 16.417969 15.429688 18.75 L 21.167969 28.703125 C 19.238281 30.582031 18.113281 33.160156 18.113281 35.910156 L 18.113281 90.425781 C 18.113281 97.105469 23.539062 102.539062 30.210938 102.539062 L 53.160156 102.539062 L 49.128906 110.617188 L 42.308594 110.617188 C 38.972656 110.617188 36.261719 113.332031 36.261719 116.671875 L 36.261719 120.710938 C 36.261719 121.828125 37.160156 122.730469 38.277344 122.730469 L 106.832031 122.730469 C 107.949219 122.730469 108.851562 121.828125 108.851562 120.710938 L 108.851562 116.671875 C 108.851562 113.332031 106.136719 110.617188 102.800781 110.617188 L 95.980469 110.617188 L 91.949219 102.539062 L 103.175781 102.539062 L 103.1875 102.589844 C 103.332031 103.316406 103.867188 103.910156 104.578125 104.125 C 105.292969 104.339844 106.0625 104.148438 106.589844 103.621094 L 108.011719 102.191406 L 115.140625 109.332031 C 115.519531 109.710938 116.03125 109.921875 116.566406 109.921875 C 117.101562 109.921875 117.617188 109.710938 117.992188 109.332031 L 123.695312 103.621094 C 124.074219 103.242188 124.289062 102.730469 124.289062 102.191406 C 124.289062 101.65625 124.074219 101.144531 123.695312 100.765625 L 123.230469 100.296875 C 125.578125 98.417969 126.996094 95.558594 126.996094 92.445312 L 126.996094 35.910156 C 126.996094 30.34375 122.476562 25.816406 116.914062 25.816406 Z M 91.710938 5.625 C 94.492188 5.625 96.753906 7.886719 96.753906 10.671875 L 96.753906 17.738281 L 90.703125 17.738281 L 90.703125 11.679688 C 90.703125 10.566406 89.800781 9.664062 88.6875 9.664062 L 86.769531 9.664062 C 87.242188 7.359375 89.273438 5.625 91.710938 5.625 Z M 82.636719 13.699219 L 86.671875 13.699219 L 86.671875 17.738281 L 82.636719 17.738281 Z M 68.523438 21.777344 L 100.785156 21.777344 C 107.457031 21.777344 112.882812 27.210938 112.882812 33.890625 C 112.882812 40.570312 107.457031 46.003906 100.785156 46.003906 C 96.84375 46.003906 93.132812 44.0625 90.863281 40.8125 C 90.488281 40.269531 89.867188 39.949219 89.210938 39.949219 L 80.097656 39.949219 C 79.4375 39.949219 78.820312 40.269531 78.445312 40.8125 C 76.175781 44.0625 72.464844 46.003906 68.523438 46.003906 C 61.851562 46.003906 56.425781 40.570312 56.425781 33.890625 C 56.425781 27.210938 61.851562 21.777344 68.523438 21.777344 Z M 78.605469 58.121094 L 86.671875 58.121094 L 86.671875 66.195312 L 78.605469 66.195312 Z M 98.769531 78.3125 L 90.703125 78.3125 L 90.703125 70.234375 L 98.769531 70.234375 Z M 86.671875 78.3125 L 78.605469 78.3125 L 78.605469 70.234375 L 86.671875 70.234375 Z M 74.570312 66.195312 L 66.507812 66.195312 L 66.507812 58.121094 L 74.570312 58.121094 Z M 34.242188 81.792969 C 32.726562 80.445312 30.210938 77.695312 30.210938 74.273438 C 30.210938 72.046875 32.019531 70.234375 34.242188 70.234375 C 36.464844 70.234375 38.277344 72.046875 38.277344 74.273438 C 38.277344 77.695312 35.761719 80.445312 34.242188 81.792969 Z M 30.234375 83.515625 C 31.6875 85.070312 33.003906 85.96875 33.125 86.046875 C 33.464844 86.273438 33.855469 86.386719 34.242188 86.386719 C 34.632812 86.386719 35.023438 86.273438 35.363281 86.046875 C 35.484375 85.964844 36.800781 85.070312 38.253906 83.515625 L 38.277344 90.425781 L 30.210938 90.425781 Z M 42.308594 82.347656 L 50.375 82.347656 L 50.375 90.425781 L 42.308594 90.425781 Z M 25.441406 19.957031 L 45.605469 54.925781 L 42.113281 56.945312 L 21.949219 21.972656 Z M 53.667969 54.929688 L 54.132812 59.324219 L 48.640625 62.5 L 45.070312 59.902344 Z M 54.59375 63.722656 L 54.953125 67.097656 L 52.207031 65.101562 Z M 56.25 73.035156 C 56.597656 73.292969 57.015625 73.421875 57.433594 73.421875 C 57.78125 73.421875 58.128906 73.332031 58.441406 73.152344 C 59.132812 72.753906 59.523438 71.984375 59.4375 71.191406 L 59.335938 70.234375 L 62.472656 70.234375 L 62.472656 78.3125 L 54.40625 78.3125 L 54.40625 71.695312 Z M 54.40625 82.347656 L 62.472656 82.347656 L 62.472656 90.425781 L 54.40625 90.425781 Z M 62.472656 66.195312 L 58.910156 66.195312 L 58.058594 58.121094 L 62.472656 58.121094 Z M 49.097656 52.910156 L 28.933594 17.9375 L 32.425781 15.917969 L 52.589844 50.890625 Z M 21.140625 8.453125 C 24.027344 6.78125 27.734375 7.78125 29.402344 10.671875 L 30.410156 12.421875 L 19.933594 18.476562 L 18.925781 16.730469 C 17.253906 13.835938 18.25 10.125 21.140625 8.453125 Z M 104.816406 116.671875 L 104.816406 118.691406 L 40.292969 118.691406 L 40.292969 116.671875 C 40.292969 115.558594 41.195312 114.652344 42.308594 114.652344 L 102.800781 114.652344 C 103.914062 114.652344 104.816406 115.558594 104.816406 116.671875 Z M 91.472656 110.617188 L 53.636719 110.617188 L 57.671875 102.539062 L 87.441406 102.539062 Z M 116.570312 105.050781 L 109.441406 97.910156 C 109.0625 97.53125 108.550781 97.320312 108.015625 97.320312 C 107.480469 97.320312 106.96875 97.53125 106.589844 97.910156 L 106.402344 98.097656 L 104.882812 90.488281 L 112.480469 92.011719 L 112.292969 92.199219 C 111.914062 92.578125 111.703125 93.089844 111.703125 93.628906 C 111.703125 94.164062 111.914062 94.675781 112.292969 95.054688 L 119.421875 102.191406 Z M 116.570312 93.628906 L 117.996094 92.199219 C 118.519531 91.671875 118.714844 90.902344 118.5 90.1875 C 118.285156 89.472656 117.695312 88.9375 116.964844 88.792969 L 102.707031 85.9375 C 102.050781 85.8125 101.363281 86.011719 100.886719 86.488281 C 100.410156 86.964844 100.203125 87.652344 100.335938 88.3125 L 102.371094 98.5 L 30.210938 98.5 C 25.761719 98.5 22.144531 94.878906 22.144531 90.425781 L 22.144531 35.910156 C 22.144531 34.628906 22.585938 33.429688 23.3125 32.417969 L 39.628906 60.714844 C 39.769531 60.957031 39.960938 61.171875 40.1875 61.339844 L 50.375 68.757812 L 50.375 78.3125 L 41.558594 78.3125 C 42.011719 77.082031 42.308594 75.734375 42.308594 74.273438 C 42.308594 69.820312 38.691406 66.195312 34.242188 66.195312 C 29.796875 66.195312 26.179688 69.820312 26.179688 74.273438 C 26.179688 75.886719 26.535156 77.363281 27.078125 78.691406 C 26.550781 79.054688 26.179688 79.636719 26.179688 80.328125 L 26.179688 92.445312 C 26.179688 93.5625 27.078125 94.464844 28.195312 94.464844 L 64.488281 94.464844 C 65.605469 94.464844 66.507812 93.5625 66.507812 92.445312 L 66.507812 70.234375 L 74.570312 70.234375 L 74.570312 80.328125 C 74.570312 81.445312 75.472656 82.347656 76.589844 82.347656 L 112.882812 82.347656 C 114 82.347656 114.898438 81.445312 114.898438 80.328125 L 114.898438 68.214844 C 114.898438 67.097656 114 66.195312 112.882812 66.195312 L 108.851562 66.195312 L 108.851562 64.175781 L 116.914062 64.175781 C 117.617188 64.175781 118.261719 63.8125 118.632812 63.21875 C 119 62.621094 119.03125 61.878906 118.71875 61.253906 L 117.152344 58.121094 L 118.71875 54.984375 C 119.03125 54.359375 119 53.617188 118.628906 53.019531 C 118.261719 52.425781 117.617188 52.0625 116.914062 52.0625 L 106.832031 52.0625 C 105.71875 52.0625 104.816406 52.964844 104.816406 54.082031 L 104.816406 66.195312 L 90.703125 66.195312 L 90.703125 56.101562 C 90.703125 54.984375 89.800781 54.082031 88.6875 54.082031 L 57.632812 54.082031 L 57.347656 51.417969 C 57.320312 51.136719 57.230469 50.867188 57.089844 50.621094 L 45.117188 29.851562 L 52.921875 29.851562 C 52.585938 31.148438 52.390625 32.492188 52.390625 33.890625 C 52.390625 42.796875 59.628906 50.042969 68.523438 50.042969 C 73.425781 50.042969 78.050781 47.796875 81.105469 43.988281 L 88.203125 43.988281 C 91.257812 47.796875 95.882812 50.042969 100.785156 50.042969 C 109.679688 50.042969 116.914062 42.796875 116.914062 33.890625 C 116.914062 32.492188 116.71875 31.148438 116.386719 29.851562 L 116.914062 29.851562 C 120.25 29.851562 122.964844 32.570312 122.964844 35.910156 L 122.964844 92.445312 C 122.964844 94.464844 121.964844 96.292969 120.347656 97.410156 Z M 106.832031 74.273438 C 107.949219 74.273438 108.851562 73.371094 108.851562 72.253906 L 108.851562 70.234375 L 110.867188 70.234375 L 110.867188 78.3125 L 102.800781 78.3125 L 102.800781 70.234375 L 104.816406 70.234375 L 104.816406 72.253906 C 104.816406 73.371094 105.71875 74.273438 106.832031 74.273438 Z M 113.09375 59.023438 L 113.652344 60.140625 L 108.851562 60.140625 L 108.851562 56.101562 L 113.652344 56.101562 L 113.097656 57.21875 C 112.8125 57.785156 112.8125 58.457031 113.09375 59.023438 Z M 113.09375 59.023438 " clip-rule="nonzero"/></clipPath><linearGradient x1="2.479717" gradientTransform="matrix(2.016395, 0, 0, 2.019076, 6.014174, -2.452236)" y1="3.313237" x2="59.881444" gradientUnits="userSpaceOnUse" y2="62.115725" id="3e868a9821"><stop stop-opacity="1" stop-color="rgb(56.498718%, 15.299988%, 55.699158%)" offset="0"/><stop stop-opacity="1" stop-color="rgb(56.498718%, 15.299988%, 55.699158%)" offset="0.125"/><stop stop-opacity="1" stop-color="rgb(56.32782%, 15.544128%, 55.834961%)" offset="0.128906"/><stop stop-opacity="1" stop-color="rgb(56.158447%, 15.789795%, 55.97229%)" offset="0.132812"/><stop stop-opacity="1" stop-color="rgb(55.979919%, 16.046143%, 56.115723%)" offset="0.136719"/><stop stop-opacity="1" stop-color="rgb(55.801392%, 16.304016%, 56.259155%)" offset="0.140625"/><stop stop-opacity="1" stop-color="rgb(55.622864%, 16.56189%, 56.401062%)" offset="0.144531"/><stop stop-opacity="1" stop-color="rgb(55.444336%, 16.819763%, 56.544495%)" offset="0.148437"/><stop stop-opacity="1" stop-color="rgb(55.264282%, 17.076111%, 56.687927%)" offset="0.152344"/><stop stop-opacity="1" stop-color="rgb(55.085754%, 17.333984%, 56.83136%)" offset="0.15625"/><stop stop-opacity="1" stop-color="rgb(54.907227%, 17.590332%, 56.974792%)" offset="0.160156"/><stop stop-opacity="1" stop-color="rgb(54.728699%, 17.848206%, 57.118225%)" offset="0.164062"/><stop stop-opacity="1" stop-color="rgb(54.550171%, 18.104553%, 57.260132%)" offset="0.167969"/><stop stop-opacity="1" stop-color="rgb(54.371643%, 18.362427%, 57.403564%)" offset="0.171875"/><stop stop-opacity="1" stop-color="rgb(54.193115%, 18.6203%, 57.546997%)" offset="0.175781"/><stop stop-opacity="1" stop-color="rgb(54.014587%, 18.878174%, 57.69043%)" offset="0.179688"/><stop stop-opacity="1" stop-color="rgb(53.834534%, 19.134521%, 57.833862%)" offset="0.183594"/><stop stop-opacity="1" stop-color="rgb(53.656006%, 19.392395%, 57.977295%)" offset="0.1875"/><stop stop-opacity="1" stop-color="rgb(53.477478%, 19.648743%, 58.119202%)" offset="0.191406"/><stop stop-opacity="1" stop-color="rgb(53.29895%, 19.906616%, 58.262634%)" offset="0.195312"/><stop stop-opacity="1" stop-color="rgb(53.120422%, 20.162964%, 58.406067%)" offset="0.199219"/><stop stop-opacity="1" stop-color="rgb(52.941895%, 20.420837%, 58.5495%)" offset="0.203125"/><stop stop-opacity="1" stop-color="rgb(52.763367%, 20.678711%, 58.691406%)" offset="0.207031"/><stop stop-opacity="1" stop-color="rgb(52.584839%, 20.936584%, 58.834839%)" offset="0.210937"/><stop stop-opacity="1" stop-color="rgb(52.404785%, 21.192932%, 58.978271%)" offset="0.214844"/><stop stop-opacity="1" stop-color="rgb(52.226257%, 21.450806%, 59.121704%)" offset="0.21875"/><stop stop-opacity="1" stop-color="rgb(52.047729%, 21.707153%, 59.265137%)" offset="0.222656"/><stop stop-opacity="1" stop-color="rgb(51.869202%, 21.965027%, 59.408569%)" offset="0.226562"/><stop stop-opacity="1" stop-color="rgb(51.690674%, 22.221375%, 59.550476%)" offset="0.230469"/><stop stop-opacity="1" stop-color="rgb(51.512146%, 22.479248%, 59.693909%)" offset="0.234375"/><stop stop-opacity="1" stop-color="rgb(51.333618%, 22.737122%, 59.837341%)" offset="0.238281"/><stop stop-opacity="1" stop-color="rgb(51.15509%, 22.994995%, 59.980774%)" offset="0.242187"/><stop stop-opacity="1" stop-color="rgb(50.975037%, 23.251343%, 60.124207%)" offset="0.246094"/><stop stop-opacity="1" stop-color="rgb(50.796509%, 23.509216%, 60.267639%)" offset="0.25"/><stop stop-opacity="1" stop-color="rgb(50.617981%, 23.765564%, 60.409546%)" offset="0.253906"/><stop stop-opacity="1" stop-color="rgb(50.439453%, 24.023438%, 60.552979%)" offset="0.257812"/><stop stop-opacity="1" stop-color="rgb(50.260925%, 24.279785%, 60.696411%)" offset="0.261719"/><stop stop-opacity="1" stop-color="rgb(50.082397%, 24.537659%, 60.839844%)" offset="0.265625"/><stop stop-opacity="1" stop-color="rgb(49.90387%, 24.795532%, 60.983276%)" offset="0.269531"/><stop stop-opacity="1" stop-color="rgb(49.725342%, 25.053406%, 61.126709%)" offset="0.273437"/><stop stop-opacity="1" stop-color="rgb(49.546814%, 25.309753%, 61.268616%)" offset="0.277344"/><stop stop-opacity="1" stop-color="rgb(49.368286%, 25.567627%, 61.412048%)" offset="0.28125"/><stop stop-opacity="1" stop-color="rgb(49.188232%, 25.823975%, 61.555481%)" offset="0.285156"/><stop stop-opacity="1" stop-color="rgb(49.009705%, 26.081848%, 61.698914%)" offset="0.289062"/><stop stop-opacity="1" stop-color="rgb(48.831177%, 26.338196%, 61.842346%)" offset="0.292969"/><stop stop-opacity="1" stop-color="rgb(48.652649%, 26.596069%, 61.985779%)" offset="0.296875"/><stop stop-opacity="1" stop-color="rgb(48.474121%, 26.852417%, 62.127686%)" offset="0.300781"/><stop stop-opacity="1" stop-color="rgb(48.295593%, 27.110291%, 62.271118%)" offset="0.304687"/><stop stop-opacity="1" stop-color="rgb(48.117065%, 27.368164%, 62.414551%)" offset="0.308594"/><stop stop-opacity="1" stop-color="rgb(47.938538%, 27.626038%, 62.557983%)" offset="0.3125"/><stop stop-opacity="1" stop-color="rgb(47.758484%, 27.882385%, 62.701416%)" offset="0.316406"/><stop stop-opacity="1" stop-color="rgb(47.579956%, 28.140259%, 62.844849%)" offset="0.320312"/><stop stop-opacity="1" stop-color="rgb(47.401428%, 28.396606%, 62.986755%)" offset="0.324219"/><stop stop-opacity="1" stop-color="rgb(47.2229%, 28.65448%, 63.130188%)" offset="0.328125"/><stop stop-opacity="1" stop-color="rgb(47.044373%, 28.910828%, 63.273621%)" offset="0.332031"/><stop stop-opacity="1" stop-color="rgb(46.865845%, 29.168701%, 63.417053%)" offset="0.335937"/><stop stop-opacity="1" stop-color="rgb(46.687317%, 29.426575%, 63.560486%)" offset="0.339844"/><stop stop-opacity="1" stop-color="rgb(46.508789%, 29.684448%, 63.703918%)" offset="0.34375"/><stop stop-opacity="1" stop-color="rgb(46.328735%, 29.940796%, 63.845825%)" offset="0.347656"/><stop stop-opacity="1" stop-color="rgb(46.150208%, 30.198669%, 63.989258%)" offset="0.351562"/><stop stop-opacity="1" stop-color="rgb(45.97168%, 30.455017%, 64.13269%)" offset="0.355469"/><stop stop-opacity="1" stop-color="rgb(45.793152%, 30.712891%, 64.276123%)" offset="0.359375"/><stop stop-opacity="1" stop-color="rgb(45.614624%, 30.969238%, 64.419556%)" offset="0.363281"/><stop stop-opacity="1" stop-color="rgb(45.436096%, 31.227112%, 64.562988%)" offset="0.367187"/><stop stop-opacity="1" stop-color="rgb(45.257568%, 31.484985%, 64.704895%)" offset="0.371094"/><stop stop-opacity="1" stop-color="rgb(45.079041%, 31.742859%, 64.848328%)" offset="0.375"/><stop stop-opacity="1" stop-color="rgb(44.898987%, 31.999207%, 64.99176%)" offset="0.378906"/><stop stop-opacity="1" stop-color="rgb(44.720459%, 32.25708%, 65.135193%)" offset="0.382812"/><stop stop-opacity="1" stop-color="rgb(44.541931%, 32.513428%, 65.2771%)" offset="0.386719"/><stop stop-opacity="1" stop-color="rgb(44.363403%, 32.771301%, 65.420532%)" offset="0.390625"/><stop stop-opacity="1" stop-color="rgb(44.184875%, 33.027649%, 65.563965%)" offset="0.394531"/><stop stop-opacity="1" stop-color="rgb(44.006348%, 33.285522%, 65.707397%)" offset="0.398437"/><stop stop-opacity="1" stop-color="rgb(43.82782%, 33.543396%, 65.85083%)" offset="0.402344"/><stop stop-opacity="1" stop-color="rgb(43.649292%, 33.80127%, 65.994263%)" offset="0.40625"/><stop stop-opacity="1" stop-color="rgb(43.470764%, 34.057617%, 66.136169%)" offset="0.410156"/><stop stop-opacity="1" stop-color="rgb(43.292236%, 34.315491%, 66.279602%)" offset="0.414062"/><stop stop-opacity="1" stop-color="rgb(43.112183%, 34.571838%, 66.423035%)" offset="0.417969"/><stop stop-opacity="1" stop-color="rgb(42.933655%, 34.829712%, 66.566467%)" offset="0.421875"/><stop stop-opacity="1" stop-color="rgb(42.755127%, 35.08606%, 66.7099%)" offset="0.425781"/><stop stop-opacity="1" stop-color="rgb(42.576599%, 35.343933%, 66.853333%)" offset="0.429687"/><stop stop-opacity="1" stop-color="rgb(42.398071%, 35.601807%, 66.995239%)" offset="0.433594"/><stop stop-opacity="1" stop-color="rgb(42.219543%, 35.85968%, 67.138672%)" offset="0.4375"/><stop stop-opacity="1" stop-color="rgb(42.041016%, 36.116028%, 67.282104%)" offset="0.441406"/><stop stop-opacity="1" stop-color="rgb(41.862488%, 36.373901%, 67.425537%)" offset="0.445312"/><stop stop-opacity="1" stop-color="rgb(41.682434%, 36.630249%, 67.56897%)" offset="0.449219"/><stop stop-opacity="1" stop-color="rgb(41.503906%, 36.888123%, 67.712402%)" offset="0.453125"/><stop stop-opacity="1" stop-color="rgb(41.325378%, 37.14447%, 67.854309%)" offset="0.457031"/><stop stop-opacity="1" stop-color="rgb(41.146851%, 37.402344%, 67.997742%)" offset="0.460937"/><stop stop-opacity="1" stop-color="rgb(40.968323%, 37.660217%, 68.141174%)" offset="0.464844"/><stop stop-opacity="1" stop-color="rgb(40.789795%, 37.918091%, 68.284607%)" offset="0.46875"/><stop stop-opacity="1" stop-color="rgb(40.611267%, 38.174438%, 68.42804%)" offset="0.472656"/><stop stop-opacity="1" stop-color="rgb(40.432739%, 38.432312%, 68.571472%)" offset="0.476562"/><stop stop-opacity="1" stop-color="rgb(40.252686%, 38.68866%, 68.713379%)" offset="0.480469"/><stop stop-opacity="1" stop-color="rgb(40.074158%, 38.946533%, 68.856812%)" offset="0.484375"/><stop stop-opacity="1" stop-color="rgb(39.89563%, 39.202881%, 69.000244%)" offset="0.488281"/><stop stop-opacity="1" stop-color="rgb(39.717102%, 39.460754%, 69.143677%)" offset="0.492187"/><stop stop-opacity="1" stop-color="rgb(39.538574%, 39.718628%, 69.287109%)" offset="0.496094"/><stop stop-opacity="1" stop-color="rgb(39.360046%, 39.976501%, 69.430542%)" offset="0.5"/><stop stop-opacity="1" stop-color="rgb(39.181519%, 40.232849%, 69.572449%)" offset="0.503906"/><stop stop-opacity="1" stop-color="rgb(39.002991%, 40.490723%, 69.715881%)" offset="0.507812"/><stop stop-opacity="1" stop-color="rgb(38.822937%, 40.74707%, 69.859314%)" offset="0.511719"/><stop stop-opacity="1" stop-color="rgb(38.644409%, 41.004944%, 70.002747%)" offset="0.515625"/><stop stop-opacity="1" stop-color="rgb(38.465881%, 41.261292%, 70.146179%)" offset="0.519531"/><stop stop-opacity="1" stop-color="rgb(38.287354%, 41.519165%, 70.289612%)" offset="0.523438"/><stop stop-opacity="1" stop-color="rgb(38.108826%, 41.777039%, 70.431519%)" offset="0.527344"/><stop stop-opacity="1" stop-color="rgb(37.930298%, 42.034912%, 70.574951%)" offset="0.53125"/><stop stop-opacity="1" stop-color="rgb(37.75177%, 42.29126%, 70.718384%)" offset="0.535156"/><stop stop-opacity="1" stop-color="rgb(37.573242%, 42.549133%, 70.861816%)" offset="0.539062"/><stop stop-opacity="1" stop-color="rgb(37.393188%, 42.805481%, 71.005249%)" offset="0.542969"/><stop stop-opacity="1" stop-color="rgb(37.214661%, 43.063354%, 71.148682%)" offset="0.546875"/><stop stop-opacity="1" stop-color="rgb(37.036133%, 43.319702%, 71.290588%)" offset="0.550781"/><stop stop-opacity="1" stop-color="rgb(36.857605%, 43.577576%, 71.434021%)" offset="0.554687"/><stop stop-opacity="1" stop-color="rgb(36.679077%, 43.835449%, 71.577454%)" offset="0.558594"/><stop stop-opacity="1" stop-color="rgb(36.500549%, 44.093323%, 71.720886%)" offset="0.5625"/><stop stop-opacity="1" stop-color="rgb(36.322021%, 44.34967%, 71.862793%)" offset="0.566406"/><stop stop-opacity="1" stop-color="rgb(36.143494%, 44.607544%, 72.006226%)" offset="0.570312"/><stop stop-opacity="1" stop-color="rgb(35.964966%, 44.863892%, 72.149658%)" offset="0.574219"/><stop stop-opacity="1" stop-color="rgb(35.786438%, 45.121765%, 72.293091%)" offset="0.578125"/><stop stop-opacity="1" stop-color="rgb(35.606384%, 45.378113%, 72.436523%)" offset="0.582031"/><stop stop-opacity="1" stop-color="rgb(35.427856%, 45.635986%, 72.579956%)" offset="0.585938"/><stop stop-opacity="1" stop-color="rgb(35.249329%, 45.89386%, 72.721863%)" offset="0.589844"/><stop stop-opacity="1" stop-color="rgb(35.070801%, 46.151733%, 72.865295%)" offset="0.59375"/><stop stop-opacity="1" stop-color="rgb(34.892273%, 46.408081%, 73.008728%)" offset="0.597656"/><stop stop-opacity="1" stop-color="rgb(34.713745%, 46.665955%, 73.152161%)" offset="0.601562"/><stop stop-opacity="1" stop-color="rgb(34.535217%, 46.922302%, 73.295593%)" offset="0.605469"/><stop stop-opacity="1" stop-color="rgb(34.356689%, 47.180176%, 73.439026%)" offset="0.609375"/><stop stop-opacity="1" stop-color="rgb(34.176636%, 47.436523%, 73.580933%)" offset="0.613281"/><stop stop-opacity="1" stop-color="rgb(33.998108%, 47.694397%, 73.724365%)" offset="0.617188"/><stop stop-opacity="1" stop-color="rgb(33.81958%, 47.952271%, 73.867798%)" offset="0.621094"/><stop stop-opacity="1" stop-color="rgb(33.641052%, 48.210144%, 74.01123%)" offset="0.625"/><stop stop-opacity="1" stop-color="rgb(33.462524%, 48.466492%, 74.154663%)" offset="0.628906"/><stop stop-opacity="1" stop-color="rgb(33.283997%, 48.724365%, 74.298096%)" offset="0.632812"/><stop stop-opacity="1" stop-color="rgb(33.105469%, 48.980713%, 74.440002%)" offset="0.636719"/><stop stop-opacity="1" stop-color="rgb(32.926941%, 49.238586%, 74.583435%)" offset="0.640625"/><stop stop-opacity="1" stop-color="rgb(32.746887%, 49.494934%, 74.726868%)" offset="0.644531"/><stop stop-opacity="1" stop-color="rgb(32.568359%, 49.752808%, 74.8703%)" offset="0.648438"/><stop stop-opacity="1" stop-color="rgb(32.389832%, 50.010681%, 75.013733%)" offset="0.652344"/><stop stop-opacity="1" stop-color="rgb(32.211304%, 50.268555%, 75.157166%)" offset="0.65625"/><stop stop-opacity="1" stop-color="rgb(32.032776%, 50.524902%, 75.299072%)" offset="0.660156"/><stop stop-opacity="1" stop-color="rgb(31.854248%, 50.782776%, 75.442505%)" offset="0.664062"/><stop stop-opacity="1" stop-color="rgb(31.67572%, 51.039124%, 75.585938%)" offset="0.667969"/><stop stop-opacity="1" stop-color="rgb(31.497192%, 51.296997%, 75.72937%)" offset="0.671875"/><stop stop-opacity="1" stop-color="rgb(31.317139%, 51.553345%, 75.872803%)" offset="0.675781"/><stop stop-opacity="1" stop-color="rgb(31.138611%, 51.811218%, 76.016235%)" offset="0.679688"/><stop stop-opacity="1" stop-color="rgb(30.960083%, 52.069092%, 76.158142%)" offset="0.683594"/><stop stop-opacity="1" stop-color="rgb(30.781555%, 52.326965%, 76.301575%)" offset="0.6875"/><stop stop-opacity="1" stop-color="rgb(30.603027%, 52.583313%, 76.445007%)" offset="0.691406"/><stop stop-opacity="1" stop-color="rgb(30.4245%, 52.841187%, 76.58844%)" offset="0.695313"/><stop stop-opacity="1" stop-color="rgb(30.245972%, 53.097534%, 76.731873%)" offset="0.699219"/><stop stop-opacity="1" stop-color="rgb(30.067444%, 53.355408%, 76.875305%)" offset="0.703125"/><stop stop-opacity="1" stop-color="rgb(29.88739%, 53.611755%, 77.017212%)" offset="0.707031"/><stop stop-opacity="1" stop-color="rgb(29.708862%, 53.869629%, 77.160645%)" offset="0.710937"/><stop stop-opacity="1" stop-color="rgb(29.530334%, 54.127502%, 77.304077%)" offset="0.714844"/><stop stop-opacity="1" stop-color="rgb(29.351807%, 54.385376%, 77.44751%)" offset="0.71875"/><stop stop-opacity="1" stop-color="rgb(29.173279%, 54.641724%, 77.590942%)" offset="0.722656"/><stop stop-opacity="1" stop-color="rgb(28.994751%, 54.899597%, 77.734375%)" offset="0.726562"/><stop stop-opacity="1" stop-color="rgb(28.816223%, 55.155945%, 77.876282%)" offset="0.730469"/><stop stop-opacity="1" stop-color="rgb(28.637695%, 55.413818%, 78.019714%)" offset="0.734375"/><stop stop-opacity="1" stop-color="rgb(28.459167%, 55.670166%, 78.163147%)" offset="0.738281"/><stop stop-opacity="1" stop-color="rgb(28.28064%, 55.92804%, 78.30658%)" offset="0.742188"/><stop stop-opacity="1" stop-color="rgb(28.100586%, 56.185913%, 78.448486%)" offset="0.746094"/><stop stop-opacity="1" stop-color="rgb(27.922058%, 56.443787%, 78.591919%)" offset="0.75"/><stop stop-opacity="1" stop-color="rgb(27.74353%, 56.700134%, 78.735352%)" offset="0.753906"/><stop stop-opacity="1" stop-color="rgb(27.565002%, 56.958008%, 78.878784%)" offset="0.757812"/><stop stop-opacity="1" stop-color="rgb(27.386475%, 57.214355%, 79.022217%)" offset="0.761719"/><stop stop-opacity="1" stop-color="rgb(27.207947%, 57.472229%, 79.165649%)" offset="0.765625"/><stop stop-opacity="1" stop-color="rgb(27.029419%, 57.728577%, 79.307556%)" offset="0.769531"/><stop stop-opacity="1" stop-color="rgb(26.850891%, 57.98645%, 79.450989%)" offset="0.773438"/><stop stop-opacity="1" stop-color="rgb(26.670837%, 58.244324%, 79.594421%)" offset="0.777344"/><stop stop-opacity="1" stop-color="rgb(26.49231%, 58.502197%, 79.737854%)" offset="0.78125"/><stop stop-opacity="1" stop-color="rgb(26.313782%, 58.758545%, 79.881287%)" offset="0.785156"/><stop stop-opacity="1" stop-color="rgb(26.135254%, 59.016418%, 80.024719%)" offset="0.789062"/><stop stop-opacity="1" stop-color="rgb(25.956726%, 59.272766%, 80.166626%)" offset="0.792969"/><stop stop-opacity="1" stop-color="rgb(25.778198%, 59.53064%, 80.310059%)" offset="0.796875"/><stop stop-opacity="1" stop-color="rgb(25.59967%, 59.786987%, 80.453491%)" offset="0.800781"/><stop stop-opacity="1" stop-color="rgb(25.421143%, 60.044861%, 80.596924%)" offset="0.804687"/><stop stop-opacity="1" stop-color="rgb(25.241089%, 60.302734%, 80.740356%)" offset="0.808594"/><stop stop-opacity="1" stop-color="rgb(25.062561%, 60.560608%, 80.883789%)" offset="0.8125"/><stop stop-opacity="1" stop-color="rgb(24.884033%, 60.816956%, 81.025696%)" offset="0.816406"/><stop stop-opacity="1" stop-color="rgb(24.705505%, 61.074829%, 81.169128%)" offset="0.820312"/><stop stop-opacity="1" stop-color="rgb(24.526978%, 61.331177%, 81.312561%)" offset="0.824219"/><stop stop-opacity="1" stop-color="rgb(24.34845%, 61.58905%, 81.455994%)" offset="0.828125"/><stop stop-opacity="1" stop-color="rgb(24.169922%, 61.845398%, 81.599426%)" offset="0.832031"/><stop stop-opacity="1" stop-color="rgb(23.991394%, 62.103271%, 81.742859%)" offset="0.835938"/><stop stop-opacity="1" stop-color="rgb(23.81134%, 62.361145%, 81.884766%)" offset="0.839844"/><stop stop-opacity="1" stop-color="rgb(23.632812%, 62.619019%, 82.028198%)" offset="0.84375"/><stop stop-opacity="1" stop-color="rgb(23.454285%, 62.875366%, 82.171631%)" offset="0.847656"/><stop stop-opacity="1" stop-color="rgb(23.275757%, 63.13324%, 82.315063%)" offset="0.851562"/><stop stop-opacity="1" stop-color="rgb(23.097229%, 63.389587%, 82.458496%)" offset="0.855469"/><stop stop-opacity="1" stop-color="rgb(22.918701%, 63.647461%, 82.601929%)" offset="0.859375"/><stop stop-opacity="1" stop-color="rgb(22.740173%, 63.903809%, 82.743835%)" offset="0.863281"/><stop stop-opacity="1" stop-color="rgb(22.561646%, 64.161682%, 82.887268%)" offset="0.867187"/><stop stop-opacity="1" stop-color="rgb(22.383118%, 64.419556%, 83.030701%)" offset="0.871094"/><stop stop-opacity="1" stop-color="rgb(22.20459%, 64.677429%, 83.174133%)" offset="0.875"/><stop stop-opacity="1" stop-color="rgb(22.024536%, 64.933777%, 83.317566%)" offset="0.878906"/><stop stop-opacity="1" stop-color="rgb(21.846008%, 65.19165%, 83.460999%)" offset="0.882812"/><stop stop-opacity="1" stop-color="rgb(21.66748%, 65.447998%, 83.602905%)" offset="0.886719"/><stop stop-opacity="1" stop-color="rgb(21.488953%, 65.705872%, 83.746338%)" offset="0.890625"/><stop stop-opacity="1" stop-color="rgb(21.310425%, 65.962219%, 83.889771%)" offset="0.894531"/><stop stop-opacity="1" stop-color="rgb(21.131897%, 66.220093%, 84.033203%)" offset="0.898438"/><stop stop-opacity="1" stop-color="rgb(20.965576%, 66.459656%, 84.165955%)" offset="0.902344"/><stop stop-opacity="1" stop-color="rgb(20.799255%, 66.699219%, 84.298706%)" offset="0.90625"/><stop stop-opacity="1" stop-color="rgb(20.799255%, 66.699219%, 84.298706%)" offset="0.9375"/><stop stop-opacity="1" stop-color="rgb(20.799255%, 66.699219%, 84.298706%)" offset="1"/></linearGradient><clipPath id="07cfe6cd18"><path d="M 98 37 L 103 37 L 103 42 L 98 42 Z M 98 37 " clip-rule="nonzero"/></clipPath><clipPath id="234652d60b"><path d="M 102.800781 39.949219 C 102.800781 40.214844 102.75 40.472656 102.648438 40.722656 C 102.546875 40.96875 102.398438 41.1875 102.210938 41.375 C 102.023438 41.566406 101.804688 41.710938 101.554688 41.8125 C 101.308594 41.917969 101.050781 41.96875 100.785156 41.96875 C 100.515625 41.96875 100.261719 41.917969 100.011719 41.8125 C 99.765625 41.710938 99.546875 41.566406 99.359375 41.375 C 99.167969 41.1875 99.023438 40.96875 98.921875 40.722656 C 98.820312 40.472656 98.769531 40.214844 98.769531 39.949219 C 98.769531 39.679688 98.820312 39.421875 98.921875 39.175781 C 99.023438 38.929688 99.167969 38.710938 99.359375 38.519531 C 99.546875 38.332031 99.765625 38.183594 100.011719 38.082031 C 100.261719 37.980469 100.515625 37.929688 100.785156 37.929688 C 101.050781 37.929688 101.308594 37.980469 101.554688 38.082031 C 101.804688 38.183594 102.023438 38.332031 102.210938 38.519531 C 102.398438 38.710938 102.546875 38.929688 102.648438 39.175781 C 102.75 39.421875 102.800781 39.679688 102.800781 39.949219 Z M 102.800781 39.949219 " clip-rule="nonzero"/></clipPath><linearGradient x1="46.012257" gradientTransform="matrix(2.016395, 0, 0, 2.019076, 6.014174, -2.452236)" y1="19.98803" x2="47.987879" gradientUnits="userSpaceOnUse" y2="22.011831" id="32808e46c2"><stop stop-opacity="1" stop-color="rgb(38.661194%, 40.982056%, 69.989014%)" offset="0"/><stop stop-opacity="1" stop-color="rgb(38.562012%, 41.122437%, 70.068359%)" offset="0.125"/><stop stop-opacity="1" stop-color="rgb(38.365173%, 41.40625%, 70.225525%)" offset="0.25"/><stop stop-opacity="1" stop-color="rgb(38.168335%, 41.690063%, 70.38269%)" offset="0.375"/><stop stop-opacity="1" stop-color="rgb(37.971497%, 41.972351%, 70.541382%)" offset="0.493977"/><stop stop-opacity="1" stop-color="rgb(37.87384%, 42.114258%, 70.620728%)" offset="0.5"/><stop stop-opacity="1" stop-color="rgb(37.774658%, 42.256165%, 70.698547%)" offset="0.506023"/><stop stop-opacity="1" stop-color="rgb(37.677002%, 42.398071%, 70.777893%)" offset="0.625"/><stop stop-opacity="1" stop-color="rgb(37.57782%, 42.539978%, 70.855713%)" offset="0.75"/><stop stop-opacity="1" stop-color="rgb(37.380981%, 42.823792%, 71.014404%)" offset="0.875"/><stop stop-opacity="1" stop-color="rgb(37.184143%, 43.106079%, 71.17157%)" offset="1"/></linearGradient><clipPath id="5586d7f6eb"><path d="M 104 31 L 109 31 L 109 36 L 104 36 Z M 104 31 " clip-rule="nonzero"/></clipPath><clipPath id="12ecc66217"><path d="M 108.851562 33.890625 C 108.851562 34.160156 108.800781 34.417969 108.695312 34.664062 C 108.59375 34.910156 108.449219 35.128906 108.257812 35.320312 C 108.070312 35.507812 107.851562 35.652344 107.605469 35.757812 C 107.359375 35.859375 107.101562 35.910156 106.832031 35.910156 C 106.566406 35.910156 106.308594 35.859375 106.0625 35.757812 C 105.816406 35.652344 105.597656 35.507812 105.40625 35.320312 C 105.21875 35.128906 105.074219 34.910156 104.972656 34.664062 C 104.867188 34.417969 104.816406 34.160156 104.816406 33.890625 C 104.816406 33.625 104.867188 33.367188 104.972656 33.117188 C 105.074219 32.871094 105.21875 32.652344 105.40625 32.464844 C 105.597656 32.273438 105.816406 32.128906 106.0625 32.027344 C 106.308594 31.921875 106.566406 31.871094 106.832031 31.871094 C 107.101562 31.871094 107.359375 31.921875 107.605469 32.027344 C 107.851562 32.128906 108.070312 32.273438 108.257812 32.464844 C 108.449219 32.652344 108.59375 32.871094 108.695312 33.117188 C 108.800781 33.367188 108.851562 33.625 108.851562 33.890625 Z M 108.851562 33.890625 " clip-rule="nonzero"/></clipPath><linearGradient x1="49.012197" gradientTransform="matrix(2.016395, 0, 0, 2.019076, 6.014174, -2.452236)" y1="16.988088" x2="50.98782" gradientUnits="userSpaceOnUse" y2="19.011889" id="bd0e4ea8f2"><stop stop-opacity="1" stop-color="rgb(38.690186%, 40.939331%, 69.966125%)" offset="0"/><stop stop-opacity="1" stop-color="rgb(38.591003%, 41.081238%, 70.043945%)" offset="0.125"/><stop stop-opacity="1" stop-color="rgb(38.394165%, 41.365051%, 70.202637%)" offset="0.25"/><stop stop-opacity="1" stop-color="rgb(38.197327%, 41.648865%, 70.359802%)" offset="0.375"/><stop stop-opacity="1" stop-color="rgb(38.000488%, 41.931152%, 70.516968%)" offset="0.493977"/><stop stop-opacity="1" stop-color="rgb(37.902832%, 42.073059%, 70.596313%)" offset="0.5"/><stop stop-opacity="1" stop-color="rgb(37.80365%, 42.214966%, 70.675659%)" offset="0.506023"/><stop stop-opacity="1" stop-color="rgb(37.705994%, 42.356873%, 70.755005%)" offset="0.625"/><stop stop-opacity="1" stop-color="rgb(37.606812%, 42.498779%, 70.832825%)" offset="0.75"/><stop stop-opacity="1" stop-color="rgb(37.409973%, 42.781067%, 70.98999%)" offset="0.875"/><stop stop-opacity="1" stop-color="rgb(37.213135%, 43.06488%, 71.148682%)" offset="1"/></linearGradient><clipPath id="c1dfbecb88"><path d="M 62 27 L 75 27 L 75 40 L 62 40 Z M 62 27 " clip-rule="nonzero"/></clipPath><clipPath id="60a018e891"><path d="M 64.488281 35.910156 L 66.507812 35.910156 L 66.507812 37.929688 C 66.507812 39.046875 67.40625 39.949219 68.523438 39.949219 C 69.636719 39.949219 70.539062 39.046875 70.539062 37.929688 L 70.539062 35.910156 L 72.554688 35.910156 C 73.671875 35.910156 74.570312 35.007812 74.570312 33.890625 C 74.570312 32.773438 73.671875 31.871094 72.554688 31.871094 L 70.539062 31.871094 L 70.539062 29.851562 C 70.539062 28.738281 69.636719 27.832031 68.523438 27.832031 C 67.40625 27.832031 66.507812 28.738281 66.507812 29.851562 L 66.507812 31.871094 L 64.488281 31.871094 C 63.375 31.871094 62.472656 32.773438 62.472656 33.890625 C 62.472656 35.007812 63.375 35.910156 64.488281 35.910156 Z M 64.488281 35.910156 " clip-rule="nonzero"/></clipPath><linearGradient x1="28.036623" gradientTransform="matrix(2.016395, 0, 0, 2.019076, 6.014174, -2.452236)" y1="14.964248" x2="33.963483" gradientUnits="userSpaceOnUse" y2="21.035646" id="21532180b0"><stop stop-opacity="1" stop-color="rgb(47.653198%, 28.034973%, 62.785339%)" offset="0"/><stop stop-opacity="1" stop-color="rgb(47.579956%, 28.140259%, 62.844849%)" offset="0.03125"/><stop stop-opacity="1" stop-color="rgb(47.431946%, 28.352356%, 62.962341%)" offset="0.0625"/><stop stop-opacity="1" stop-color="rgb(47.283936%, 28.565979%, 63.08136%)" offset="0.09375"/><stop stop-opacity="1" stop-color="rgb(47.135925%, 28.778076%, 63.198853%)" offset="0.125"/><stop stop-opacity="1" stop-color="rgb(46.989441%, 28.990173%, 63.317871%)" offset="0.15625"/><stop stop-opacity="1" stop-color="rgb(46.841431%, 29.203796%, 63.435364%)" offset="0.1875"/><stop stop-opacity="1" stop-color="rgb(46.69342%, 29.415894%, 63.554382%)" offset="0.21875"/><stop stop-opacity="1" stop-color="rgb(46.54541%, 29.627991%, 63.671875%)" offset="0.25"/><stop stop-opacity="1" stop-color="rgb(46.398926%, 29.840088%, 63.790894%)" offset="0.28125"/><stop stop-opacity="1" stop-color="rgb(46.250916%, 30.053711%, 63.908386%)" offset="0.3125"/><stop stop-opacity="1" stop-color="rgb(46.102905%, 30.265808%, 64.027405%)" offset="0.34375"/><stop stop-opacity="1" stop-color="rgb(45.954895%, 30.477905%, 64.144897%)" offset="0.375"/><stop stop-opacity="1" stop-color="rgb(45.808411%, 30.691528%, 64.263916%)" offset="0.40625"/><stop stop-opacity="1" stop-color="rgb(45.6604%, 30.903625%, 64.381409%)" offset="0.4375"/><stop stop-opacity="1" stop-color="rgb(45.51239%, 31.115723%, 64.500427%)" offset="0.46875"/><stop stop-opacity="1" stop-color="rgb(45.365906%, 31.32782%, 64.61792%)" offset="0.493977"/><stop stop-opacity="1" stop-color="rgb(45.292664%, 31.434631%, 64.677429%)" offset="0.5"/><stop stop-opacity="1" stop-color="rgb(45.217896%, 31.541443%, 64.736938%)" offset="0.506023"/><stop stop-opacity="1" stop-color="rgb(45.144653%, 31.648254%, 64.796448%)" offset="0.53125"/><stop stop-opacity="1" stop-color="rgb(45.069885%, 31.75354%, 64.854431%)" offset="0.5625"/><stop stop-opacity="1" stop-color="rgb(44.921875%, 31.965637%, 64.97345%)" offset="0.59375"/><stop stop-opacity="1" stop-color="rgb(44.775391%, 32.17926%, 65.090942%)" offset="0.625"/><stop stop-opacity="1" stop-color="rgb(44.62738%, 32.391357%, 65.209961%)" offset="0.65625"/><stop stop-opacity="1" stop-color="rgb(44.47937%, 32.603455%, 65.327454%)" offset="0.6875"/><stop stop-opacity="1" stop-color="rgb(44.33136%, 32.815552%, 65.446472%)" offset="0.71875"/><stop stop-opacity="1" stop-color="rgb(44.184875%, 33.029175%, 65.563965%)" offset="0.75"/><stop stop-opacity="1" stop-color="rgb(44.036865%, 33.241272%, 65.682983%)" offset="0.78125"/><stop stop-opacity="1" stop-color="rgb(43.888855%, 33.453369%, 65.800476%)" offset="0.8125"/><stop stop-opacity="1" stop-color="rgb(43.740845%, 33.666992%, 65.919495%)" offset="0.84375"/><stop stop-opacity="1" stop-color="rgb(43.59436%, 33.879089%, 66.036987%)" offset="0.875"/><stop stop-opacity="1" stop-color="rgb(43.44635%, 34.091187%, 66.156006%)" offset="0.90625"/><stop stop-opacity="1" stop-color="rgb(43.29834%, 34.303284%, 66.273499%)" offset="0.9375"/><stop stop-opacity="1" stop-color="rgb(43.15033%, 34.516907%, 66.392517%)" offset="0.96875"/><stop stop-opacity="1" stop-color="rgb(43.003845%, 34.729004%, 66.51001%)" offset="1"/></linearGradient><clipPath id="40923cee11"><path d="M 94 31 L 99 31 L 99 36 L 94 36 Z M 94 31 " clip-rule="nonzero"/></clipPath><clipPath id="d2c26bcdfd"><path d="M 98.769531 33.890625 C 98.769531 34.160156 98.71875 34.417969 98.613281 34.664062 C 98.511719 34.910156 98.367188 35.128906 98.179688 35.320312 C 97.988281 35.507812 97.769531 35.652344 97.523438 35.757812 C 97.277344 35.859375 97.019531 35.910156 96.753906 35.910156 C 96.484375 35.910156 96.226562 35.859375 95.980469 35.757812 C 95.734375 35.652344 95.515625 35.507812 95.324219 35.320312 C 95.136719 35.128906 94.992188 34.910156 94.890625 34.664062 C 94.785156 34.417969 94.734375 34.160156 94.734375 33.890625 C 94.734375 33.625 94.785156 33.367188 94.890625 33.117188 C 94.992188 32.871094 95.136719 32.652344 95.324219 32.464844 C 95.515625 32.273438 95.734375 32.128906 95.980469 32.027344 C 96.226562 31.921875 96.484375 31.871094 96.753906 31.871094 C 97.019531 31.871094 97.277344 31.921875 97.523438 32.027344 C 97.769531 32.128906 97.988281 32.273438 98.179688 32.464844 C 98.367188 32.652344 98.511719 32.871094 98.613281 33.117188 C 98.71875 33.367188 98.769531 33.625 98.769531 33.890625 Z M 98.769531 33.890625 " clip-rule="nonzero"/></clipPath><linearGradient x1="44.012207" gradientTransform="matrix(2.016395, 0, 0, 2.019076, 6.014174, -2.452236)" y1="16.988079" x2="45.987813" gradientUnits="userSpaceOnUse" y2="19.011896" id="dcf61b9fd8"><stop stop-opacity="1" stop-color="rgb(40.634155%, 38.140869%, 68.408203%)" offset="0"/><stop stop-opacity="1" stop-color="rgb(40.534973%, 38.282776%, 68.487549%)" offset="0.125"/><stop stop-opacity="1" stop-color="rgb(40.338135%, 38.565063%, 68.644714%)" offset="0.25"/><stop stop-opacity="1" stop-color="rgb(40.141296%, 38.848877%, 68.80188%)" offset="0.375"/><stop stop-opacity="1" stop-color="rgb(39.944458%, 39.13269%, 68.960571%)" offset="0.493973"/><stop stop-opacity="1" stop-color="rgb(39.846802%, 39.274597%, 69.039917%)" offset="0.5"/><stop stop-opacity="1" stop-color="rgb(39.74762%, 39.416504%, 69.117737%)" offset="0.506027"/><stop stop-opacity="1" stop-color="rgb(39.649963%, 39.558411%, 69.197083%)" offset="0.625"/><stop stop-opacity="1" stop-color="rgb(39.550781%, 39.698792%, 69.274902%)" offset="0.75"/><stop stop-opacity="1" stop-color="rgb(39.353943%, 39.982605%, 69.433594%)" offset="0.875"/><stop stop-opacity="1" stop-color="rgb(39.157104%, 40.266418%, 69.590759%)" offset="1"/></linearGradient><clipPath id="d0ca772b77"><path d="M 78 31 L 83 31 L 83 36 L 78 36 Z M 78 31 " clip-rule="nonzero"/></clipPath><clipPath id="57830dc6c6"><path d="M 82.636719 33.890625 C 82.636719 34.160156 82.585938 34.417969 82.484375 34.664062 C 82.382812 34.910156 82.234375 35.128906 82.046875 35.320312 C 81.859375 35.507812 81.640625 35.652344 81.390625 35.757812 C 81.144531 35.859375 80.886719 35.910156 80.621094 35.910156 C 80.351562 35.910156 80.097656 35.859375 79.847656 35.757812 C 79.601562 35.652344 79.382812 35.507812 79.195312 35.320312 C 79.007812 35.128906 78.859375 34.910156 78.757812 34.664062 C 78.65625 34.417969 78.605469 34.160156 78.605469 33.890625 C 78.605469 33.625 78.65625 33.367188 78.757812 33.117188 C 78.859375 32.871094 79.007812 32.652344 79.195312 32.464844 C 79.382812 32.273438 79.601562 32.128906 79.847656 32.027344 C 80.097656 31.921875 80.351562 31.871094 80.621094 31.871094 C 80.886719 31.871094 81.144531 31.921875 81.390625 32.027344 C 81.640625 32.128906 81.859375 32.273438 82.046875 32.464844 C 82.234375 32.652344 82.382812 32.871094 82.484375 33.117188 C 82.585938 33.367188 82.636719 33.625 82.636719 33.890625 Z M 82.636719 33.890625 " clip-rule="nonzero"/></clipPath><linearGradient x1="36.012039" gradientTransform="matrix(2.016395, 0, 0, 2.019076, 6.014174, -2.452236)" y1="16.988243" x2="37.987661" gradientUnits="userSpaceOnUse" y2="19.012044" id="95732c848d"><stop stop-opacity="1" stop-color="rgb(43.745422%, 33.660889%, 65.916443%)" offset="0"/><stop stop-opacity="1" stop-color="rgb(43.64624%, 33.802795%, 65.994263%)" offset="0.125"/><stop stop-opacity="1" stop-color="rgb(43.449402%, 34.086609%, 66.152954%)" offset="0.25"/><stop stop-opacity="1" stop-color="rgb(43.252563%, 34.368896%, 66.31012%)" offset="0.375"/><stop stop-opacity="1" stop-color="rgb(43.055725%, 34.65271%, 66.467285%)" offset="0.493977"/><stop stop-opacity="1" stop-color="rgb(42.958069%, 34.794617%, 66.546631%)" offset="0.5"/><stop stop-opacity="1" stop-color="rgb(42.858887%, 34.936523%, 66.625977%)" offset="0.506023"/><stop stop-opacity="1" stop-color="rgb(42.76123%, 35.07843%, 66.705322%)" offset="0.625"/><stop stop-opacity="1" stop-color="rgb(42.662048%, 35.220337%, 66.783142%)" offset="0.75"/><stop stop-opacity="1" stop-color="rgb(42.46521%, 35.502625%, 66.940308%)" offset="0.875"/><stop stop-opacity="1" stop-color="rgb(42.268372%, 35.786438%, 67.098999%)" offset="1"/></linearGradient><clipPath id="6a511bffa8"><path d="M 86 31 L 91 31 L 91 36 L 86 36 Z M 86 31 " clip-rule="nonzero"/></clipPath><clipPath id="cfecb9b5f6"><path d="M 90.703125 33.890625 C 90.703125 34.160156 90.652344 34.417969 90.550781 34.664062 C 90.445312 34.910156 90.300781 35.128906 90.113281 35.320312 C 89.921875 35.507812 89.703125 35.652344 89.457031 35.757812 C 89.210938 35.859375 88.953125 35.910156 88.6875 35.910156 C 88.417969 35.910156 88.160156 35.859375 87.914062 35.757812 C 87.667969 35.652344 87.449219 35.507812 87.261719 35.320312 C 87.070312 35.128906 86.925781 34.910156 86.824219 34.664062 C 86.722656 34.417969 86.671875 34.160156 86.671875 33.890625 C 86.671875 33.625 86.722656 33.367188 86.824219 33.117188 C 86.925781 32.871094 87.070312 32.652344 87.261719 32.464844 C 87.449219 32.273438 87.667969 32.128906 87.914062 32.027344 C 88.160156 31.921875 88.417969 31.871094 88.6875 31.871094 C 88.953125 31.871094 89.210938 31.921875 89.457031 32.027344 C 89.703125 32.128906 89.921875 32.273438 90.113281 32.464844 C 90.300781 32.652344 90.445312 32.871094 90.550781 33.117188 C 90.652344 33.367188 90.703125 33.625 90.703125 33.890625 Z M 90.703125 33.890625 " clip-rule="nonzero"/></clipPath><linearGradient x1="40.012018" gradientTransform="matrix(2.016395, 0, 0, 2.019076, 6.014174, -2.452236)" y1="16.988264" x2="41.987625" gradientUnits="userSpaceOnUse" y2="19.01208" id="5ad1d18813"><stop stop-opacity="1" stop-color="rgb(42.190552%, 35.900879%, 67.163086%)" offset="0"/><stop stop-opacity="1" stop-color="rgb(42.09137%, 36.042786%, 67.240906%)" offset="0.125"/><stop stop-opacity="1" stop-color="rgb(41.894531%, 36.326599%, 67.398071%)" offset="0.25"/><stop stop-opacity="1" stop-color="rgb(41.697693%, 36.608887%, 67.556763%)" offset="0.375"/><stop stop-opacity="1" stop-color="rgb(41.500854%, 36.8927%, 67.713928%)" offset="0.493973"/><stop stop-opacity="1" stop-color="rgb(41.403198%, 37.034607%, 67.793274%)" offset="0.5"/><stop stop-opacity="1" stop-color="rgb(41.304016%, 37.176514%, 67.871094%)" offset="0.506027"/><stop stop-opacity="1" stop-color="rgb(41.20636%, 37.31842%, 67.950439%)" offset="0.625"/><stop stop-opacity="1" stop-color="rgb(41.107178%, 37.460327%, 68.029785%)" offset="0.75"/><stop stop-opacity="1" stop-color="rgb(40.910339%, 37.742615%, 68.186951%)" offset="0.875"/><stop stop-opacity="1" stop-color="rgb(40.713501%, 38.026428%, 68.344116%)" offset="1"/></linearGradient><clipPath id="c25d253466"><path d="M 100 25 L 105 25 L 105 30 L 100 30 Z M 100 25 " clip-rule="nonzero"/></clipPath><clipPath id="83170ceb5b"><path d="M 104.816406 27.832031 C 104.816406 28.101562 104.765625 28.359375 104.664062 28.605469 C 104.5625 28.855469 104.417969 29.074219 104.226562 29.261719 C 104.039062 29.449219 103.820312 29.597656 103.574219 29.699219 C 103.324219 29.800781 103.070312 29.851562 102.800781 29.851562 C 102.535156 29.851562 102.277344 29.800781 102.03125 29.699219 C 101.78125 29.597656 101.5625 29.449219 101.375 29.261719 C 101.1875 29.074219 101.039062 28.855469 100.9375 28.605469 C 100.835938 28.359375 100.785156 28.101562 100.785156 27.832031 C 100.785156 27.566406 100.835938 27.308594 100.9375 27.0625 C 101.039062 26.8125 101.1875 26.59375 101.375 26.40625 C 101.5625 26.21875 101.78125 26.070312 102.03125 25.96875 C 102.277344 25.867188 102.535156 25.816406 102.800781 25.816406 C 103.070312 25.816406 103.324219 25.867188 103.574219 25.96875 C 103.820312 26.070312 104.039062 26.21875 104.226562 26.40625 C 104.417969 26.59375 104.5625 26.8125 104.664062 27.0625 C 104.765625 27.308594 104.816406 27.566406 104.816406 27.832031 Z M 104.816406 27.832031 " clip-rule="nonzero"/></clipPath><linearGradient x1="47.011875" gradientTransform="matrix(2.016395, 0, 0, 2.019076, 6.014174, -2.452236)" y1="13.988403" x2="48.987497" gradientUnits="userSpaceOnUse" y2="16.012204" id="d5ab29ef6c"><stop stop-opacity="1" stop-color="rgb(40.663147%, 38.09967%, 68.385315%)" offset="0"/><stop stop-opacity="1" stop-color="rgb(40.563965%, 38.241577%, 68.464661%)" offset="0.125"/><stop stop-opacity="1" stop-color="rgb(40.367126%, 38.523865%, 68.621826%)" offset="0.25"/><stop stop-opacity="1" stop-color="rgb(40.170288%, 38.807678%, 68.778992%)" offset="0.375"/><stop stop-opacity="1" stop-color="rgb(39.97345%, 39.091492%, 68.937683%)" offset="0.493977"/><stop stop-opacity="1" stop-color="rgb(39.875793%, 39.233398%, 69.017029%)" offset="0.5"/><stop stop-opacity="1" stop-color="rgb(39.776611%, 39.375305%, 69.094849%)" offset="0.506023"/><stop stop-opacity="1" stop-color="rgb(39.678955%, 39.517212%, 69.174194%)" offset="0.625"/><stop stop-opacity="1" stop-color="rgb(39.579773%, 39.657593%, 69.252014%)" offset="0.75"/><stop stop-opacity="1" stop-color="rgb(39.382935%, 39.941406%, 69.410706%)" offset="0.875"/><stop stop-opacity="1" stop-color="rgb(39.186096%, 40.22522%, 69.567871%)" offset="1"/></linearGradient></defs><g clip-path="url(#7db9d85fee)"><g clip-path="url(#5dbc2fc587)"><path fill="url(#3e868a9821)" d="M 13.726562 1.585938 L 13.726562 122.730469 L 126.996094 122.730469 L 126.996094 1.585938 Z M 13.726562 1.585938 " fill-rule="nonzero"/></g></g><g clip-path="url(#07cfe6cd18)"><g clip-path="url(#234652d60b)"><path fill="url(#32808e46c2)" d="M 98.769531 37.929688 L 98.769531 41.96875 L 102.800781 41.96875 L 102.800781 37.929688 Z M 98.769531 37.929688 " fill-rule="nonzero"/></g></g><g clip-path="url(#5586d7f6eb)"><g clip-path="url(#12ecc66217)"><path fill="url(#bd0e4ea8f2)" d="M 104.816406 31.871094 L 104.816406 35.910156 L 108.851562 35.910156 L 108.851562 31.871094 Z M 104.816406 31.871094 " fill-rule="nonzero"/></g></g><g clip-path="url(#c1dfbecb88)"><g clip-path="url(#60a018e891)"><path fill="url(#21532180b0)" d="M 62.472656 27.832031 L 62.472656 39.949219 L 74.570312 39.949219 L 74.570312 27.832031 Z M 62.472656 27.832031 " fill-rule="nonzero"/></g></g><g clip-path="url(#40923cee11)"><g clip-path="url(#d2c26bcdfd)"><path fill="url(#dcf61b9fd8)" d="M 94.734375 31.871094 L 94.734375 35.910156 L 98.769531 35.910156 L 98.769531 31.871094 Z M 94.734375 31.871094 " fill-rule="nonzero"/></g></g><g clip-path="url(#d0ca772b77)"><g clip-path="url(#57830dc6c6)"><path fill="url(#95732c848d)" d="M 78.605469 31.871094 L 78.605469 35.910156 L 82.636719 35.910156 L 82.636719 31.871094 Z M 78.605469 31.871094 " fill-rule="nonzero"/></g></g><g clip-path="url(#6a511bffa8)"><g clip-path="url(#cfecb9b5f6)"><path fill="url(#5ad1d18813)" d="M 86.671875 31.871094 L 86.671875 35.910156 L 90.703125 35.910156 L 90.703125 31.871094 Z M 86.671875 31.871094 " fill-rule="nonzero"/></g></g><g clip-path="url(#c25d253466)"><g clip-path="url(#83170ceb5b)"><path fill="url(#d5ab29ef6c)" d="M 100.785156 25.816406 L 100.785156 29.851562 L 104.816406 29.851562 L 104.816406 25.816406 Z M 100.785156 25.816406 " fill-rule="nonzero"/></g></g></svg>