<svg xmlns="http://www.w3.org/2000/svg" xmlns:xlink="http://www.w3.org/1999/xlink" width="188" zoomAndPan="magnify" viewBox="0 0 141 125.249995" height="167" preserveAspectRatio="xMidYMid meet" version="1.0"><defs><clipPath id="04ea89755e"><path d="M 10 1.953125 L 131.28125 1.953125 L 131.28125 122.730469 L 10 122.730469 Z M 10 1.953125 " clip-rule="nonzero"/></clipPath></defs><g clip-path="url(#04ea89755e)"><path fill="#e2ece1" d="M 38.714844 1.953125 L 38.714844 43.105469 L 38.726562 43.105469 C 35.261719 51.421875 35.300781 60.78125 38.714844 69.03125 L 38.714844 84.433594 C 37.871094 84.023438 36.828125 84.199219 36.167969 84.929688 L 12.078125 111.488281 C 9.871094 113.925781 10.066406 117.683594 12.527344 119.886719 C 13.664062 120.910156 15.105469 121.40625 16.523438 121.40625 C 18.160156 121.40625 19.792969 120.753906 20.980469 119.449219 L 38.714844 99.878906 L 38.714844 122.730469 L 131.179688 122.730469 L 131.179688 1.953125 Z M 38.714844 1.953125 " fill-opacity="1" fill-rule="nonzero"/></g><path fill="#e2ece1" d="M 45.496094 79.433594 L 40.019531 85.472656 L 39.242188 84.773438 C 39.074219 84.625 38.902344 84.519531 38.714844 84.433594 L 38.714844 69.03125 C 40.273438 72.792969 42.539062 76.328125 45.496094 79.433594 Z M 45.496094 79.433594 " fill-opacity="1" fill-rule="nonzero"/><path fill="#e15c63" d="M 110.796875 80.222656 L 116.457031 80.222656 L 116.457031 113.679688 L 110.796875 113.679688 Z M 110.796875 80.222656 " fill-opacity="1" fill-rule="nonzero"/><path fill="#ffc05a" d="M 99.324219 88.855469 L 104.996094 88.855469 L 104.996094 113.679688 L 99.324219 113.679688 Z M 99.324219 88.855469 " fill-opacity="1" fill-rule="nonzero"/><path fill="#e15c63" d="M 94.917969 56.070312 C 94.917969 58.523438 94.550781 60.890625 93.878906 63.121094 L 74.800781 53.398438 L 74.800781 32.117188 C 86.242188 34.183594 94.917969 44.117188 94.917969 56.070312 Z M 94.917969 56.070312 " fill-opacity="1" fill-rule="nonzero"/><path fill="#8bcb8f" d="M 87.867188 95.914062 L 93.539062 95.914062 L 93.539062 113.679688 L 87.867188 113.679688 Z M 87.867188 95.914062 " fill-opacity="1" fill-rule="nonzero"/><path fill="#c2e6f9" d="M 51.160156 52.378906 C 50.914062 53.574219 50.800781 54.800781 50.800781 56.070312 C 50.800781 59.789062 51.851562 63.277344 53.679688 66.226562 L 70.394531 56.070312 L 70.394531 75.53125 C 77.816406 75.53125 84.265625 71.4375 87.59375 65.417969 L 70.394531 56.070312 L 70.394531 36.609375 C 66.34375 36.609375 62.582031 37.824219 59.457031 39.917969 C 55.214844 42.765625 52.152344 47.207031 51.160156 52.378906 Z M 70.394531 26.789062 C 86.6875 26.789062 99.890625 39.898438 99.890625 56.070312 C 99.890625 72.246094 86.6875 85.355469 70.394531 85.355469 C 54.105469 85.355469 40.90625 72.246094 40.90625 56.070312 C 40.90625 39.898438 54.105469 26.789062 70.394531 26.789062 Z M 93.878906 63.121094 C 94.550781 60.890625 94.917969 58.523438 94.917969 56.070312 C 94.917969 44.117188 86.242188 34.183594 74.800781 32.117188 L 74.800781 53.398438 Z M 65.886719 80 L 66.480469 63.453125 L 52.441406 72.644531 C 55.945312 76.386719 60.617188 79.027344 65.886719 80 Z M 65.886719 80 " fill-opacity="1" fill-rule="nonzero"/><path fill="#8bcb8f" d="M 70.394531 56.070312 L 87.59375 65.417969 C 84.265625 71.4375 77.816406 75.53125 70.394531 75.53125 Z M 70.394531 56.070312 " fill-opacity="1" fill-rule="nonzero"/><path fill="#52a7d7" d="M 76.40625 106.921875 L 82.066406 106.921875 L 82.066406 113.679688 L 76.40625 113.679688 Z M 76.40625 106.921875 " fill-opacity="1" fill-rule="nonzero"/><path fill="#f48ca7" d="M 70.605469 90.082031 L 70.605469 113.679688 L 64.933594 113.679688 L 64.933594 89.644531 C 66.8125 89.945312 68.710938 90.089844 70.605469 90.082031 Z M 70.605469 90.082031 " fill-opacity="1" fill-rule="nonzero"/><path fill="#ffa25a" d="M 70.394531 36.609375 L 70.394531 56.070312 L 59.457031 39.917969 C 62.582031 37.824219 66.34375 36.609375 70.394531 36.609375 Z M 70.394531 36.609375 " fill-opacity="1" fill-rule="nonzero"/><path fill="#52a7d7" d="M 59.457031 39.917969 L 70.394531 56.070312 L 51.160156 52.378906 C 52.152344 47.207031 55.214844 42.765625 59.457031 39.917969 Z M 59.457031 39.917969 " fill-opacity="1" fill-rule="nonzero"/><path fill="#f48ca7" d="M 70.394531 56.070312 L 53.679688 66.226562 C 51.851562 63.277344 50.800781 59.789062 50.800781 56.070312 C 50.800781 54.800781 50.914062 53.574219 51.160156 52.378906 Z M 70.394531 56.070312 " fill-opacity="1" fill-rule="nonzero"/><path fill="#ffc05a" d="M 66.480469 63.453125 L 65.886719 80 C 60.617188 79.027344 55.945312 76.386719 52.441406 72.644531 Z M 66.480469 63.453125 " fill-opacity="1" fill-rule="nonzero"/><path fill="#ffa25a" d="M 53.472656 95.914062 L 59.144531 95.914062 L 59.144531 113.679688 L 53.472656 113.679688 Z M 53.472656 95.914062 " fill-opacity="1" fill-rule="nonzero"/><path fill="#93b2b8" d="M 49.601562 83.097656 L 44.125 89.136719 L 40.019531 85.472656 L 45.496094 79.433594 C 46.121094 80.085938 46.78125 80.730469 47.472656 81.34375 C 48.164062 81.957031 48.871094 82.550781 49.601562 83.097656 Z M 49.601562 83.097656 " fill-opacity="1" fill-rule="nonzero"/><path fill="#e15c63" d="M 44.902344 89.835938 C 45.796875 90.636719 45.867188 92 45.058594 92.886719 L 38.714844 99.878906 L 20.980469 119.449219 C 19.792969 120.753906 18.160156 121.40625 16.523438 121.40625 C 15.105469 121.40625 13.664062 120.910156 12.527344 119.886719 C 10.066406 117.683594 9.871094 113.925781 12.078125 111.488281 L 36.167969 84.929688 C 36.828125 84.199219 37.871094 84.023438 38.714844 84.433594 C 38.902344 84.519531 39.074219 84.625 39.242188 84.773438 L 40.019531 85.472656 L 44.125 89.136719 Z M 44.902344 89.835938 " fill-opacity="1" fill-rule="nonzero"/><path fill="#4d727a" d="M 120.058594 112.707031 L 47.65625 112.707031 C 47.117188 112.707031 46.683594 113.144531 46.683594 113.679688 C 46.683594 114.21875 47.117188 114.65625 47.65625 114.65625 L 120.058594 114.65625 C 120.59375 114.65625 121.03125 114.21875 121.03125 113.679688 C 121.03125 113.144531 120.59375 112.707031 120.058594 112.707031 Z M 120.058594 112.707031 " fill-opacity="1" fill-rule="nonzero"/><path fill="#93b2b8" d="M 116.488281 16.808594 L 58.335938 16.808594 C 57.800781 16.808594 57.363281 16.371094 57.363281 15.832031 C 57.363281 15.296875 57.800781 14.859375 58.335938 14.859375 L 116.488281 14.859375 C 117.023438 14.859375 117.460938 15.296875 117.460938 15.832031 C 117.460938 16.371094 117.023438 16.808594 116.488281 16.808594 Z M 116.488281 16.808594 " fill-opacity="1" fill-rule="nonzero"/><path fill="#93b2b8" d="M 116.488281 28.621094 L 89.21875 28.621094 C 88.679688 28.621094 88.242188 28.183594 88.242188 27.648438 C 88.242188 27.109375 88.679688 26.671875 89.21875 26.671875 L 116.488281 26.671875 C 117.023438 26.671875 117.460938 27.109375 117.460938 27.648438 C 117.460938 28.183594 117.023438 28.621094 116.488281 28.621094 Z M 116.488281 28.621094 " fill-opacity="1" fill-rule="nonzero"/><path fill="#93b2b8" d="M 116.488281 37.582031 L 98.5 37.582031 C 97.960938 37.582031 97.523438 37.144531 97.523438 36.609375 C 97.523438 36.070312 97.960938 35.632812 98.5 35.632812 L 116.488281 35.632812 C 117.023438 35.632812 117.460938 36.070312 117.460938 36.609375 C 117.460938 37.144531 117.023438 37.582031 116.488281 37.582031 Z M 116.488281 37.582031 " fill-opacity="1" fill-rule="nonzero"/><path fill="#93b2b8" d="M 116.488281 45.199219 L 102.527344 45.199219 C 101.988281 45.199219 101.546875 44.761719 101.546875 44.226562 C 101.546875 43.6875 101.980469 43.25 102.515625 43.25 L 116.488281 43.25 C 117.023438 43.25 117.460938 43.6875 117.460938 44.226562 C 117.460938 44.761719 117.023438 45.199219 116.488281 45.199219 Z M 116.488281 45.199219 " fill-opacity="1" fill-rule="nonzero"/><path fill="#93b2b8" d="M 116.488281 52.804688 L 104.382812 52.804688 C 103.847656 52.804688 103.410156 52.371094 103.410156 51.832031 C 103.410156 51.292969 103.847656 50.859375 104.382812 50.859375 L 116.488281 50.859375 C 117.023438 50.859375 117.460938 51.292969 117.460938 51.832031 C 117.460938 52.371094 117.023438 52.804688 116.488281 52.804688 Z M 116.488281 52.804688 " fill-opacity="1" fill-rule="nonzero"/><path fill="#93b2b8" d="M 116.488281 60.414062 L 104.492188 60.414062 C 103.953125 60.414062 103.519531 59.976562 103.519531 59.4375 C 103.519531 58.902344 103.953125 58.464844 104.492188 58.464844 L 116.488281 58.464844 C 117.023438 58.464844 117.460938 58.902344 117.460938 59.4375 C 117.460938 59.976562 117.023438 60.414062 116.488281 60.414062 Z M 116.488281 60.414062 " fill-opacity="1" fill-rule="nonzero"/><path fill="#4d727a" d="M 104.386719 51.832031 C 105.582031 61.289062 102.789062 71.195312 95.851562 78.832031 C 89.140625 86.234375 79.90625 90.023438 70.605469 90.082031 C 68.710938 90.089844 66.8125 89.945312 64.933594 89.644531 C 59.496094 88.785156 54.222656 86.605469 49.601562 83.097656 C 48.871094 82.550781 48.164062 81.957031 47.472656 81.34375 C 46.78125 80.730469 46.121094 80.085938 45.496094 79.433594 C 42.539062 76.328125 40.273438 72.792969 38.714844 69.03125 C 35.300781 60.78125 35.261719 51.421875 38.726562 43.105469 C 40.175781 39.597656 42.246094 36.285156 44.941406 33.316406 C 56.421875 20.652344 75.304688 18.550781 89.21875 27.648438 C 90.648438 28.574219 92.019531 29.625 93.324219 30.792969 C 95.308594 32.566406 97.039062 34.523438 98.5 36.609375 C 100.183594 39.003906 101.523438 41.566406 102.515625 44.226562 L 102.527344 44.226562 C 103.441406 46.6875 104.0625 49.242188 104.386719 51.832031 Z M 99.890625 56.070312 C 99.890625 39.898438 86.6875 26.789062 70.394531 26.789062 C 54.105469 26.789062 40.90625 39.898438 40.90625 56.070312 C 40.90625 72.246094 54.105469 85.355469 70.394531 85.355469 C 86.6875 85.355469 99.890625 72.246094 99.890625 56.070312 Z M 99.890625 56.070312 " fill-opacity="1" fill-rule="nonzero"/></svg>