<svg xmlns="http://www.w3.org/2000/svg" xmlns:xlink="http://www.w3.org/1999/xlink" width="188" zoomAndPan="magnify" viewBox="0 0 141 125.249995" height="167" preserveAspectRatio="xMidYMid meet" version="1.0"><defs><clipPath id="576bad40e4"><path d="M 60 104 L 82 104 L 82 123.707031 L 60 123.707031 Z M 60 104 " clip-rule="nonzero"/></clipPath><clipPath id="b1c3484d6d"><path d="M 63 3 L 131.957031 3 L 131.957031 72 L 63 72 Z M 63 3 " clip-rule="nonzero"/></clipPath></defs><g clip-path="url(#576bad40e4)"><path fill="#ebebeb" d="M 60.214844 117.167969 C 60.214844 120.664062 63.050781 123.496094 66.546875 123.496094 L 74.984375 123.496094 C 78.480469 123.496094 81.316406 120.664062 81.316406 117.167969 L 81.316406 104.507812 L 60.214844 104.507812 Z M 60.214844 117.167969 " fill-opacity="1" fill-rule="nonzero"/></g><path fill="#c9dfff" d="M 50.273438 81.628906 C 48.421875 80.4375 46.6875 79.085938 45.074219 77.601562 C 43.898438 82.144531 39.808594 85.515625 34.894531 85.515625 C 29.070312 85.515625 24.347656 80.792969 24.347656 74.96875 C 24.347656 69.140625 29.070312 64.417969 34.894531 64.417969 C 35.21875 64.417969 35.523438 64.484375 35.835938 64.511719 C 33.894531 59.945312 32.808594 54.925781 32.808594 49.648438 L 30.117188 49.648438 L 28.660156 56.582031 C 28.351562 58.058594 26.640625 58.742188 25.398438 57.886719 L 19.570312 53.867188 L 13.242188 60.199219 L 17.261719 66.027344 C 18.113281 67.269531 17.429688 68.980469 15.957031 69.289062 L 9.019531 70.746094 L 9.019531 79.1875 L 15.957031 80.644531 C 17.429688 80.957031 18.113281 82.667969 17.261719 83.90625 L 13.242188 89.738281 L 19.570312 96.066406 L 25.402344 92.046875 C 26.640625 91.191406 28.351562 91.878906 28.664062 93.351562 L 30.121094 100.289062 L 38.5625 100.289062 L 40.019531 93.351562 C 40.328125 91.878906 42.039062 91.191406 43.28125 92.046875 L 49.109375 96.066406 L 55.734375 89.445312 C 55.074219 86.246094 53.097656 83.441406 50.273438 81.628906 Z M 50.273438 81.628906 " fill-opacity="1" fill-rule="nonzero"/><path fill="#ffb41f" d="M 108.746094 49.648438 C 108.746094 27.246094 89.351562 9.375 66.441406 11.90625 C 48.792969 13.855469 34.628906 28.277344 32.960938 45.953125 C 31.550781 60.890625 38.800781 74.261719 50.273438 81.628906 C 53.765625 83.871094 55.996094 87.613281 55.996094 91.761719 L 55.996094 100.289062 C 55.996094 103.785156 58.828125 106.617188 62.324219 106.617188 L 79.207031 106.617188 C 82.703125 106.617188 85.535156 103.785156 85.535156 100.289062 L 85.535156 91.9375 C 85.535156 87.691406 87.816406 83.859375 91.382812 81.550781 C 101.832031 74.785156 108.746094 63.023438 108.746094 49.648438 Z M 108.746094 49.648438 " fill-opacity="1" fill-rule="nonzero"/><g clip-path="url(#b1c3484d6d)"><path fill="#1cc8eb" d="M 121.8125 27.324219 L 128.445312 22.351562 L 120.847656 12.222656 L 114.21875 17.199219 C 111.210938 19.453125 106.976562 16.945312 107.507812 13.222656 L 108.679688 5.019531 L 96.148438 3.226562 L 94.972656 11.433594 C 94.441406 15.15625 89.675781 16.375 87.421875 13.367188 L 82.445312 6.734375 L 72.320312 14.332031 L 77.292969 20.964844 C 79.546875 23.96875 77.042969 28.207031 73.320312 27.671875 L 65.113281 26.5 L 63.320312 39.035156 L 71.527344 40.207031 C 75.25 40.738281 76.472656 45.503906 73.460938 47.761719 L 66.832031 52.734375 L 74.425781 62.863281 L 81.058594 57.890625 C 84.066406 55.632812 88.300781 58.140625 87.769531 61.863281 L 86.59375 70.066406 L 99.128906 71.859375 L 100.300781 63.652344 C 100.832031 59.929688 105.601562 58.710938 107.855469 61.71875 L 112.828125 68.351562 L 122.957031 60.753906 L 117.984375 54.121094 C 115.726562 51.117188 118.234375 46.882812 121.957031 47.414062 L 130.164062 48.585938 L 131.957031 36.050781 L 123.75 34.878906 C 120.027344 34.347656 118.808594 29.582031 121.8125 27.324219 Z M 97.640625 52.3125 C 89.484375 52.3125 82.871094 45.699219 82.871094 37.542969 C 82.871094 29.386719 89.484375 22.773438 97.640625 22.773438 C 105.796875 22.773438 112.410156 29.386719 112.410156 37.542969 C 112.410156 45.699219 105.796875 52.3125 97.640625 52.3125 Z M 97.640625 52.3125 " fill-opacity="1" fill-rule="nonzero"/></g><path fill="#9e9e9e" d="M 60.214844 110.835938 L 81.316406 110.835938 L 81.316406 115.058594 L 60.214844 115.058594 Z M 60.214844 110.835938 " fill-opacity="1" fill-rule="nonzero"/><path fill="#ffaa00" d="M 68.65625 93.957031 L 72.875 93.957031 L 72.875 100.289062 L 68.65625 100.289062 Z M 68.65625 93.957031 " fill-opacity="1" fill-rule="nonzero"/><path fill="#ffaa00" d="M 72.875 89.738281 L 68.65625 89.738281 C 68.65625 84.160156 65.257812 79.226562 59.996094 77.160156 C 48.59375 72.695312 41.226562 61.894531 41.226562 49.648438 C 41.226562 39.449219 46.378906 30.105469 55.015625 24.652344 L 57.269531 28.21875 C 49.867188 32.894531 45.445312 40.902344 45.445312 49.648438 C 45.445312 60.148438 51.761719 69.402344 61.535156 73.234375 C 68.425781 75.933594 72.875 82.410156 72.875 89.738281 Z M 72.875 89.738281 " fill-opacity="1" fill-rule="nonzero"/><path fill="#ffaa00" d="M 123.515625 83.40625 L 112.964844 83.40625 C 111.800781 83.40625 110.855469 82.464844 110.855469 81.296875 C 110.855469 80.132812 111.800781 79.1875 112.964844 79.1875 L 123.515625 79.1875 C 124.679688 79.1875 125.625 80.128906 125.625 81.296875 C 125.625 82.464844 124.683594 83.40625 123.515625 83.40625 Z M 123.515625 83.40625 " fill-opacity="1" fill-rule="nonzero"/><path fill="#ffaa00" d="M 118.433594 102.664062 L 109.015625 94.816406 C 108.121094 94.074219 108 92.746094 108.746094 91.847656 C 109.492188 90.953125 110.824219 90.832031 111.71875 91.574219 L 121.136719 99.421875 C 122.03125 100.167969 122.152344 101.496094 121.40625 102.390625 L 121.40625 102.394531 C 120.660156 103.289062 119.328125 103.414062 118.433594 102.664062 Z M 118.433594 102.664062 " fill-opacity="1" fill-rule="nonzero"/><path fill="#ffaa00" d="M 100.304688 110.835938 C 99.140625 110.835938 98.195312 109.894531 98.195312 108.726562 L 98.195312 98.175781 C 98.195312 97.011719 99.140625 96.066406 100.304688 96.066406 C 101.472656 96.066406 102.417969 97.011719 102.417969 98.175781 L 102.417969 108.726562 C 102.417969 109.894531 101.472656 110.835938 100.304688 110.835938 Z M 100.304688 110.835938 " fill-opacity="1" fill-rule="nonzero"/><path fill="#ffaa00" d="M 9.574219 39.097656 C 9.292969 37.96875 9.980469 36.824219 11.109375 36.539062 L 23.898438 33.34375 C 25.03125 33.058594 26.171875 33.75 26.457031 34.878906 C 26.738281 36.007812 26.050781 37.152344 24.921875 37.433594 L 12.132812 40.632812 C 11.003906 40.914062 9.859375 40.226562 9.574219 39.097656 Z M 9.574219 39.097656 " fill-opacity="1" fill-rule="nonzero"/><path fill="#ffaa00" d="M 25.625 24.820312 L 14.285156 16.71875 C 13.339844 16.042969 13.117188 14.722656 13.796875 13.777344 C 14.472656 12.828125 15.789062 12.609375 16.738281 13.289062 L 28.074219 21.386719 C 29.023438 22.0625 29.242188 23.378906 28.566406 24.328125 C 27.890625 25.273438 26.570312 25.492188 25.625 24.820312 Z M 25.625 24.820312 " fill-opacity="1" fill-rule="nonzero"/><path fill="#ffaa00" d="M 34.441406 16.476562 L 31.167969 3.683594 C 30.878906 2.554688 31.5625 1.40625 32.6875 1.117188 L 32.691406 1.117188 C 33.820312 0.828125 34.96875 1.507812 35.257812 2.636719 L 38.527344 15.429688 C 38.816406 16.558594 38.136719 17.707031 37.007812 17.996094 C 35.878906 18.285156 34.726562 17.605469 34.441406 16.476562 Z M 34.441406 16.476562 " fill-opacity="1" fill-rule="nonzero"/></svg>