<svg xmlns="http://www.w3.org/2000/svg" xmlns:xlink="http://www.w3.org/1999/xlink" width="188" zoomAndPan="magnify" viewBox="0 0 141 125.249995" height="167" preserveAspectRatio="xMidYMid meet" version="1.0"><defs><clipPath id="902cb3325d"><path d="M 8.941406 0.695312 L 131.957031 0.695312 L 131.957031 123.707031 L 8.941406 123.707031 Z M 8.941406 0.695312 " clip-rule="nonzero"/></clipPath></defs><g clip-path="url(#902cb3325d)"><path fill="#000000" d="M 32.445312 72.042969 C 30.292969 71.003906 27.890625 70.402344 25.34375 70.402344 C 16.300781 70.402344 8.941406 77.761719 8.941406 86.804688 C 8.941406 95.847656 16.300781 103.207031 25.34375 103.207031 C 31.019531 103.207031 36.027344 100.308594 38.972656 95.914062 L 54.46875 103.667969 C 54.203125 104.839844 54.046875 106.054688 54.046875 107.308594 C 54.046875 116.351562 61.40625 123.707031 70.449219 123.707031 C 79.492188 123.707031 86.851562 116.351562 86.851562 107.308594 C 86.851562 103.90625 85.8125 100.75 84.03125 98.125 L 105.804688 75.363281 C 108.535156 77.386719 111.902344 78.605469 115.554688 78.605469 C 124.597656 78.605469 131.957031 71.246094 131.957031 62.203125 C 131.957031 53.160156 124.597656 45.800781 115.554688 45.800781 C 111.769531 45.800781 108.292969 47.101562 105.511719 49.261719 L 83.390625 27.140625 C 85.550781 24.359375 86.851562 20.882812 86.851562 17.097656 C 86.851562 8.054688 79.492188 0.695312 70.449219 0.695312 C 61.40625 0.695312 54.046875 8.054688 54.046875 17.097656 C 54.046875 18.34375 54.199219 19.554688 54.464844 20.722656 L 39.925781 26.023438 C 37.199219 20.730469 31.695312 17.097656 25.34375 17.097656 C 16.300781 17.097656 8.941406 24.457031 8.941406 33.5 C 8.941406 42.542969 16.300781 49.902344 25.34375 49.902344 C 27.679688 49.902344 29.894531 49.40625 31.90625 48.519531 L 39.453125 61.222656 Z M 25.34375 99.105469 C 18.558594 99.105469 13.042969 93.589844 13.042969 86.804688 C 13.042969 80.019531 18.558594 74.503906 25.34375 74.503906 C 32.128906 74.503906 37.644531 80.019531 37.644531 86.804688 C 37.644531 93.589844 32.128906 99.105469 25.34375 99.105469 Z M 40.800781 92.238281 C 41.402344 90.535156 41.746094 88.710938 41.746094 86.804688 C 41.746094 81.773438 39.464844 77.273438 35.894531 74.261719 L 41.789062 65.15625 L 59.566406 95.070312 C 58.070312 96.402344 56.816406 98 55.890625 99.792969 Z M 70.449219 33.5 C 74.234375 33.5 77.710938 32.199219 80.492188 30.039062 L 102.617188 52.160156 C 101.289062 53.867188 100.296875 55.839844 99.726562 57.984375 L 86.84375 56.210938 C 86.84375 56.15625 86.851562 56.105469 86.851562 56.050781 C 86.851562 47.007812 79.492188 39.648438 70.449219 39.648438 C 64.773438 39.648438 59.765625 42.546875 56.820312 46.941406 L 54.375 45.71875 L 63.351562 31.859375 C 65.5 32.898438 67.902344 33.5 70.449219 33.5 Z M 72.5 91.046875 L 72.5 72.308594 C 79.164062 71.472656 84.582031 66.628906 86.28125 60.269531 L 99.160156 62.042969 C 99.160156 62.09375 99.152344 62.148438 99.152344 62.203125 C 99.152344 66.117188 100.535156 69.710938 102.832031 72.535156 L 81.304688 95.042969 C 78.890625 92.90625 75.855469 91.46875 72.5 91.046875 Z M 70.449219 43.75 C 77.234375 43.75 82.75 49.265625 82.75 56.050781 C 82.75 62.835938 77.234375 68.351562 70.449219 68.351562 C 63.664062 68.351562 58.148438 62.835938 58.148438 56.050781 C 58.148438 49.265625 63.664062 43.75 70.449219 43.75 Z M 54.992188 50.617188 C 54.390625 52.320312 54.046875 54.144531 54.046875 56.050781 C 54.046875 64.398438 60.320312 71.296875 68.398438 72.3125 L 68.398438 91.046875 C 66.457031 91.292969 64.621094 91.875 62.949219 92.738281 L 44.277344 61.3125 L 52.132812 49.183594 Z M 70.449219 119.609375 C 63.664062 119.609375 58.148438 114.089844 58.148438 107.308594 C 58.148438 100.523438 63.664062 95.003906 70.449219 95.003906 C 77.234375 95.003906 82.75 100.523438 82.75 107.308594 C 82.75 114.089844 77.234375 119.609375 70.449219 119.609375 Z M 115.554688 49.902344 C 122.339844 49.902344 127.855469 55.417969 127.855469 62.203125 C 127.855469 68.984375 122.339844 74.503906 115.554688 74.503906 C 108.769531 74.503906 103.253906 68.984375 103.253906 62.203125 C 103.253906 55.417969 108.769531 49.902344 115.554688 49.902344 Z M 70.449219 4.796875 C 77.234375 4.796875 82.75 10.3125 82.75 17.097656 C 82.75 23.882812 77.234375 29.398438 70.449219 29.398438 C 63.664062 29.398438 58.148438 23.882812 58.148438 17.097656 C 58.148438 10.3125 63.664062 4.796875 70.449219 4.796875 Z M 55.867188 24.574219 C 56.871094 26.519531 58.242188 28.238281 59.902344 29.636719 L 50.683594 43.875 L 40.800781 38.933594 C 41.402344 37.230469 41.746094 35.40625 41.746094 33.5 C 41.746094 32.253906 41.59375 31.039062 41.328125 29.871094 Z M 13.042969 33.5 C 13.042969 26.714844 18.558594 21.199219 25.34375 21.199219 C 32.128906 21.199219 37.644531 26.714844 37.644531 33.5 C 37.644531 40.28125 32.128906 45.800781 25.34375 45.800781 C 18.558594 45.800781 13.042969 40.28125 13.042969 33.5 Z M 35.421875 46.414062 C 36.796875 45.339844 38 44.058594 38.972656 42.609375 L 48.441406 47.339844 L 41.9375 57.378906 Z M 35.421875 46.414062 " fill-opacity="1" fill-rule="nonzero"/></g></svg>