<svg xmlns="http://www.w3.org/2000/svg" xmlns:xlink="http://www.w3.org/1999/xlink" width="244" zoomAndPan="magnify" viewBox="0 0 183 158.249993" height="211" preserveAspectRatio="xMidYMid meet" version="1.0"><defs><clipPath id="52a0d07a2e"><path d="M 15 2.46875 L 168.429688 2.46875 L 168.429688 154.75 L 15 154.75 Z M 15 2.46875 " clip-rule="nonzero"/></clipPath></defs><g clip-path="url(#52a0d07a2e)"><path fill="#e2ece1" d="M 51.300781 2.46875 L 51.300781 54.355469 L 51.3125 54.355469 C 46.929688 64.84375 46.980469 76.644531 51.300781 87.046875 L 51.300781 106.460938 C 50.230469 105.945312 48.914062 106.167969 48.074219 107.089844 L 17.59375 140.578125 C 14.800781 143.648438 15.046875 148.386719 18.160156 151.164062 C 19.601562 152.453125 21.421875 153.078125 23.222656 153.078125 C 25.289062 153.078125 27.355469 152.257812 28.859375 150.609375 L 51.300781 125.9375 L 51.300781 154.75 L 168.300781 154.75 L 168.300781 2.46875 Z M 51.300781 2.46875 " fill-opacity="1" fill-rule="nonzero"/></g><path fill="#e2ece1" d="M 59.882812 100.164062 L 52.949219 107.777344 L 51.964844 106.890625 C 51.757812 106.707031 51.535156 106.574219 51.300781 106.460938 L 51.300781 87.046875 C 53.269531 91.785156 56.140625 96.246094 59.882812 100.164062 Z M 59.882812 100.164062 " fill-opacity="1" fill-rule="nonzero"/><path fill="#e15c63" d="M 142.511719 101.15625 L 149.675781 101.15625 L 149.675781 143.339844 L 142.511719 143.339844 Z M 142.511719 101.15625 " fill-opacity="1" fill-rule="nonzero"/><path fill="#ffc05a" d="M 127.996094 112.039062 L 135.171875 112.039062 L 135.171875 143.339844 L 127.996094 143.339844 Z M 127.996094 112.039062 " fill-opacity="1" fill-rule="nonzero"/><path fill="#e15c63" d="M 122.417969 70.703125 C 122.417969 73.796875 121.953125 76.78125 121.101562 79.59375 L 96.960938 67.335938 L 96.960938 40.503906 C 111.4375 43.105469 122.417969 55.632812 122.417969 70.703125 Z M 122.417969 70.703125 " fill-opacity="1" fill-rule="nonzero"/><path fill="#8bcb8f" d="M 113.496094 120.941406 L 120.671875 120.941406 L 120.671875 143.339844 L 113.496094 143.339844 Z M 113.496094 120.941406 " fill-opacity="1" fill-rule="nonzero"/><path fill="#c2e6f9" d="M 67.046875 66.046875 C 66.738281 67.558594 66.589844 69.105469 66.589844 70.703125 C 66.589844 75.390625 67.921875 79.789062 70.234375 83.507812 L 91.382812 70.703125 L 91.382812 95.238281 C 100.777344 95.238281 108.9375 90.078125 113.148438 82.492188 L 91.382812 70.703125 L 91.382812 46.164062 C 86.261719 46.164062 81.5 47.699219 77.546875 50.339844 C 72.179688 53.925781 68.300781 59.527344 67.046875 66.046875 Z M 91.382812 33.785156 C 112.003906 33.785156 128.710938 50.316406 128.710938 70.703125 C 128.710938 91.097656 112.003906 107.628906 91.382812 107.628906 C 70.777344 107.628906 54.070312 91.097656 54.070312 70.703125 C 54.070312 50.316406 70.777344 33.785156 91.382812 33.785156 Z M 121.101562 79.59375 C 121.953125 76.78125 122.417969 73.796875 122.417969 70.703125 C 122.417969 55.632812 111.4375 43.105469 96.960938 40.503906 L 96.960938 67.335938 Z M 85.683594 100.875 L 86.4375 80.011719 L 68.671875 91.601562 C 73.101562 96.316406 79.011719 99.644531 85.683594 100.875 Z M 85.683594 100.875 " fill-opacity="1" fill-rule="nonzero"/><path fill="#8bcb8f" d="M 91.382812 70.703125 L 113.148438 82.492188 C 108.9375 90.078125 100.777344 95.238281 91.382812 95.238281 Z M 91.382812 70.703125 " fill-opacity="1" fill-rule="nonzero"/><path fill="#52a7d7" d="M 98.992188 134.816406 L 106.15625 134.816406 L 106.15625 143.339844 L 98.992188 143.339844 Z M 98.992188 134.816406 " fill-opacity="1" fill-rule="nonzero"/><path fill="#f48ca7" d="M 91.65625 113.585938 L 91.65625 143.339844 L 84.476562 143.339844 L 84.476562 113.03125 C 86.855469 113.414062 89.253906 113.597656 91.65625 113.585938 Z M 91.65625 113.585938 " fill-opacity="1" fill-rule="nonzero"/><path fill="#ffa25a" d="M 91.382812 46.164062 L 91.382812 70.703125 L 77.546875 50.339844 C 81.5 47.699219 86.261719 46.164062 91.382812 46.164062 Z M 91.382812 46.164062 " fill-opacity="1" fill-rule="nonzero"/><path fill="#52a7d7" d="M 77.546875 50.339844 L 91.382812 70.703125 L 67.046875 66.046875 C 68.300781 59.527344 72.179688 53.925781 77.546875 50.339844 Z M 77.546875 50.339844 " fill-opacity="1" fill-rule="nonzero"/><path fill="#f48ca7" d="M 91.382812 70.703125 L 70.234375 83.507812 C 67.921875 79.789062 66.589844 75.390625 66.589844 70.703125 C 66.589844 69.105469 66.738281 67.558594 67.046875 66.046875 Z M 91.382812 70.703125 " fill-opacity="1" fill-rule="nonzero"/><path fill="#ffc05a" d="M 86.4375 80.011719 L 85.683594 100.875 C 79.011719 99.644531 73.101562 96.316406 68.671875 91.601562 Z M 86.4375 80.011719 " fill-opacity="1" fill-rule="nonzero"/><path fill="#ffa25a" d="M 69.976562 120.941406 L 77.152344 120.941406 L 77.152344 143.339844 L 69.976562 143.339844 Z M 69.976562 120.941406 " fill-opacity="1" fill-rule="nonzero"/><path fill="#93b2b8" d="M 65.078125 104.78125 L 58.144531 112.394531 L 52.949219 107.777344 L 59.882812 100.164062 C 60.667969 100.984375 61.507812 101.796875 62.378906 102.570312 C 63.253906 103.34375 64.152344 104.09375 65.078125 104.78125 Z M 65.078125 104.78125 " fill-opacity="1" fill-rule="nonzero"/><path fill="#e15c63" d="M 59.128906 113.277344 C 60.261719 114.285156 60.347656 116.003906 59.328125 117.121094 L 51.300781 125.9375 L 28.859375 150.609375 C 27.355469 152.257812 25.289062 153.078125 23.222656 153.078125 C 21.421875 153.078125 19.601562 152.453125 18.160156 151.164062 C 15.046875 148.386719 14.800781 143.648438 17.59375 140.578125 L 48.074219 107.089844 C 48.914062 106.167969 50.230469 105.945312 51.300781 106.460938 C 51.535156 106.574219 51.757812 106.707031 51.964844 106.890625 L 52.949219 107.777344 L 58.144531 112.394531 Z M 59.128906 113.277344 " fill-opacity="1" fill-rule="nonzero"/><path fill="#4d727a" d="M 154.230469 142.113281 L 62.613281 142.113281 C 61.933594 142.113281 61.382812 142.664062 61.382812 143.339844 C 61.382812 144.019531 61.933594 144.570312 62.613281 144.570312 L 154.230469 144.570312 C 154.90625 144.570312 155.460938 144.019531 155.460938 143.339844 C 155.460938 142.664062 154.910156 142.113281 154.230469 142.113281 Z M 154.230469 142.113281 " fill-opacity="1" fill-rule="nonzero"/><path fill="#93b2b8" d="M 149.710938 21.199219 L 76.128906 21.199219 C 75.449219 21.199219 74.898438 20.648438 74.898438 19.96875 C 74.898438 19.292969 75.449219 18.742188 76.128906 18.742188 L 149.710938 18.742188 C 150.390625 18.742188 150.941406 19.292969 150.941406 19.96875 C 150.941406 20.648438 150.390625 21.199219 149.710938 21.199219 Z M 149.710938 21.199219 " fill-opacity="1" fill-rule="nonzero"/><path fill="#93b2b8" d="M 149.710938 36.09375 L 115.203125 36.09375 C 114.523438 36.09375 113.972656 35.542969 113.972656 34.867188 C 113.972656 34.1875 114.523438 33.636719 115.203125 33.636719 L 149.710938 33.636719 C 150.390625 33.636719 150.941406 34.1875 150.941406 34.867188 C 150.941406 35.542969 150.390625 36.09375 149.710938 36.09375 Z M 149.710938 36.09375 " fill-opacity="1" fill-rule="nonzero"/><path fill="#93b2b8" d="M 149.710938 47.394531 L 126.949219 47.394531 C 126.269531 47.394531 125.71875 46.84375 125.71875 46.164062 C 125.71875 45.488281 126.269531 44.9375 126.949219 44.9375 L 149.710938 44.9375 C 150.390625 44.9375 150.941406 45.488281 150.941406 46.164062 C 150.941406 46.84375 150.390625 47.394531 149.710938 47.394531 Z M 149.710938 47.394531 " fill-opacity="1" fill-rule="nonzero"/><path fill="#93b2b8" d="M 149.710938 56.996094 L 132.046875 56.996094 C 131.367188 56.996094 130.808594 56.445312 130.808594 55.769531 C 130.808594 55.089844 131.351562 54.539062 132.03125 54.539062 L 149.710938 54.539062 C 150.390625 54.539062 150.941406 55.089844 150.941406 55.769531 C 150.941406 56.445312 150.390625 56.996094 149.710938 56.996094 Z M 149.710938 56.996094 " fill-opacity="1" fill-rule="nonzero"/><path fill="#93b2b8" d="M 149.710938 66.585938 L 134.394531 66.585938 C 133.714844 66.585938 133.164062 66.035156 133.164062 65.359375 C 133.164062 64.679688 133.714844 64.132812 134.394531 64.132812 L 149.710938 64.132812 C 150.390625 64.132812 150.941406 64.679688 150.941406 65.359375 C 150.941406 66.035156 150.390625 66.585938 149.710938 66.585938 Z M 149.710938 66.585938 " fill-opacity="1" fill-rule="nonzero"/><path fill="#93b2b8" d="M 149.710938 76.179688 L 134.53125 76.179688 C 133.851562 76.179688 133.300781 75.628906 133.300781 74.949219 C 133.300781 74.273438 133.851562 73.722656 134.53125 73.722656 L 149.710938 73.722656 C 150.390625 73.722656 150.941406 74.273438 150.941406 74.949219 C 150.941406 75.628906 150.390625 76.179688 149.710938 76.179688 Z M 149.710938 76.179688 " fill-opacity="1" fill-rule="nonzero"/><path fill="#4d727a" d="M 134.398438 65.359375 C 135.910156 77.285156 132.378906 89.773438 123.601562 99.402344 C 115.105469 108.734375 103.425781 113.511719 91.65625 113.585938 C 89.253906 113.597656 86.855469 113.414062 84.476562 113.03125 C 77.597656 111.953125 70.925781 109.199219 65.078125 104.78125 C 64.152344 104.09375 63.253906 103.34375 62.378906 102.570312 C 61.507812 101.796875 60.667969 100.984375 59.882812 100.164062 C 56.140625 96.246094 53.269531 91.785156 51.300781 87.046875 C 46.980469 76.644531 46.929688 64.84375 51.3125 54.355469 C 53.148438 49.933594 55.769531 45.757812 59.179688 42.015625 C 73.707031 26.050781 97.601562 23.398438 115.207031 34.867188 C 117.015625 36.035156 118.75 37.359375 120.398438 38.832031 C 122.910156 41.066406 125.101562 43.535156 126.949219 46.164062 C 129.078125 49.1875 130.777344 52.414062 132.035156 55.769531 L 132.046875 55.769531 C 133.203125 58.875 133.992188 62.09375 134.398438 65.359375 Z M 128.710938 70.703125 C 128.710938 50.316406 112.003906 33.785156 91.382812 33.785156 C 70.777344 33.785156 54.070312 50.316406 54.070312 70.703125 C 54.070312 91.097656 70.777344 107.628906 91.382812 107.628906 C 112.003906 107.628906 128.710938 91.097656 128.710938 70.703125 Z M 128.710938 70.703125 " fill-opacity="1" fill-rule="nonzero"/><path stroke-linecap="round" transform="matrix(0.116667, 0, 0, 0.116667, 92.470724, 85.042636)" fill-opacity="1" fill="#fffef6" fill-rule="nonzero" stroke-linejoin="round" d="M 416.63323 89.065006 C 416.63323 89.065006 89.07871 416.619526 89.07871 416.619526 C 39.893635 465.804601 -39.893999 465.804601 -89.079074 416.619526 C -89.079074 416.619526 -416.633594 89.065006 -416.633594 89.065006 C -465.818669 39.879931 -465.818669 -39.87422 -416.633594 -89.059295 C -416.633594 -89.059295 -89.079074 -416.613815 -89.079074 -416.613815 C -39.893999 -465.798891 39.893635 -465.798891 89.07871 -416.613815 C 89.07871 -416.613815 416.63323 -89.059295 416.63323 -89.059295 C 465.818305 -39.87422 465.818305 39.879931 416.63323 89.065006 Z M 416.63323 89.065006 " stroke="#ff0196" stroke-width="6" stroke-opacity="1" stroke-miterlimit="4"/><path stroke-linecap="round" transform="matrix(0.116667, 0, 0, 0.116667, 92.470724, 85.042636)" fill="none" stroke-linejoin="round" d="M 376.01955 80.393165 C 376.01955 80.393165 80.373387 376.005846 80.373387 376.005846 C 35.97624 420.402994 -35.976603 420.402994 -80.373751 376.005846 C -80.373751 376.005846 -376.019913 80.393165 -376.019913 80.393165 C -420.417061 35.996018 -420.417061 -35.990307 -376.019913 -80.387454 C -376.019913 -80.387454 -80.373751 -376.000135 -80.373751 -376.000135 C -35.976603 -420.397283 35.97624 -420.397283 80.373387 -376.000135 C 80.373387 -376.000135 376.01955 -80.387454 376.01955 -80.387454 C 420.416698 -35.990307 420.416698 35.996018 376.01955 80.393165 Z M 376.01955 80.393165 " stroke="#ff0196" stroke-width="5.415" stroke-opacity="1" stroke-miterlimit="4"/><path fill="#ff0196" d="M 74.542969 74.683594 C 74.542969 74.683594 76.53125 68.175781 76.53125 68.175781 C 76.53125 68.175781 78.929688 68.175781 78.929688 68.175781 C 78.929688 68.175781 75.589844 78.792969 75.589844 78.792969 C 75.589844 78.792969 73.726562 78.792969 73.726562 78.792969 C 73.726562 78.792969 71.722656 72.363281 71.722656 72.363281 C 71.722656 72.363281 69.722656 78.792969 69.722656 78.792969 C 69.722656 78.792969 67.855469 78.792969 67.855469 78.792969 C 67.855469 78.792969 64.519531 68.175781 64.519531 68.175781 C 64.519531 68.175781 66.914062 68.175781 66.914062 68.175781 C 66.914062 68.175781 68.902344 74.683594 68.902344 74.683594 C 68.902344 74.683594 70.859375 68.523438 70.859375 68.523438 C 70.859375 68.523438 72.601562 68.523438 72.601562 68.523438 C 72.601562 68.523438 74.542969 74.683594 74.542969 74.683594 Z M 74.542969 74.683594 " fill-opacity="1" fill-rule="nonzero"/><path fill="#ff0196" d="M 83.082031 70.84375 C 85.34375 70.84375 87.359375 72.484375 87.359375 74.894531 C 87.359375 77.320312 85.34375 78.960938 83.082031 78.960938 C 80.824219 78.960938 78.804688 77.335938 78.804688 74.894531 C 78.804688 72.46875 80.824219 70.84375 83.082031 70.84375 Z M 83.082031 77.019531 C 84.222656 77.019531 85.160156 76.109375 85.160156 74.894531 C 85.160156 73.695312 84.222656 72.785156 83.082031 72.785156 C 81.976562 72.785156 81.003906 73.683594 81.003906 74.894531 C 81.003906 76.125 81.976562 77.019531 83.082031 77.019531 Z M 83.082031 77.019531 " fill-opacity="1" fill-rule="nonzero"/><path fill="#ff0196" d="M 91.015625 72.710938 C 91.257812 71.300781 92.488281 70.84375 93.152344 70.84375 C 93.410156 70.84375 93.488281 70.859375 93.730469 70.90625 C 93.730469 70.90625 93.730469 73.136719 93.730469 73.136719 C 93.410156 73.058594 93.003906 73.03125 92.773438 73.03125 C 91.925781 73.03125 91.074219 73.53125 91.074219 74.5625 C 91.074219 74.5625 91.074219 78.792969 91.074219 78.792969 C 91.074219 78.792969 88.816406 78.792969 88.816406 78.792969 C 88.816406 78.792969 88.816406 71.011719 88.816406 71.011719 C 88.816406 71.011719 91.015625 71.011719 91.015625 71.011719 C 91.015625 71.011719 91.015625 72.710938 91.015625 72.710938 Z M 91.015625 72.710938 " fill-opacity="1" fill-rule="nonzero"/><path fill="#ff0196" d="M 99.355469 71.011719 C 99.355469 71.011719 101.859375 71.011719 101.859375 71.011719 C 101.859375 71.011719 101.859375 71.316406 101.859375 71.316406 C 101.859375 71.316406 99.28125 74.5625 99.28125 74.5625 C 99.28125 74.5625 100.296875 76.183594 100.296875 76.183594 C 100.644531 76.714844 100.917969 76.882812 101.359375 76.882812 C 101.527344 76.882812 101.90625 76.804688 102.191406 76.609375 C 102.191406 76.609375 103.042969 78.203125 103.042969 78.203125 C 102.328125 78.824219 101.617188 78.960938 101.011719 78.960938 C 100.113281 78.960938 99.328125 78.6875 98.703125 77.777344 C 98.703125 77.777344 97.140625 75.257812 97.140625 75.257812 C 97.140625 75.257812 97.140625 78.792969 97.140625 78.792969 C 97.140625 78.792969 94.882812 78.792969 94.882812 78.792969 C 94.882812 78.792969 94.882812 67.828125 94.882812 67.828125 C 94.882812 67.828125 97.140625 67.828125 97.140625 67.828125 C 97.140625 67.828125 97.140625 74.167969 97.140625 74.167969 C 97.140625 74.167969 99.355469 71.011719 99.355469 71.011719 Z M 99.355469 71.011719 " fill-opacity="1" fill-rule="nonzero"/><path fill="#ff0196" d="M 110.292969 78.792969 C 110.292969 78.792969 107.941406 78.792969 107.941406 78.792969 C 107.941406 78.792969 107.941406 68.175781 107.941406 68.175781 C 107.941406 68.175781 110.292969 68.175781 110.292969 68.175781 C 110.292969 68.175781 110.292969 78.792969 110.292969 78.792969 Z M 110.292969 78.792969 " fill-opacity="1" fill-rule="nonzero"/><path fill="#ff0196" d="M 112.445312 71.011719 C 112.445312 71.011719 114.707031 71.011719 114.707031 71.011719 C 114.707031 71.011719 114.707031 72.074219 114.707031 72.074219 C 115.355469 71.164062 116.160156 70.84375 117.117188 70.84375 C 119.300781 70.84375 119.890625 72.574219 119.890625 74.5625 C 119.890625 74.5625 119.890625 78.792969 119.890625 78.792969 C 119.890625 78.792969 117.632812 78.792969 117.632812 78.792969 C 117.632812 78.792969 117.632812 74.605469 117.632812 74.605469 C 117.632812 73.53125 117.238281 72.710938 116.191406 72.710938 C 115.144531 72.710938 114.707031 73.546875 114.707031 74.621094 C 114.707031 74.621094 114.707031 78.792969 114.707031 78.792969 C 114.707031 78.792969 112.445312 78.792969 112.445312 78.792969 C 112.445312 78.792969 112.445312 71.011719 112.445312 71.011719 Z M 112.445312 71.011719 " fill-opacity="1" fill-rule="nonzero"/><path fill="#ff0196" d="M 61.175781 96.410156 C 61.175781 96.410156 61.175781 85.792969 61.175781 85.792969 C 61.175781 85.792969 65.832031 85.792969 65.832031 85.792969 C 68.015625 85.792969 69.242188 87.402344 69.242188 89.265625 C 69.242188 91.148438 68.015625 92.664062 65.832031 92.664062 C 65.832031 92.664062 63.527344 92.664062 63.527344 92.664062 C 63.527344 92.664062 63.527344 96.410156 63.527344 96.410156 C 63.527344 96.410156 61.175781 96.410156 61.175781 96.410156 Z M 65.527344 90.8125 C 66.378906 90.8125 66.878906 90.160156 66.878906 89.25 C 66.878906 88.296875 66.378906 87.660156 65.527344 87.660156 C 65.527344 87.660156 63.527344 87.660156 63.527344 87.660156 C 63.527344 87.660156 63.527344 90.8125 63.527344 90.8125 C 63.527344 90.8125 65.527344 90.8125 65.527344 90.8125 Z M 65.527344 90.8125 " fill-opacity="1" fill-rule="nonzero"/><path fill="#ff0196" d="M 72.761719 90.328125 C 73.003906 88.917969 74.234375 88.460938 74.902344 88.460938 C 75.160156 88.460938 75.234375 88.476562 75.476562 88.523438 C 75.476562 88.523438 75.476562 90.753906 75.476562 90.753906 C 75.160156 90.675781 74.75 90.644531 74.523438 90.644531 C 73.671875 90.644531 72.824219 91.148438 72.824219 92.179688 C 72.824219 92.179688 72.824219 96.410156 72.824219 96.410156 C 72.824219 96.410156 70.5625 96.410156 70.5625 96.410156 C 70.5625 96.410156 70.5625 88.628906 70.5625 88.628906 C 70.5625 88.628906 72.761719 88.628906 72.761719 88.628906 C 72.761719 88.628906 72.761719 90.328125 72.761719 90.328125 Z M 72.761719 90.328125 " fill-opacity="1" fill-rule="nonzero"/><path fill="#ff0196" d="M 80.34375 88.460938 C 82.605469 88.460938 84.621094 90.101562 84.621094 92.511719 C 84.621094 94.9375 82.605469 96.578125 80.34375 96.578125 C 78.085938 96.578125 76.066406 94.953125 76.066406 92.511719 C 76.066406 90.085938 78.085938 88.460938 80.34375 88.460938 Z M 80.34375 94.636719 C 81.484375 94.636719 82.421875 93.726562 82.421875 92.511719 C 82.421875 91.3125 81.484375 90.402344 80.34375 90.402344 C 79.238281 90.402344 78.265625 91.296875 78.265625 92.511719 C 78.265625 93.742188 79.238281 94.636719 80.34375 94.636719 Z M 80.34375 94.636719 " fill-opacity="1" fill-rule="nonzero"/><path fill="#ff0196" d="M 94.117188 95.863281 C 94.117188 98.941406 92.113281 100.125 89.898438 100.125 C 88.15625 100.125 87.003906 99.703125 86.214844 99.050781 C 86.214844 99.050781 87.109375 97.289062 87.109375 97.289062 C 87.550781 97.683594 88.609375 98.167969 89.445312 98.167969 C 90.613281 98.167969 91.855469 97.820312 91.855469 96.121094 C 91.855469 96.121094 91.855469 95.273438 91.855469 95.273438 C 91.296875 96.078125 90.566406 96.578125 89.414062 96.578125 C 87.050781 96.578125 85.625 94.757812 85.625 92.480469 C 85.625 90.296875 86.941406 88.460938 89.371094 88.460938 C 90.414062 88.460938 91.324219 88.976562 91.855469 89.691406 C 91.855469 89.691406 91.855469 88.628906 91.855469 88.628906 C 91.855469 88.628906 94.117188 88.628906 94.117188 88.628906 C 94.117188 88.628906 94.117188 95.863281 94.117188 95.863281 Z M 89.886719 94.742188 C 90.992188 94.742188 91.917969 94.011719 91.917969 92.617188 C 91.917969 91.164062 91.054688 90.296875 89.824219 90.296875 C 88.582031 90.296875 87.882812 91.296875 87.882812 92.496094 C 87.882812 93.753906 88.625 94.742188 89.886719 94.742188 Z M 89.886719 94.742188 " fill-opacity="1" fill-rule="nonzero"/><path fill="#ff0196" d="M 98.273438 90.328125 C 98.515625 88.917969 99.742188 88.460938 100.410156 88.460938 C 100.667969 88.460938 100.746094 88.476562 100.988281 88.523438 C 100.988281 88.523438 100.988281 90.753906 100.988281 90.753906 C 100.667969 90.675781 100.257812 90.644531 100.03125 90.644531 C 99.183594 90.644531 98.332031 91.148438 98.332031 92.179688 C 98.332031 92.179688 98.332031 96.410156 98.332031 96.410156 C 98.332031 96.410156 96.074219 96.410156 96.074219 96.410156 C 96.074219 96.410156 96.074219 88.628906 96.074219 88.628906 C 96.074219 88.628906 98.273438 88.628906 98.273438 88.628906 C 98.273438 88.628906 98.273438 90.328125 98.273438 90.328125 Z M 98.273438 90.328125 " fill-opacity="1" fill-rule="nonzero"/><path fill="#ff0196" d="M 109.664062 95.042969 C 108.570312 96.257812 107.085938 96.578125 106.039062 96.578125 C 103.15625 96.578125 101.578125 94.773438 101.578125 92.558594 C 101.578125 90.265625 103.367188 88.460938 105.871094 88.460938 C 108.007812 88.460938 110.085938 89.949219 110.085938 93.042969 C 110.085938 93.042969 103.824219 93.042969 103.824219 93.042969 C 103.867188 94.011719 104.75 94.726562 106.203125 94.726562 C 107.007812 94.726562 107.8125 94.332031 108.359375 93.800781 C 108.359375 93.800781 109.664062 95.042969 109.664062 95.042969 Z M 103.867188 91.675781 C 103.867188 91.675781 107.765625 91.675781 107.765625 91.675781 C 107.613281 90.675781 106.597656 90.296875 105.839844 90.296875 C 105.113281 90.296875 104.15625 90.632812 103.867188 91.675781 Z M 103.867188 91.675781 " fill-opacity="1" fill-rule="nonzero"/><path fill="#ff0196" d="M 112.4375 93.664062 C 112.679688 94.558594 113.4375 94.832031 114.074219 94.832031 C 114.578125 94.832031 115.09375 94.652344 115.09375 94.242188 C 115.09375 93.984375 114.941406 93.816406 114.515625 93.648438 C 114.515625 93.648438 113.152344 93.074219 113.152344 93.074219 C 111.300781 92.4375 111.210938 91.191406 111.210938 90.84375 C 111.210938 89.28125 112.605469 88.460938 114.257812 88.460938 C 115.136719 88.460938 116.335938 88.691406 117.0625 90.101562 C 117.0625 90.101562 115.320312 90.902344 115.320312 90.902344 C 115.105469 90.28125 114.578125 90.160156 114.210938 90.160156 C 113.789062 90.160156 113.347656 90.386719 113.347656 90.796875 C 113.347656 91.148438 113.667969 91.296875 114.074219 91.464844 C 114.074219 91.464844 115.242188 91.921875 115.242188 91.921875 C 117.078125 92.453125 117.246094 93.648438 117.246094 94.164062 C 117.246094 95.757812 115.773438 96.578125 114.0625 96.578125 C 112.90625 96.578125 111.332031 96.210938 110.800781 94.589844 C 110.800781 94.589844 112.4375 93.664062 112.4375 93.664062 Z M 112.4375 93.664062 " fill-opacity="1" fill-rule="nonzero"/><path fill="#ff0196" d="M 119.734375 93.664062 C 119.976562 94.558594 120.734375 94.832031 121.371094 94.832031 C 121.871094 94.832031 122.386719 94.652344 122.386719 94.242188 C 122.386719 93.984375 122.234375 93.816406 121.8125 93.648438 C 121.8125 93.648438 120.445312 93.074219 120.445312 93.074219 C 118.59375 92.4375 118.503906 91.191406 118.503906 90.84375 C 118.503906 89.28125 119.898438 88.460938 121.554688 88.460938 C 122.433594 88.460938 123.628906 88.691406 124.359375 90.101562 C 124.359375 90.101562 122.613281 90.902344 122.613281 90.902344 C 122.402344 90.28125 121.871094 90.160156 121.507812 90.160156 C 121.082031 90.160156 120.644531 90.386719 120.644531 90.796875 C 120.644531 91.148438 120.960938 91.296875 121.371094 91.464844 C 121.371094 91.464844 122.539062 91.921875 122.539062 91.921875 C 124.375 92.453125 124.539062 93.648438 124.539062 94.164062 C 124.539062 95.757812 123.070312 96.578125 121.355469 96.578125 C 120.203125 96.578125 118.625 96.210938 118.09375 94.589844 C 118.09375 94.589844 119.734375 93.664062 119.734375 93.664062 Z M 119.734375 93.664062 " fill-opacity="1" fill-rule="nonzero"/></svg>