<svg xmlns="http://www.w3.org/2000/svg" xmlns:xlink="http://www.w3.org/1999/xlink" width="188" zoomAndPan="magnify" viewBox="0 0 141 125.249995" height="167" preserveAspectRatio="xMidYMid meet" version="1.0"><defs><clipPath id="4228df6c41"><path d="M 10.890625 2.644531 L 130.179688 2.644531 L 130.179688 121.929688 L 10.890625 121.929688 Z M 10.890625 2.644531 " clip-rule="nonzero"/></clipPath></defs><path fill="#21bfbf" d="M 12.949219 21.15625 L 128.121094 21.15625 L 128.121094 119.875 L 12.949219 119.875 Z M 12.949219 21.15625 " fill-opacity="1" fill-rule="nonzero"/><path fill="#3f4273" d="M 29.402344 37.609375 L 111.667969 37.609375 L 111.667969 103.421875 L 29.402344 103.421875 Z M 29.402344 37.609375 " fill-opacity="1" fill-rule="nonzero"/><path fill="#d94a70" d="M 86.988281 29.382812 C 86.988281 21.421875 90.667969 12.929688 95.214844 12.929688 C 99.761719 12.929688 103.441406 21.421875 103.441406 29.382812 Z M 99.328125 8.8125 C 99.328125 6.542969 97.488281 4.699219 95.214844 4.699219 C 92.941406 4.699219 91.101562 6.542969 91.101562 8.8125 C 91.101562 11.085938 92.941406 12.929688 95.214844 12.929688 C 97.488281 12.929688 99.328125 11.085938 99.328125 8.8125 Z M 99.328125 8.8125 " fill-opacity="1" fill-rule="nonzero"/><path fill="#ffd18b" d="M 21.175781 111.648438 C 21.175781 103.691406 24.855469 95.195312 29.402344 95.195312 C 33.949219 95.195312 37.628906 103.691406 37.628906 111.648438 Z M 33.515625 91.082031 C 33.515625 88.808594 31.675781 86.96875 29.402344 86.96875 C 27.128906 86.96875 25.289062 88.808594 25.289062 91.082031 C 25.289062 93.351562 27.128906 95.195312 29.402344 95.195312 C 31.675781 95.195312 33.515625 93.351562 33.515625 91.082031 Z M 33.515625 91.082031 " fill-opacity="1" fill-rule="nonzero"/><path fill="#ace6fe" d="M 56.136719 45.835938 L 43.796875 45.835938 C 40.390625 45.835938 37.628906 48.597656 37.628906 52.003906 L 37.628906 64.34375 C 37.628906 67.75 40.390625 70.515625 43.796875 70.515625 L 56.136719 70.515625 C 59.546875 70.515625 62.308594 67.75 62.308594 64.34375 L 62.308594 52.003906 C 62.308594 48.597656 59.546875 45.835938 56.136719 45.835938 Z M 56.136719 45.835938 " fill-opacity="1" fill-rule="nonzero"/><path fill="#d94a70" d="M 54.082031 58.175781 C 54.082031 58.445312 54.054688 58.710938 54.003906 58.976562 C 53.949219 59.242188 53.871094 59.5 53.769531 59.75 C 53.664062 59.996094 53.539062 60.234375 53.390625 60.460938 C 53.238281 60.683594 53.066406 60.890625 52.878906 61.082031 C 52.6875 61.273438 52.476562 61.445312 52.253906 61.59375 C 52.027344 61.746094 51.792969 61.871094 51.542969 61.972656 C 51.292969 62.078125 51.035156 62.15625 50.769531 62.207031 C 50.507812 62.261719 50.238281 62.289062 49.96875 62.289062 C 49.699219 62.289062 49.429688 62.261719 49.167969 62.207031 C 48.902344 62.15625 48.644531 62.078125 48.394531 61.972656 C 48.144531 61.871094 47.90625 61.746094 47.683594 61.59375 C 47.457031 61.445312 47.25 61.273438 47.058594 61.082031 C 46.867188 60.890625 46.699219 60.683594 46.546875 60.460938 C 46.398438 60.234375 46.273438 59.996094 46.167969 59.75 C 46.066406 59.5 45.988281 59.242188 45.933594 58.976562 C 45.882812 58.710938 45.855469 58.445312 45.855469 58.175781 C 45.855469 57.902344 45.882812 57.636719 45.933594 57.371094 C 45.988281 57.105469 46.066406 56.847656 46.167969 56.601562 C 46.273438 56.351562 46.398438 56.113281 46.546875 55.890625 C 46.699219 55.664062 46.867188 55.457031 47.058594 55.265625 C 47.25 55.074219 47.457031 54.902344 47.683594 54.753906 C 47.90625 54.605469 48.144531 54.476562 48.394531 54.375 C 48.644531 54.269531 48.902344 54.191406 49.167969 54.140625 C 49.429688 54.085938 49.699219 54.0625 49.96875 54.0625 C 50.238281 54.0625 50.507812 54.085938 50.769531 54.140625 C 51.035156 54.191406 51.292969 54.269531 51.542969 54.375 C 51.792969 54.476562 52.027344 54.605469 52.253906 54.753906 C 52.476562 54.902344 52.6875 55.074219 52.878906 55.265625 C 53.066406 55.457031 53.238281 55.664062 53.390625 55.890625 C 53.539062 56.113281 53.664062 56.351562 53.769531 56.601562 C 53.871094 56.847656 53.949219 57.105469 54.003906 57.371094 C 54.054688 57.636719 54.082031 57.902344 54.082031 58.175781 Z M 54.082031 58.175781 " fill-opacity="1" fill-rule="nonzero"/><path fill="#ace6fe" d="M 97.273438 70.515625 L 84.933594 70.515625 C 81.523438 70.515625 78.761719 73.277344 78.761719 76.683594 L 78.761719 89.023438 C 78.761719 92.433594 81.523438 95.195312 84.933594 95.195312 L 97.273438 95.195312 C 100.679688 95.195312 103.441406 92.433594 103.441406 89.023438 L 103.441406 76.683594 C 103.441406 73.277344 100.679688 70.515625 97.273438 70.515625 Z M 97.273438 70.515625 " fill-opacity="1" fill-rule="nonzero"/><path fill="#1a1a1a" d="M 43.796875 72.570312 L 56.136719 72.570312 C 60.675781 72.570312 64.363281 68.882812 64.363281 64.34375 L 64.363281 52.003906 C 64.363281 47.46875 60.675781 43.777344 56.136719 43.777344 L 43.796875 43.777344 C 39.261719 43.777344 35.570312 47.46875 35.570312 52.003906 L 35.570312 64.34375 C 35.570312 68.882812 39.261719 72.570312 43.796875 72.570312 Z M 39.683594 52.003906 C 39.683594 49.734375 41.53125 47.890625 43.796875 47.890625 L 56.136719 47.890625 C 58.40625 47.890625 60.25 49.734375 60.25 52.003906 L 60.25 64.34375 C 60.25 66.613281 58.40625 68.457031 56.136719 68.457031 L 43.796875 68.457031 C 41.53125 68.457031 39.683594 66.613281 39.683594 64.34375 Z M 39.683594 52.003906 " fill-opacity="1" fill-rule="nonzero"/><path fill="#1a1a1a" d="M 49.96875 64.34375 C 53.371094 64.34375 56.136719 61.574219 56.136719 58.175781 C 56.136719 54.773438 53.371094 52.003906 49.96875 52.003906 C 46.566406 52.003906 43.796875 54.773438 43.796875 58.175781 C 43.796875 61.574219 46.566406 64.34375 49.96875 64.34375 Z M 49.96875 56.117188 C 51.105469 56.117188 52.023438 57.039062 52.023438 58.175781 C 52.023438 59.308594 51.105469 60.230469 49.96875 60.230469 C 48.832031 60.230469 47.910156 59.308594 47.910156 58.175781 C 47.910156 57.039062 48.832031 56.117188 49.96875 56.117188 Z M 49.96875 56.117188 " fill-opacity="1" fill-rule="nonzero"/><path fill="#1a1a1a" d="M 97.273438 68.457031 L 84.933594 68.457031 C 80.394531 68.457031 76.703125 72.148438 76.703125 76.683594 L 76.703125 89.023438 C 76.703125 93.5625 80.394531 97.25 84.933594 97.25 L 97.273438 97.25 C 101.808594 97.25 105.5 93.5625 105.5 89.023438 L 105.5 76.683594 C 105.5 72.148438 101.808594 68.457031 97.273438 68.457031 Z M 101.386719 89.023438 C 101.386719 91.292969 99.539062 93.136719 97.273438 93.136719 L 84.933594 93.136719 C 82.664062 93.136719 80.820312 91.292969 80.820312 89.023438 L 80.820312 76.683594 C 80.820312 74.414062 82.664062 72.570312 84.933594 72.570312 L 97.273438 72.570312 C 99.539062 72.570312 101.386719 74.414062 101.386719 76.683594 Z M 101.386719 89.023438 " fill-opacity="1" fill-rule="nonzero"/><path fill="#1a1a1a" d="M 84.933594 76.683594 L 89.046875 76.683594 L 89.046875 80.796875 L 84.933594 80.796875 Z M 84.933594 76.683594 " fill-opacity="1" fill-rule="nonzero"/><path fill="#1a1a1a" d="M 93.160156 76.683594 L 97.273438 76.683594 L 97.273438 80.796875 L 93.160156 80.796875 Z M 93.160156 76.683594 " fill-opacity="1" fill-rule="nonzero"/><path fill="#1a1a1a" d="M 84.933594 84.910156 L 89.046875 84.910156 L 89.046875 89.023438 L 84.933594 89.023438 Z M 84.933594 84.910156 " fill-opacity="1" fill-rule="nonzero"/><path fill="#1a1a1a" d="M 93.160156 84.910156 L 97.273438 84.910156 L 97.273438 89.023438 L 93.160156 89.023438 Z M 93.160156 84.910156 " fill-opacity="1" fill-rule="nonzero"/><path fill="#1a1a1a" d="M 68.476562 43.777344 L 97.273438 43.777344 L 97.273438 47.890625 L 68.476562 47.890625 Z M 68.476562 43.777344 " fill-opacity="1" fill-rule="nonzero"/><path fill="#1a1a1a" d="M 101.386719 43.777344 L 105.5 43.777344 L 105.5 47.890625 L 101.386719 47.890625 Z M 101.386719 43.777344 " fill-opacity="1" fill-rule="nonzero"/><path fill="#1a1a1a" d="M 47.910156 93.136719 L 72.589844 93.136719 L 72.589844 97.25 L 47.910156 97.25 Z M 47.910156 93.136719 " fill-opacity="1" fill-rule="nonzero"/><path fill="#1a1a1a" d="M 39.683594 93.136719 L 43.796875 93.136719 L 43.796875 97.25 L 39.683594 97.25 Z M 39.683594 93.136719 " fill-opacity="1" fill-rule="nonzero"/><g clip-path="url(#4228df6c41)"><path fill="#1a1a1a" d="M 128.121094 19.097656 L 103.675781 19.097656 C 102.714844 16.542969 101.40625 14.359375 99.816406 12.882812 C 100.78125 11.792969 101.386719 10.378906 101.386719 8.8125 C 101.386719 5.414062 98.617188 2.644531 95.214844 2.644531 C 91.8125 2.644531 89.046875 5.414062 89.046875 8.8125 C 89.046875 10.378906 89.648438 11.792969 90.613281 12.882812 C 89.027344 14.359375 87.714844 16.542969 86.757812 19.097656 L 12.949219 19.097656 C 11.8125 19.097656 10.890625 20.015625 10.890625 21.15625 L 10.890625 119.875 C 10.890625 121.011719 11.8125 121.929688 12.949219 121.929688 L 128.121094 121.929688 C 129.257812 121.929688 130.179688 121.011719 130.179688 119.875 L 130.179688 21.15625 C 130.179688 20.015625 129.257812 19.097656 128.121094 19.097656 Z M 126.066406 35.550781 L 113.726562 35.550781 L 113.726562 23.210938 L 126.066406 23.210938 Z M 20.941406 101.363281 L 15.003906 101.363281 L 15.003906 89.023438 L 23.609375 89.023438 C 23.378906 89.667969 23.230469 90.355469 23.230469 91.082031 C 23.230469 92.644531 23.835938 94.058594 24.800781 95.148438 C 23.214844 96.625 21.902344 98.808594 20.941406 101.363281 Z M 109.613281 39.664062 L 109.613281 101.363281 L 37.859375 101.363281 C 36.902344 98.808594 35.59375 96.625 34.003906 95.148438 C 34.96875 94.058594 35.570312 92.644531 35.570312 91.082031 C 35.570312 88.402344 33.847656 86.140625 31.457031 85.289062 L 31.457031 39.664062 Z M 27.34375 91.082031 C 27.34375 89.945312 28.265625 89.023438 29.402344 89.023438 C 30.539062 89.023438 31.457031 89.945312 31.457031 91.082031 C 31.457031 92.214844 30.539062 93.136719 29.402344 93.136719 C 28.265625 93.136719 27.34375 92.214844 27.34375 91.082031 Z M 64.363281 35.550781 L 64.363281 23.210938 L 76.703125 23.210938 L 76.703125 35.550781 Z M 60.25 35.550781 L 47.910156 35.550781 L 47.910156 23.210938 L 60.25 23.210938 Z M 43.796875 35.550781 L 31.457031 35.550781 L 31.457031 23.210938 L 43.796875 23.210938 Z M 27.34375 52.003906 L 15.003906 52.003906 L 15.003906 39.664062 L 27.34375 39.664062 Z M 27.34375 56.117188 L 27.34375 68.457031 L 15.003906 68.457031 L 15.003906 56.117188 Z M 27.34375 72.570312 L 27.34375 84.910156 L 15.003906 84.910156 L 15.003906 72.570312 Z M 29.402344 97.25 C 31.875 97.25 34.949219 102.851562 35.488281 109.589844 L 23.3125 109.589844 C 23.855469 102.851562 26.929688 97.25 29.402344 97.25 Z M 37.628906 113.703125 C 38.765625 113.703125 39.683594 112.785156 39.683594 111.648438 C 39.683594 109.578125 39.453125 107.484375 39.039062 105.476562 L 43.796875 105.476562 L 43.796875 117.816406 L 31.457031 117.816406 L 31.457031 113.703125 Z M 47.910156 105.476562 L 60.25 105.476562 L 60.25 117.816406 L 47.910156 117.816406 Z M 64.363281 105.476562 L 76.703125 105.476562 L 76.703125 117.816406 L 64.363281 117.816406 Z M 80.820312 105.476562 L 93.160156 105.476562 L 93.160156 117.816406 L 80.820312 117.816406 Z M 97.273438 105.476562 L 109.613281 105.476562 L 109.613281 117.816406 L 97.273438 117.816406 Z M 113.726562 89.023438 L 126.066406 89.023438 L 126.066406 101.363281 L 113.726562 101.363281 Z M 113.726562 84.910156 L 113.726562 72.570312 L 126.066406 72.570312 L 126.066406 84.910156 Z M 113.726562 68.457031 L 113.726562 56.117188 L 126.066406 56.117188 L 126.066406 68.457031 Z M 113.726562 52.003906 L 113.726562 39.664062 L 126.066406 39.664062 L 126.066406 52.003906 Z M 109.613281 23.210938 L 109.613281 35.550781 L 97.273438 35.550781 L 97.273438 31.4375 L 103.441406 31.4375 C 104.578125 31.4375 105.5 30.519531 105.5 29.382812 C 105.5 27.3125 105.269531 25.21875 104.851562 23.210938 Z M 93.160156 8.8125 C 93.160156 7.679688 94.078125 6.757812 95.214844 6.757812 C 96.351562 6.757812 97.273438 7.679688 97.273438 8.8125 C 97.273438 9.949219 96.351562 10.871094 95.214844 10.871094 C 94.078125 10.871094 93.160156 9.949219 93.160156 8.8125 Z M 95.214844 14.984375 C 97.6875 14.984375 100.761719 20.585938 101.300781 27.324219 L 89.128906 27.324219 C 89.667969 20.585938 92.742188 14.984375 95.214844 14.984375 Z M 86.988281 31.4375 L 93.160156 31.4375 L 93.160156 35.550781 L 80.820312 35.550781 L 80.820312 23.210938 L 85.578125 23.210938 C 85.160156 25.21875 84.933594 27.3125 84.933594 29.382812 C 84.933594 30.519531 85.851562 31.4375 86.988281 31.4375 Z M 27.34375 23.210938 L 27.34375 35.550781 L 15.003906 35.550781 L 15.003906 23.210938 Z M 15.003906 105.476562 L 19.765625 105.476562 C 19.347656 107.484375 19.117188 109.578125 19.117188 111.648438 C 19.117188 112.785156 20.039062 113.703125 21.175781 113.703125 L 27.34375 113.703125 L 27.34375 117.816406 L 15.003906 117.816406 Z M 113.726562 117.816406 L 113.726562 105.476562 L 126.066406 105.476562 L 126.066406 117.816406 Z M 113.726562 117.816406 " fill-opacity="1" fill-rule="nonzero"/></g></svg>