<svg xmlns="http://www.w3.org/2000/svg" xmlns:xlink="http://www.w3.org/1999/xlink" width="188" zoomAndPan="magnify" viewBox="0 0 141 125.249995" height="167" preserveAspectRatio="xMidYMid meet" version="1.0"><defs><clipPath id="43ec6b4112"><path d="M 8.941406 0.695312 L 131.957031 0.695312 L 131.957031 123.707031 L 8.941406 123.707031 Z M 8.941406 0.695312 " clip-rule="nonzero"/></clipPath><clipPath id="79bdc75ad6"><path d="M 80.699219 62.203125 L 76.601562 62.203125 L 76.601562 58.101562 L 80.699219 58.101562 Z M 60.199219 58.101562 L 64.300781 58.101562 L 64.300781 62.203125 L 60.199219 62.203125 Z M 72.5 62.203125 L 68.398438 62.203125 L 68.398438 58.101562 L 72.5 58.101562 Z M 127.855469 82.703125 L 119.65625 82.703125 L 119.65625 78.605469 L 125.804688 78.605469 C 126.9375 78.605469 127.855469 79.523438 127.855469 80.652344 Z M 127.855469 97.054688 C 127.855469 98.1875 126.9375 99.105469 125.804688 99.105469 L 113.503906 99.105469 C 112.375 99.105469 111.453125 98.1875 111.453125 97.054688 L 111.453125 88.855469 C 111.453125 87.722656 112.375 86.804688 113.503906 86.804688 L 127.855469 86.804688 Z M 115.554688 107.832031 L 78.652344 118.902344 L 78.652344 76.027344 L 115.554688 64.957031 L 115.554688 82.703125 L 113.503906 82.703125 C 110.113281 82.703125 107.355469 85.464844 107.355469 88.855469 L 107.355469 97.054688 C 107.355469 100.445312 110.113281 103.207031 113.503906 103.207031 L 115.554688 103.207031 Z M 76.296875 72.453125 L 72.84375 72.453125 C 73.480469 70.609375 74.964844 69.136719 76.929688 68.546875 L 109.402344 58.804688 L 109.402344 62.523438 Z M 74.550781 119.609375 L 66.347656 119.609375 L 66.347656 76.554688 L 74.550781 76.554688 Z M 31.496094 62.523438 L 31.496094 58.804688 L 63.96875 68.546875 C 65.933594 69.136719 67.417969 70.609375 68.054688 72.453125 L 64.601562 72.453125 Z M 62.25 118.902344 L 25.34375 107.832031 L 25.34375 103.207031 L 27.394531 103.207031 C 30.785156 103.207031 33.546875 100.445312 33.546875 97.054688 L 33.546875 88.855469 C 33.546875 85.464844 30.785156 82.703125 27.394531 82.703125 L 25.34375 82.703125 L 25.34375 64.957031 L 62.25 76.027344 Z M 15.09375 99.105469 C 13.964844 99.105469 13.042969 98.1875 13.042969 97.054688 L 13.042969 86.804688 L 27.394531 86.804688 C 28.523438 86.804688 29.445312 87.722656 29.445312 88.855469 L 29.445312 97.054688 C 29.445312 98.1875 28.523438 99.105469 27.394531 99.105469 Z M 13.042969 80.652344 C 13.042969 79.523438 13.964844 78.605469 15.09375 78.605469 L 21.246094 78.605469 L 21.246094 82.703125 L 13.042969 82.703125 Z M 43.796875 54.355469 L 43.796875 58.214844 L 40.449219 57.210938 C 41.175781 55.882812 42.371094 54.863281 43.796875 54.355469 Z M 47.898438 54 L 93.003906 54 L 93.003906 59.445312 L 75.753906 64.621094 C 73.566406 65.277344 71.734375 66.589844 70.449219 68.304688 C 69.164062 66.589844 67.332031 65.277344 65.148438 64.621094 L 47.898438 59.445312 Z M 76.601562 45.800781 L 76.601562 49.902344 L 64.300781 49.902344 L 64.300781 45.800781 Z M 84.800781 29.398438 C 84.800781 31.660156 82.960938 33.5 80.699219 33.5 C 78.441406 33.5 76.601562 31.660156 76.601562 29.398438 C 76.601562 27.136719 78.441406 25.296875 80.699219 25.296875 C 82.960938 25.296875 84.800781 27.136719 84.800781 29.398438 Z M 56.097656 29.398438 C 56.097656 27.136719 57.9375 25.296875 60.199219 25.296875 C 62.457031 25.296875 64.300781 27.136719 64.300781 29.398438 C 64.300781 31.660156 62.457031 33.5 60.199219 33.5 C 57.9375 33.5 56.097656 31.660156 56.097656 29.398438 Z M 56.097656 41.699219 L 56.097656 36.496094 C 57.304688 37.195312 58.707031 37.597656 60.199219 37.597656 C 64.71875 37.597656 68.398438 33.917969 68.398438 29.398438 C 68.398438 24.878906 64.71875 21.199219 60.199219 21.199219 C 58.707031 21.199219 57.304688 21.601562 56.097656 22.300781 L 56.097656 19.148438 C 56.097656 18.015625 57.019531 17.097656 58.148438 17.097656 L 82.75 17.097656 C 83.882812 17.097656 84.800781 18.015625 84.800781 19.148438 L 84.800781 22.300781 C 83.59375 21.601562 82.191406 21.199219 80.699219 21.199219 C 76.179688 21.199219 72.5 24.878906 72.5 29.398438 C 72.5 33.917969 76.179688 37.597656 80.699219 37.597656 C 82.191406 37.597656 83.59375 37.195312 84.800781 36.496094 L 84.800781 41.699219 Z M 51.996094 19.148438 L 51.996094 41.699219 L 47.898438 41.699219 L 47.898438 17.097656 C 47.898438 10.3125 53.414062 4.796875 60.199219 4.796875 L 80.699219 4.796875 C 87.484375 4.796875 93.003906 10.3125 93.003906 17.097656 L 93.003906 41.699219 L 88.902344 41.699219 L 88.902344 19.148438 C 88.902344 15.753906 86.140625 12.996094 82.75 12.996094 L 58.148438 12.996094 C 54.757812 12.996094 51.996094 15.753906 51.996094 19.148438 Z M 97.101562 21.199219 L 99.152344 21.199219 C 100.28125 21.199219 101.203125 22.117188 101.203125 23.246094 L 101.203125 39.648438 C 101.203125 40.78125 100.28125 41.699219 99.152344 41.699219 L 97.101562 41.699219 Z M 97.101562 54.355469 C 98.527344 54.863281 99.722656 55.882812 100.449219 57.210938 L 97.101562 58.214844 Z M 43.796875 41.699219 L 41.746094 41.699219 C 40.617188 41.699219 39.695312 40.78125 39.695312 39.648438 L 39.695312 23.246094 C 39.695312 22.117188 40.617188 21.199219 41.746094 21.199219 L 43.796875 21.199219 Z M 125.804688 74.503906 L 119.65625 74.503906 L 119.65625 62.203125 C 119.65625 61.554688 119.347656 60.945312 118.828125 60.554688 C 118.308594 60.167969 117.636719 60.050781 117.015625 60.238281 L 113.503906 61.292969 L 113.503906 56.050781 C 113.503906 55.402344 113.195312 54.792969 112.675781 54.40625 C 112.160156 54.019531 111.484375 53.902344 110.863281 54.089844 L 104.433594 56.015625 C 102.824219 52.371094 99.171875 49.902344 95.050781 49.902344 L 80.699219 49.902344 L 80.699219 45.800781 L 99.152344 45.800781 C 102.542969 45.800781 105.304688 43.039062 105.304688 39.648438 L 105.304688 23.246094 C 105.304688 19.855469 102.542969 17.097656 99.152344 17.097656 L 97.101562 17.097656 C 97.101562 8.054688 89.746094 0.695312 80.699219 0.695312 L 60.199219 0.695312 C 51.15625 0.695312 43.796875 8.054688 43.796875 17.097656 L 41.746094 17.097656 C 38.355469 17.097656 35.597656 19.855469 35.597656 23.246094 L 35.597656 39.648438 C 35.597656 43.039062 38.355469 45.800781 41.746094 45.800781 L 60.199219 45.800781 L 60.199219 49.902344 L 45.847656 49.902344 C 41.730469 49.902344 38.074219 52.371094 36.464844 56.015625 L 30.035156 54.089844 C 29.414062 53.902344 28.742188 54.019531 28.222656 54.40625 C 27.703125 54.792969 27.394531 55.402344 27.394531 56.050781 L 27.394531 61.292969 L 23.882812 60.238281 C 23.261719 60.050781 22.589844 60.167969 22.070312 60.554688 C 21.550781 60.945312 21.246094 61.554688 21.246094 62.203125 L 21.246094 74.503906 L 15.09375 74.503906 C 11.703125 74.503906 8.941406 77.261719 8.941406 80.652344 L 8.941406 97.054688 C 8.941406 100.445312 11.703125 103.207031 15.09375 103.207031 L 21.246094 103.207031 L 21.246094 109.355469 C 21.246094 110.261719 21.835938 111.0625 22.707031 111.320312 L 63.683594 123.613281 C 63.691406 123.617188 63.695312 123.617188 63.699219 123.617188 L 63.710938 123.621094 C 63.898438 123.679688 64.09375 123.707031 64.300781 123.707031 L 76.601562 123.707031 C 76.804688 123.707031 77.003906 123.679688 77.191406 123.621094 L 77.203125 123.617188 C 77.207031 123.617188 77.210938 123.617188 77.214844 123.613281 L 118.195312 111.320312 C 119.0625 111.0625 119.65625 110.261719 119.65625 109.355469 L 119.65625 103.207031 L 125.804688 103.207031 C 129.195312 103.207031 131.957031 100.445312 131.957031 97.054688 L 131.957031 80.652344 C 131.957031 77.261719 129.195312 74.503906 125.804688 74.503906 Z M 125.804688 74.503906 " clip-rule="nonzero"/></clipPath><clipPath id="b3a02f9ff2"><path d="M 80.699219 62.203125 L 76.601562 62.203125 L 76.601562 58.101562 L 80.699219 58.101562 Z M 60.199219 58.101562 L 64.300781 58.101562 L 64.300781 62.203125 L 60.199219 62.203125 Z M 72.5 62.203125 L 68.398438 62.203125 L 68.398438 58.101562 L 72.5 58.101562 Z M 127.855469 82.703125 L 119.65625 82.703125 L 119.65625 78.605469 L 125.804688 78.605469 C 126.9375 78.605469 127.855469 79.523438 127.855469 80.652344 Z M 127.855469 97.054688 C 127.855469 98.1875 126.9375 99.105469 125.804688 99.105469 L 113.503906 99.105469 C 112.375 99.105469 111.453125 98.1875 111.453125 97.054688 L 111.453125 88.855469 C 111.453125 87.722656 112.375 86.804688 113.503906 86.804688 L 127.855469 86.804688 Z M 115.554688 107.832031 L 78.652344 118.902344 L 78.652344 76.027344 L 115.554688 64.957031 L 115.554688 82.703125 L 113.503906 82.703125 C 110.113281 82.703125 107.355469 85.464844 107.355469 88.855469 L 107.355469 97.054688 C 107.355469 100.445312 110.113281 103.207031 113.503906 103.207031 L 115.554688 103.207031 Z M 76.296875 72.453125 L 72.84375 72.453125 C 73.480469 70.609375 74.964844 69.136719 76.929688 68.546875 L 109.402344 58.804688 L 109.402344 62.523438 Z M 74.550781 119.609375 L 66.347656 119.609375 L 66.347656 76.554688 L 74.550781 76.554688 Z M 31.496094 62.523438 L 31.496094 58.804688 L 63.96875 68.546875 C 65.933594 69.136719 67.417969 70.609375 68.054688 72.453125 L 64.601562 72.453125 Z M 62.25 118.902344 L 25.34375 107.832031 L 25.34375 103.207031 L 27.394531 103.207031 C 30.785156 103.207031 33.546875 100.445312 33.546875 97.054688 L 33.546875 88.855469 C 33.546875 85.464844 30.785156 82.703125 27.394531 82.703125 L 25.34375 82.703125 L 25.34375 64.957031 L 62.25 76.027344 Z M 15.09375 99.105469 C 13.964844 99.105469 13.042969 98.1875 13.042969 97.054688 L 13.042969 86.804688 L 27.394531 86.804688 C 28.523438 86.804688 29.445312 87.722656 29.445312 88.855469 L 29.445312 97.054688 C 29.445312 98.1875 28.523438 99.105469 27.394531 99.105469 Z M 13.042969 80.652344 C 13.042969 79.523438 13.964844 78.605469 15.09375 78.605469 L 21.246094 78.605469 L 21.246094 82.703125 L 13.042969 82.703125 Z M 43.796875 54.355469 L 43.796875 58.214844 L 40.449219 57.210938 C 41.175781 55.882812 42.371094 54.863281 43.796875 54.355469 Z M 47.898438 54 L 93.003906 54 L 93.003906 59.445312 L 75.753906 64.621094 C 73.566406 65.277344 71.734375 66.589844 70.449219 68.304688 C 69.164062 66.589844 67.332031 65.277344 65.148438 64.621094 L 47.898438 59.445312 Z M 76.601562 45.800781 L 76.601562 49.902344 L 64.300781 49.902344 L 64.300781 45.800781 Z M 84.800781 29.398438 C 84.800781 31.660156 82.960938 33.5 80.699219 33.5 C 78.441406 33.5 76.601562 31.660156 76.601562 29.398438 C 76.601562 27.136719 78.441406 25.296875 80.699219 25.296875 C 82.960938 25.296875 84.800781 27.136719 84.800781 29.398438 Z M 56.097656 29.398438 C 56.097656 27.136719 57.9375 25.296875 60.199219 25.296875 C 62.457031 25.296875 64.300781 27.136719 64.300781 29.398438 C 64.300781 31.660156 62.457031 33.5 60.199219 33.5 C 57.9375 33.5 56.097656 31.660156 56.097656 29.398438 Z M 56.097656 41.699219 L 56.097656 36.496094 C 57.304688 37.195312 58.707031 37.597656 60.199219 37.597656 C 64.71875 37.597656 68.398438 33.917969 68.398438 29.398438 C 68.398438 24.878906 64.71875 21.199219 60.199219 21.199219 C 58.707031 21.199219 57.304688 21.601562 56.097656 22.300781 L 56.097656 19.148438 C 56.097656 18.015625 57.019531 17.097656 58.148438 17.097656 L 82.75 17.097656 C 83.882812 17.097656 84.800781 18.015625 84.800781 19.148438 L 84.800781 22.300781 C 83.59375 21.601562 82.191406 21.199219 80.699219 21.199219 C 76.179688 21.199219 72.5 24.878906 72.5 29.398438 C 72.5 33.917969 76.179688 37.597656 80.699219 37.597656 C 82.191406 37.597656 83.59375 37.195312 84.800781 36.496094 L 84.800781 41.699219 Z M 51.996094 19.148438 L 51.996094 41.699219 L 47.898438 41.699219 L 47.898438 17.097656 C 47.898438 10.3125 53.414062 4.796875 60.199219 4.796875 L 80.699219 4.796875 C 87.484375 4.796875 93.003906 10.3125 93.003906 17.097656 L 93.003906 41.699219 L 88.902344 41.699219 L 88.902344 19.148438 C 88.902344 15.753906 86.140625 12.996094 82.75 12.996094 L 58.148438 12.996094 C 54.757812 12.996094 51.996094 15.753906 51.996094 19.148438 Z M 97.101562 21.199219 L 99.152344 21.199219 C 100.28125 21.199219 101.203125 22.117188 101.203125 23.246094 L 101.203125 39.648438 C 101.203125 40.78125 100.28125 41.699219 99.152344 41.699219 L 97.101562 41.699219 Z M 97.101562 54.355469 C 98.527344 54.863281 99.722656 55.882812 100.449219 57.210938 L 97.101562 58.214844 Z M 43.796875 41.699219 L 41.746094 41.699219 C 40.617188 41.699219 39.695312 40.78125 39.695312 39.648438 L 39.695312 23.246094 C 39.695312 22.117188 40.617188 21.199219 41.746094 21.199219 L 43.796875 21.199219 Z M 125.804688 74.503906 L 119.65625 74.503906 L 119.65625 62.203125 C 119.65625 61.554688 119.347656 60.945312 118.828125 60.554688 C 118.308594 60.167969 117.636719 60.050781 117.015625 60.238281 L 113.503906 61.292969 L 113.503906 56.050781 C 113.503906 55.402344 113.195312 54.792969 112.675781 54.40625 C 112.160156 54.019531 111.484375 53.902344 110.863281 54.089844 L 104.433594 56.015625 C 102.824219 52.371094 99.171875 49.902344 95.050781 49.902344 L 80.699219 49.902344 L 80.699219 45.800781 L 99.152344 45.800781 C 102.542969 45.800781 105.304688 43.039062 105.304688 39.648438 L 105.304688 23.246094 C 105.304688 19.855469 102.542969 17.097656 99.152344 17.097656 L 97.101562 17.097656 C 97.101562 8.054688 89.746094 0.695312 80.699219 0.695312 L 60.199219 0.695312 C 51.15625 0.695312 43.796875 8.054688 43.796875 17.097656 L 41.746094 17.097656 C 38.355469 17.097656 35.597656 19.855469 35.597656 23.246094 L 35.597656 39.648438 C 35.597656 43.039062 38.355469 45.800781 41.746094 45.800781 L 60.199219 45.800781 L 60.199219 49.902344 L 45.847656 49.902344 C 41.730469 49.902344 38.074219 52.371094 36.464844 56.015625 L 30.035156 54.089844 C 29.414062 53.902344 28.742188 54.019531 28.222656 54.40625 C 27.703125 54.792969 27.394531 55.402344 27.394531 56.050781 L 27.394531 61.292969 L 23.882812 60.238281 C 23.261719 60.050781 22.589844 60.167969 22.070312 60.554688 C 21.550781 60.945312 21.246094 61.554688 21.246094 62.203125 L 21.246094 74.503906 L 15.09375 74.503906 C 11.703125 74.503906 8.941406 77.261719 8.941406 80.652344 L 8.941406 97.054688 C 8.941406 100.445312 11.703125 103.207031 15.09375 103.207031 L 21.246094 103.207031 L 21.246094 109.355469 C 21.246094 110.261719 21.835938 111.0625 22.707031 111.320312 L 63.683594 123.613281 C 63.691406 123.617188 63.695312 123.617188 63.699219 123.617188 L 63.710938 123.621094 C 63.898438 123.679688 64.09375 123.707031 64.300781 123.707031 L 76.601562 123.707031 C 76.804688 123.707031 77.003906 123.679688 77.191406 123.621094 L 77.203125 123.617188 C 77.207031 123.617188 77.210938 123.617188 77.214844 123.613281 L 118.195312 111.320312 C 119.0625 111.0625 119.65625 110.261719 119.65625 109.355469 L 119.65625 103.207031 L 125.804688 103.207031 C 129.195312 103.207031 131.957031 100.445312 131.957031 97.054688 L 131.957031 80.652344 C 131.957031 77.261719 129.195312 74.503906 125.804688 74.503906 " clip-rule="nonzero"/></clipPath><clipPath id="775a627573"><path d="M -52.5625 62.203125 L 70.449219 185.214844 L 193.464844 62.203125 L 70.449219 -60.8125 Z M -52.5625 62.203125 " clip-rule="nonzero"/></clipPath><linearGradient x1="-0.135864" gradientTransform="matrix(88.72341, -88.72341, 88.72341, 88.72341, 26.088435, 116.745476)" y1="0" x2="1.250618" gradientUnits="userSpaceOnUse" y2="0" id="8df8e27100"><stop stop-opacity="1" stop-color="rgb(33.299255%, 41.19873%, 73.298645%)" offset="0"/><stop stop-opacity="1" stop-color="rgb(33.299255%, 41.19873%, 73.298645%)" offset="0.0625"/><stop stop-opacity="1" stop-color="rgb(33.299255%, 41.19873%, 73.298645%)" offset="0.09375"/><stop stop-opacity="1" stop-color="rgb(33.299255%, 41.098022%, 73.298645%)" offset="0.101562"/><stop stop-opacity="1" stop-color="rgb(33.299255%, 40.898132%, 73.298645%)" offset="0.109375"/><stop stop-opacity="1" stop-color="rgb(33.499146%, 40.59906%, 73.098755%)" offset="0.113281"/><stop stop-opacity="1" stop-color="rgb(33.699036%, 40.39917%, 72.898865%)" offset="0.117187"/><stop stop-opacity="1" stop-color="rgb(33.699036%, 40.39917%, 72.898865%)" offset="0.125"/><stop stop-opacity="1" stop-color="rgb(33.699036%, 40.19928%, 72.898865%)" offset="0.128906"/><stop stop-opacity="1" stop-color="rgb(33.700562%, 39.99939%, 72.898865%)" offset="0.132812"/><stop stop-opacity="1" stop-color="rgb(34.098816%, 39.99939%, 72.698975%)" offset="0.136719"/><stop stop-opacity="1" stop-color="rgb(34.498596%, 39.99939%, 72.499084%)" offset="0.140625"/><stop stop-opacity="1" stop-color="rgb(34.698486%, 39.7995%, 72.499084%)" offset="0.144531"/><stop stop-opacity="1" stop-color="rgb(34.899902%, 39.599609%, 72.499084%)" offset="0.148437"/><stop stop-opacity="1" stop-color="rgb(34.899902%, 39.599609%, 72.499084%)" offset="0.15625"/><stop stop-opacity="1" stop-color="rgb(35.099792%, 39.598083%, 72.499084%)" offset="0.160156"/><stop stop-opacity="1" stop-color="rgb(35.299683%, 39.598083%, 72.499084%)" offset="0.164062"/><stop stop-opacity="1" stop-color="rgb(35.299683%, 39.398193%, 72.348022%)" offset="0.167969"/><stop stop-opacity="1" stop-color="rgb(35.299683%, 39.199829%, 72.198486%)" offset="0.171875"/><stop stop-opacity="1" stop-color="rgb(35.499573%, 39.199829%, 72.198486%)" offset="0.175781"/><stop stop-opacity="1" stop-color="rgb(35.699463%, 39.199829%, 72.198486%)" offset="0.179687"/><stop stop-opacity="1" stop-color="rgb(35.899353%, 39.198303%, 72.198486%)" offset="0.183594"/><stop stop-opacity="1" stop-color="rgb(36.099243%, 39.198303%, 72.198486%)" offset="0.1875"/><stop stop-opacity="1" stop-color="rgb(36.099243%, 38.998413%, 72.198486%)" offset="0.191406"/><stop stop-opacity="1" stop-color="rgb(36.099243%, 38.798523%, 72.198486%)" offset="0.195312"/><stop stop-opacity="1" stop-color="rgb(36.299133%, 38.798523%, 71.998596%)" offset="0.199219"/><stop stop-opacity="1" stop-color="rgb(36.500549%, 38.798523%, 71.798706%)" offset="0.203125"/><stop stop-opacity="1" stop-color="rgb(36.898804%, 38.598633%, 71.798706%)" offset="0.207031"/><stop stop-opacity="1" stop-color="rgb(37.298584%, 38.398743%, 71.798706%)" offset="0.210937"/><stop stop-opacity="1" stop-color="rgb(37.44812%, 38.198853%, 71.598816%)" offset="0.214844"/><stop stop-opacity="1" stop-color="rgb(37.599182%, 37.998962%, 71.398926%)" offset="0.21875"/><stop stop-opacity="1" stop-color="rgb(37.599182%, 37.998962%, 71.398926%)" offset="0.226562"/><stop stop-opacity="1" stop-color="rgb(37.998962%, 37.998962%, 71.398926%)" offset="0.230469"/><stop stop-opacity="1" stop-color="rgb(38.398743%, 37.998962%, 71.398926%)" offset="0.234375"/><stop stop-opacity="1" stop-color="rgb(38.398743%, 37.799072%, 71.398926%)" offset="0.238281"/><stop stop-opacity="1" stop-color="rgb(38.398743%, 37.599182%, 71.398926%)" offset="0.242187"/><stop stop-opacity="1" stop-color="rgb(38.598633%, 37.599182%, 71.398926%)" offset="0.246094"/><stop stop-opacity="1" stop-color="rgb(38.798523%, 37.599182%, 71.398926%)" offset="0.25"/><stop stop-opacity="1" stop-color="rgb(38.798523%, 37.599182%, 71.199036%)" offset="0.253906"/><stop stop-opacity="1" stop-color="rgb(38.800049%, 37.599182%, 70.999146%)" offset="0.257813"/><stop stop-opacity="1" stop-color="rgb(39.199829%, 37.44812%, 70.999146%)" offset="0.261719"/><stop stop-opacity="1" stop-color="rgb(39.599609%, 37.298584%, 70.999146%)" offset="0.265625"/><stop stop-opacity="1" stop-color="rgb(39.7995%, 37.098694%, 70.799255%)" offset="0.269531"/><stop stop-opacity="1" stop-color="rgb(39.99939%, 36.898804%, 70.599365%)" offset="0.273438"/><stop stop-opacity="1" stop-color="rgb(40.19928%, 36.698914%, 70.599365%)" offset="0.277344"/><stop stop-opacity="1" stop-color="rgb(40.400696%, 36.499023%, 70.599365%)" offset="0.28125"/><stop stop-opacity="1" stop-color="rgb(40.600586%, 36.499023%, 70.599365%)" offset="0.285156"/><stop stop-opacity="1" stop-color="rgb(40.800476%, 36.499023%, 70.599365%)" offset="0.289063"/><stop stop-opacity="1" stop-color="rgb(40.99884%, 36.499023%, 70.599365%)" offset="0.292969"/><stop stop-opacity="1" stop-color="rgb(41.19873%, 36.499023%, 70.599365%)" offset="0.296875"/><stop stop-opacity="1" stop-color="rgb(41.398621%, 36.499023%, 70.599365%)" offset="0.300781"/><stop stop-opacity="1" stop-color="rgb(41.598511%, 36.499023%, 70.599365%)" offset="0.304688"/><stop stop-opacity="1" stop-color="rgb(41.798401%, 36.299133%, 70.399475%)" offset="0.308594"/><stop stop-opacity="1" stop-color="rgb(41.999817%, 36.099243%, 70.199585%)" offset="0.3125"/><stop stop-opacity="1" stop-color="rgb(42.199707%, 35.899353%, 70.199585%)" offset="0.316406"/><stop stop-opacity="1" stop-color="rgb(42.399597%, 35.699463%, 70.199585%)" offset="0.320312"/><stop stop-opacity="1" stop-color="rgb(42.749023%, 35.697937%, 70.198059%)" offset="0.324219"/><stop stop-opacity="1" stop-color="rgb(43.099976%, 35.697937%, 70.198059%)" offset="0.328125"/><stop stop-opacity="1" stop-color="rgb(43.299866%, 35.498047%, 69.998169%)" offset="0.332031"/><stop stop-opacity="1" stop-color="rgb(43.499756%, 35.299683%, 69.799805%)" offset="0.335938"/><stop stop-opacity="1" stop-color="rgb(43.699646%, 35.298157%, 69.799805%)" offset="0.339844"/><stop stop-opacity="1" stop-color="rgb(43.899536%, 35.298157%, 69.799805%)" offset="0.34375"/><stop stop-opacity="1" stop-color="rgb(44.299316%, 35.098267%, 69.799805%)" offset="0.347656"/><stop stop-opacity="1" stop-color="rgb(44.700623%, 34.899902%, 69.799805%)" offset="0.351562"/><stop stop-opacity="1" stop-color="rgb(44.898987%, 34.898376%, 69.798279%)" offset="0.355469"/><stop stop-opacity="1" stop-color="rgb(45.098877%, 34.898376%, 69.798279%)" offset="0.359375"/><stop stop-opacity="1" stop-color="rgb(45.298767%, 34.698486%, 69.598389%)" offset="0.363281"/><stop stop-opacity="1" stop-color="rgb(45.500183%, 34.498596%, 69.398499%)" offset="0.367188"/><stop stop-opacity="1" stop-color="rgb(45.899963%, 34.498596%, 69.398499%)" offset="0.371094"/><stop stop-opacity="1" stop-color="rgb(46.299744%, 34.498596%, 69.398499%)" offset="0.375"/><stop stop-opacity="1" stop-color="rgb(46.499634%, 34.298706%, 69.398499%)" offset="0.378906"/><stop stop-opacity="1" stop-color="rgb(46.699524%, 34.098816%, 69.398499%)" offset="0.382812"/><stop stop-opacity="1" stop-color="rgb(46.899414%, 34.09729%, 69.198608%)" offset="0.386719"/><stop stop-opacity="1" stop-color="rgb(47.10083%, 34.09729%, 68.998718%)" offset="0.390625"/><stop stop-opacity="1" stop-color="rgb(47.450256%, 33.8974%, 68.998718%)" offset="0.394531"/><stop stop-opacity="1" stop-color="rgb(47.799683%, 33.699036%, 68.998718%)" offset="0.398437"/><stop stop-opacity="1" stop-color="rgb(47.999573%, 33.499146%, 68.998718%)" offset="0.402344"/><stop stop-opacity="1" stop-color="rgb(48.199463%, 33.299255%, 68.998718%)" offset="0.40625"/><stop stop-opacity="1" stop-color="rgb(48.599243%, 33.099365%, 68.798828%)" offset="0.410156"/><stop stop-opacity="1" stop-color="rgb(49.000549%, 32.899475%, 68.598938%)" offset="0.414062"/><stop stop-opacity="1" stop-color="rgb(49.398804%, 32.899475%, 68.598938%)" offset="0.417969"/><stop stop-opacity="1" stop-color="rgb(49.798584%, 32.899475%, 68.598938%)" offset="0.421875"/><stop stop-opacity="1" stop-color="rgb(49.998474%, 32.699585%, 68.598938%)" offset="0.425781"/><stop stop-opacity="1" stop-color="rgb(50.19989%, 32.499695%, 68.598938%)" offset="0.429687"/><stop stop-opacity="1" stop-color="rgb(50.59967%, 32.498169%, 68.399048%)" offset="0.433594"/><stop stop-opacity="1" stop-color="rgb(50.999451%, 32.498169%, 68.199158%)" offset="0.4375"/><stop stop-opacity="1" stop-color="rgb(51.399231%, 32.347107%, 68.199158%)" offset="0.441406"/><stop stop-opacity="1" stop-color="rgb(51.800537%, 32.197571%, 68.199158%)" offset="0.445313"/><stop stop-opacity="1" stop-color="rgb(52.149963%, 31.997681%, 68.197632%)" offset="0.449219"/><stop stop-opacity="1" stop-color="rgb(52.49939%, 31.797791%, 68.197632%)" offset="0.453125"/><stop stop-opacity="1" stop-color="rgb(52.69928%, 31.5979%, 67.997742%)" offset="0.457031"/><stop stop-opacity="1" stop-color="rgb(52.89917%, 31.399536%, 67.799377%)" offset="0.460938"/><stop stop-opacity="1" stop-color="rgb(53.09906%, 31.399536%, 67.799377%)" offset="0.464844"/><stop stop-opacity="1" stop-color="rgb(53.300476%, 31.399536%, 67.799377%)" offset="0.46875"/><stop stop-opacity="1" stop-color="rgb(53.700256%, 31.39801%, 67.799377%)" offset="0.472656"/><stop stop-opacity="1" stop-color="rgb(54.100037%, 31.39801%, 67.799377%)" offset="0.476562"/><stop stop-opacity="1" stop-color="rgb(54.499817%, 31.19812%, 67.799377%)" offset="0.480469"/><stop stop-opacity="1" stop-color="rgb(54.899597%, 30.999756%, 67.799377%)" offset="0.484375"/><stop stop-opacity="1" stop-color="rgb(55.099487%, 30.799866%, 67.648315%)" offset="0.488281"/><stop stop-opacity="1" stop-color="rgb(55.299377%, 30.599976%, 67.498779%)" offset="0.492188"/><stop stop-opacity="1" stop-color="rgb(55.699158%, 30.39856%, 67.498779%)" offset="0.496094"/><stop stop-opacity="1" stop-color="rgb(56.100464%, 30.198669%, 67.498779%)" offset="0.5"/><stop stop-opacity="1" stop-color="rgb(56.500244%, 29.998779%, 67.498779%)" offset="0.503906"/><stop stop-opacity="1" stop-color="rgb(56.900024%, 29.798889%, 67.498779%)" offset="0.507813"/><stop stop-opacity="1" stop-color="rgb(57.249451%, 29.797363%, 67.298889%)" offset="0.511719"/><stop stop-opacity="1" stop-color="rgb(57.600403%, 29.797363%, 67.098999%)" offset="0.515625"/><stop stop-opacity="1" stop-color="rgb(58.000183%, 29.597473%, 67.098999%)" offset="0.519531"/><stop stop-opacity="1" stop-color="rgb(58.399963%, 29.399109%, 67.098999%)" offset="0.523438"/><stop stop-opacity="1" stop-color="rgb(58.799744%, 29.397583%, 67.098999%)" offset="0.527344"/><stop stop-opacity="1" stop-color="rgb(59.199524%, 29.397583%, 67.098999%)" offset="0.53125"/><stop stop-opacity="1" stop-color="rgb(59.399414%, 29.197693%, 66.899109%)" offset="0.535156"/><stop stop-opacity="1" stop-color="rgb(59.60083%, 28.997803%, 66.699219%)" offset="0.539063"/><stop stop-opacity="1" stop-color="rgb(60.00061%, 28.797913%, 66.699219%)" offset="0.542969"/><stop stop-opacity="1" stop-color="rgb(60.400391%, 28.599548%, 66.699219%)" offset="0.546875"/><stop stop-opacity="1" stop-color="rgb(60.800171%, 28.398132%, 66.699219%)" offset="0.550781"/><stop stop-opacity="1" stop-color="rgb(61.199951%, 28.198242%, 66.699219%)" offset="0.554688"/><stop stop-opacity="1" stop-color="rgb(61.599731%, 27.998352%, 66.499329%)" offset="0.558594"/><stop stop-opacity="1" stop-color="rgb(61.999512%, 27.799988%, 66.299438%)" offset="0.5625"/><stop stop-opacity="1" stop-color="rgb(62.348938%, 27.648926%, 66.299438%)" offset="0.566406"/><stop stop-opacity="1" stop-color="rgb(62.69989%, 27.49939%, 66.299438%)" offset="0.570313"/><stop stop-opacity="1" stop-color="rgb(63.09967%, 27.49939%, 66.299438%)" offset="0.574219"/><stop stop-opacity="1" stop-color="rgb(63.500977%, 27.49939%, 66.299438%)" offset="0.578125"/><stop stop-opacity="1" stop-color="rgb(63.900757%, 27.2995%, 66.297913%)" offset="0.582031"/><stop stop-opacity="1" stop-color="rgb(64.300537%, 27.099609%, 66.297913%)" offset="0.585938"/><stop stop-opacity="1" stop-color="rgb(64.700317%, 27.098083%, 66.098022%)" offset="0.589844"/><stop stop-opacity="1" stop-color="rgb(65.100098%, 27.098083%, 65.899658%)" offset="0.59375"/><stop stop-opacity="1" stop-color="rgb(65.299988%, 26.898193%, 65.899658%)" offset="0.597656"/><stop stop-opacity="1" stop-color="rgb(65.499878%, 26.698303%, 65.899658%)" offset="0.601562"/><stop stop-opacity="1" stop-color="rgb(65.899658%, 26.498413%, 65.699768%)" offset="0.605469"/><stop stop-opacity="1" stop-color="rgb(66.299438%, 26.298523%, 65.499878%)" offset="0.609375"/><stop stop-opacity="1" stop-color="rgb(66.699219%, 26.098633%, 65.499878%)" offset="0.613281"/><stop stop-opacity="1" stop-color="rgb(67.100525%, 25.898743%, 65.499878%)" offset="0.617188"/><stop stop-opacity="1" stop-color="rgb(67.449951%, 25.698853%, 65.499878%)" offset="0.621094"/><stop stop-opacity="1" stop-color="rgb(67.800903%, 25.498962%, 65.499878%)" offset="0.625"/><stop stop-opacity="1" stop-color="rgb(68.200684%, 25.497437%, 65.498352%)" offset="0.628906"/><stop stop-opacity="1" stop-color="rgb(68.60199%, 25.497437%, 65.498352%)" offset="0.632812"/><stop stop-opacity="1" stop-color="rgb(69.20166%, 25.297546%, 65.298462%)" offset="0.636719"/><stop stop-opacity="1" stop-color="rgb(69.801331%, 25.097656%, 65.098572%)" offset="0.640625"/><stop stop-opacity="1" stop-color="rgb(70.399475%, 24.697876%, 65.098572%)" offset="0.644531"/><stop stop-opacity="1" stop-color="rgb(70.999146%, 24.299622%, 65.098572%)" offset="0.648438"/><stop stop-opacity="1" stop-color="rgb(71.199036%, 24.299622%, 65.098572%)" offset="0.652344"/><stop stop-opacity="1" stop-color="rgb(71.400452%, 24.299622%, 65.098572%)" offset="0.65625"/><stop stop-opacity="1" stop-color="rgb(71.800232%, 24.298096%, 64.898682%)" offset="0.660156"/><stop stop-opacity="1" stop-color="rgb(72.200012%, 24.298096%, 64.698792%)" offset="0.664062"/><stop stop-opacity="1" stop-color="rgb(72.549438%, 24.098206%, 64.698792%)" offset="0.667969"/><stop stop-opacity="1" stop-color="rgb(72.900391%, 23.898315%, 64.698792%)" offset="0.671875"/><stop stop-opacity="1" stop-color="rgb(73.300171%, 23.698425%, 64.698792%)" offset="0.675781"/><stop stop-opacity="1" stop-color="rgb(73.699951%, 23.498535%, 64.698792%)" offset="0.679688"/><stop stop-opacity="1" stop-color="rgb(74.099731%, 23.298645%, 64.498901%)" offset="0.683594"/><stop stop-opacity="1" stop-color="rgb(74.501038%, 23.098755%, 64.299011%)" offset="0.6875"/><stop stop-opacity="1" stop-color="rgb(74.900818%, 22.898865%, 64.299011%)" offset="0.691406"/><stop stop-opacity="1" stop-color="rgb(75.302124%, 22.698975%, 64.299011%)" offset="0.695312"/><stop stop-opacity="1" stop-color="rgb(75.901794%, 22.547913%, 64.099121%)" offset="0.699219"/><stop stop-opacity="1" stop-color="rgb(76.501465%, 22.398376%, 63.899231%)" offset="0.703125"/><stop stop-opacity="1" stop-color="rgb(76.899719%, 22.198486%, 63.899231%)" offset="0.707031"/><stop stop-opacity="1" stop-color="rgb(77.2995%, 21.998596%, 63.899231%)" offset="0.710938"/><stop stop-opacity="1" stop-color="rgb(77.648926%, 21.798706%, 63.899231%)" offset="0.714844"/><stop stop-opacity="1" stop-color="rgb(77.999878%, 21.598816%, 63.899231%)" offset="0.71875"/><stop stop-opacity="1" stop-color="rgb(78.599548%, 21.59729%, 63.899231%)" offset="0.722656"/><stop stop-opacity="1" stop-color="rgb(79.199219%, 21.59729%, 63.899231%)" offset="0.726562"/><stop stop-opacity="1" stop-color="rgb(79.399109%, 21.3974%, 63.899231%)" offset="0.730469"/><stop stop-opacity="1" stop-color="rgb(79.600525%, 21.199036%, 63.899231%)" offset="0.734375"/><stop stop-opacity="1" stop-color="rgb(80.000305%, 20.99762%, 63.699341%)" offset="0.738281"/><stop stop-opacity="1" stop-color="rgb(80.401611%, 20.797729%, 63.499451%)" offset="0.742188"/><stop stop-opacity="1" stop-color="rgb(81.001282%, 20.397949%, 63.299561%)" offset="0.746094"/><stop stop-opacity="1" stop-color="rgb(81.600952%, 19.999695%, 63.09967%)" offset="0.75"/><stop stop-opacity="1" stop-color="rgb(82.150269%, 19.799805%, 63.09967%)" offset="0.753906"/><stop stop-opacity="1" stop-color="rgb(82.701111%, 19.599915%, 63.09967%)" offset="0.757812"/><stop stop-opacity="1" stop-color="rgb(83.100891%, 19.398499%, 63.09967%)" offset="0.761719"/><stop stop-opacity="1" stop-color="rgb(83.500671%, 19.198608%, 63.09967%)" offset="0.765625"/><stop stop-opacity="1" stop-color="rgb(83.700562%, 19.198608%, 62.89978%)" offset="0.769531"/><stop stop-opacity="1" stop-color="rgb(83.900452%, 19.198608%, 62.69989%)" offset="0.773437"/><stop stop-opacity="1" stop-color="rgb(84.500122%, 18.998718%, 62.69989%)" offset="0.777344"/><stop stop-opacity="1" stop-color="rgb(85.099792%, 18.798828%, 62.69989%)" offset="0.78125"/><stop stop-opacity="1" stop-color="rgb(85.499573%, 18.797302%, 62.69989%)" offset="0.785156"/><stop stop-opacity="1" stop-color="rgb(85.900879%, 18.797302%, 62.69989%)" offset="0.789062"/><stop stop-opacity="1" stop-color="rgb(86.500549%, 18.597412%, 62.69989%)" offset="0.792969"/><stop stop-opacity="1" stop-color="rgb(87.10022%, 18.399048%, 62.69989%)" offset="0.796875"/><stop stop-opacity="1" stop-color="rgb(87.449646%, 18.197632%, 62.698364%)" offset="0.800781"/><stop stop-opacity="1" stop-color="rgb(87.800598%, 17.997742%, 62.698364%)" offset="0.804687"/><stop stop-opacity="1" stop-color="rgb(88.200378%, 17.797852%, 62.548828%)" offset="0.808594"/><stop stop-opacity="1" stop-color="rgb(88.600159%, 17.597961%, 62.399292%)" offset="0.8125"/><stop stop-opacity="1" stop-color="rgb(88.999939%, 17.448425%, 62.399292%)" offset="0.816406"/><stop stop-opacity="1" stop-color="rgb(89.399719%, 17.298889%, 62.399292%)" offset="0.820312"/><stop stop-opacity="1" stop-color="rgb(89.399719%, 17.298889%, 62.399292%)" offset="0.828125"/><stop stop-opacity="1" stop-color="rgb(89.399719%, 17.298889%, 62.399292%)" offset="0.84375"/><stop stop-opacity="1" stop-color="rgb(89.399719%, 17.298889%, 62.399292%)" offset="0.875"/><stop stop-opacity="1" stop-color="rgb(89.399719%, 17.298889%, 62.399292%)" offset="1"/></linearGradient></defs><g clip-path="url(#43ec6b4112)"><g clip-path="url(#79bdc75ad6)"><g clip-path="url(#b3a02f9ff2)"><g clip-path="url(#775a627573)"><path fill="url(#8df8e27100)" d="M -52.5625 62.203125 L 70.449219 185.214844 L 193.464844 62.203125 L 70.449219 -60.8125 Z M -52.5625 62.203125 " fill-rule="nonzero"/></g></g></g></g></svg>