<svg xmlns="http://www.w3.org/2000/svg" xmlns:xlink="http://www.w3.org/1999/xlink" width="244" zoomAndPan="magnify" viewBox="0 0 183 158.249993" height="211" preserveAspectRatio="xMidYMid meet" version="1.0"><defs><clipPath id="e854bd262d"><path d="M 16.183594 0 L 29 0 L 29 16 L 16.183594 16 Z M 16.183594 0 " clip-rule="nonzero"/></clipPath><clipPath id="9fbb9028f1"><path d="M 156 145 L 172 145 L 172 157.503906 L 156 157.503906 Z M 156 145 " clip-rule="nonzero"/></clipPath></defs><path fill="#000000" d="M 164.597656 145.792969 L 28.105469 145.792969 L 28.105469 9.296875 C 28.105469 1.652344 24.082031 9.386719 24.082031 9.386719 L 24.082031 147.691406 C 24.09375 147.722656 24.105469 147.746094 24.117188 147.773438 C 24.007812 148.195312 24.160156 148.648438 24.792969 149.105469 C 25.246094 149.734375 25.699219 149.886719 26.121094 149.777344 C 26.148438 149.792969 26.175781 149.800781 26.203125 149.8125 L 164.507812 149.8125 C 164.507812 149.8125 172.242188 145.792969 164.597656 145.792969 Z M 164.597656 145.792969 " fill-opacity="1" fill-rule="nonzero"/><g clip-path="url(#e854bd262d)"><path fill="#000000" d="M 18.953125 15.957031 C 18.441406 15.957031 17.921875 15.796875 17.476562 15.464844 C 16.382812 14.648438 16.15625 13.097656 16.972656 12.003906 C 18.542969 9.898438 22.84375 3.976562 23.90625 1.890625 C 24.527344 0.671875 26.019531 0.1875 27.238281 0.808594 C 28.453125 1.429688 28.941406 2.917969 28.320312 4.136719 C 26.875 6.976562 21.542969 14.152344 20.941406 14.960938 C 20.453125 15.613281 19.710938 15.957031 18.953125 15.957031 Z M 18.953125 15.957031 " fill-opacity="1" fill-rule="nonzero"/></g><path fill="#000000" d="M 33.273438 15.957031 C 32.515625 15.957031 31.769531 15.613281 31.285156 14.960938 C 30.683594 14.152344 25.351562 6.976562 23.90625 4.136719 C 23.285156 2.917969 23.773438 1.425781 24.988281 0.808594 C 26.207031 0.1875 27.699219 0.671875 28.320312 1.890625 C 29.382812 3.976562 33.6875 9.898438 35.253906 12.003906 C 36.070312 13.097656 35.84375 14.648438 34.75 15.464844 C 34.304688 15.796875 33.785156 15.957031 33.273438 15.957031 Z M 33.273438 15.957031 " fill-opacity="1" fill-rule="nonzero"/><path fill="#000000" d="M 169.386719 150.144531 C 169.011719 150.144531 168.625 150.058594 168.265625 149.875 C 165.425781 148.429688 158.25 143.097656 157.441406 142.496094 C 156.347656 141.679688 156.117188 140.128906 156.9375 139.03125 C 157.753906 137.9375 159.304688 137.710938 160.398438 138.527344 C 162.503906 140.09375 168.425781 144.398438 170.511719 145.460938 C 171.730469 146.082031 172.214844 147.574219 171.59375 148.792969 C 171.15625 149.648438 170.289062 150.144531 169.386719 150.144531 Z M 169.386719 150.144531 " fill-opacity="1" fill-rule="nonzero"/><g clip-path="url(#9fbb9028f1)"><path fill="#000000" d="M 158.921875 157.300781 C 158.167969 157.300781 157.421875 156.957031 156.9375 156.304688 C 156.117188 155.207031 156.34375 153.660156 157.441406 152.839844 C 158.25 152.238281 165.425781 146.910156 168.265625 145.464844 C 169.484375 144.84375 170.972656 145.328125 171.59375 146.542969 C 172.214844 147.761719 171.730469 149.253906 170.511719 149.875 C 168.425781 150.9375 162.503906 155.242188 160.398438 156.8125 C 159.957031 157.140625 159.4375 157.300781 158.921875 157.300781 Z M 158.921875 157.300781 " fill-opacity="1" fill-rule="nonzero"/></g><path fill="#7ed957" d="M 45.367188 112.304688 C 45.367188 112.304688 37.539062 111.945312 37.097656 120.164062 C 37.097656 120.164062 36.148438 128.660156 45.285156 129.019531 C 45.285156 129.019531 53.609375 129.03125 53.363281 120.238281 C 53.363281 120.234375 54.097656 112.738281 45.367188 112.304688 Z M 45.367188 112.304688 " fill-opacity="1" fill-rule="nonzero"/><path fill="#7ed957" d="M 74.777344 76.054688 C 74.777344 76.054688 66.945312 75.695312 66.507812 83.910156 C 66.507812 83.910156 65.558594 92.40625 74.695312 92.765625 C 74.695312 92.765625 83.015625 92.777344 82.769531 83.984375 C 82.773438 83.984375 83.507812 76.488281 74.777344 76.054688 Z M 74.777344 76.054688 " fill-opacity="1" fill-rule="nonzero"/><path fill="#7ed957" d="M 121.828125 98.738281 C 121.828125 98.738281 114 98.378906 113.558594 106.59375 C 113.558594 106.59375 112.613281 115.089844 121.75 115.453125 C 121.75 115.453125 130.066406 115.460938 129.824219 106.667969 C 129.824219 106.667969 130.558594 99.171875 121.828125 98.738281 Z M 121.828125 98.738281 " fill-opacity="1" fill-rule="nonzero"/><path fill="#7ed957" d="M 146.972656 43.367188 C 146.972656 43.367188 139.144531 43.003906 138.703125 51.222656 C 138.703125 51.222656 137.757812 59.71875 146.894531 60.078125 C 146.894531 60.078125 155.214844 60.089844 154.96875 51.292969 C 154.96875 51.296875 155.703125 43.796875 146.972656 43.367188 Z M 146.972656 43.367188 " fill-opacity="1" fill-rule="nonzero"/><path fill="#7ed957" d="M 47.621094 122.605469 L 42.828125 118.71875 L 73.773438 80.570312 L 120.179688 102.945312 L 144.019531 50.445312 L 149.640625 52.996094 L 123.1875 111.242188 L 75.492188 88.246094 Z M 47.621094 122.605469 " fill-opacity="1" fill-rule="nonzero"/><path stroke-linecap="round" transform="matrix(0.116667, 0, 0, 0.116667, 92.470724, 85.042636)" fill-opacity="1" fill="#fffef6" fill-rule="nonzero" stroke-linejoin="round" d="M 416.63323 89.065006 C 416.63323 89.065006 89.07871 416.619526 89.07871 416.619526 C 39.893635 465.804601 -39.893999 465.804601 -89.079074 416.619526 C -89.079074 416.619526 -416.633594 89.065006 -416.633594 89.065006 C -465.818669 39.879931 -465.818669 -39.87422 -416.633594 -89.059295 C -416.633594 -89.059295 -89.079074 -416.613815 -89.079074 -416.613815 C -39.893999 -465.798891 39.893635 -465.798891 89.07871 -416.613815 C 89.07871 -416.613815 416.63323 -89.059295 416.63323 -89.059295 C 465.818305 -39.87422 465.818305 39.879931 416.63323 89.065006 Z M 416.63323 89.065006 " stroke="#ff0196" stroke-width="6" stroke-opacity="1" stroke-miterlimit="4"/><path stroke-linecap="round" transform="matrix(0.116667, 0, 0, 0.116667, 92.470724, 85.042636)" fill="none" stroke-linejoin="round" d="M 376.01955 80.393165 C 376.01955 80.393165 80.373387 376.005846 80.373387 376.005846 C 35.97624 420.402994 -35.976603 420.402994 -80.373751 376.005846 C -80.373751 376.005846 -376.019913 80.393165 -376.019913 80.393165 C -420.417061 35.996018 -420.417061 -35.990307 -376.019913 -80.387454 C -376.019913 -80.387454 -80.373751 -376.000135 -80.373751 -376.000135 C -35.976603 -420.397283 35.97624 -420.397283 80.373387 -376.000135 C 80.373387 -376.000135 376.01955 -80.387454 376.01955 -80.387454 C 420.416698 -35.990307 420.416698 35.996018 376.01955 80.393165 Z M 376.01955 80.393165 " stroke="#ff0196" stroke-width="5.415" stroke-opacity="1" stroke-miterlimit="4"/><path fill="#ff0196" d="M 74.542969 74.683594 C 74.542969 74.683594 76.53125 68.175781 76.53125 68.175781 C 76.53125 68.175781 78.929688 68.175781 78.929688 68.175781 C 78.929688 68.175781 75.589844 78.792969 75.589844 78.792969 C 75.589844 78.792969 73.726562 78.792969 73.726562 78.792969 C 73.726562 78.792969 71.722656 72.363281 71.722656 72.363281 C 71.722656 72.363281 69.722656 78.792969 69.722656 78.792969 C 69.722656 78.792969 67.855469 78.792969 67.855469 78.792969 C 67.855469 78.792969 64.519531 68.175781 64.519531 68.175781 C 64.519531 68.175781 66.914062 68.175781 66.914062 68.175781 C 66.914062 68.175781 68.902344 74.683594 68.902344 74.683594 C 68.902344 74.683594 70.859375 68.523438 70.859375 68.523438 C 70.859375 68.523438 72.601562 68.523438 72.601562 68.523438 C 72.601562 68.523438 74.542969 74.683594 74.542969 74.683594 Z M 74.542969 74.683594 " fill-opacity="1" fill-rule="nonzero"/><path fill="#ff0196" d="M 83.082031 70.84375 C 85.34375 70.84375 87.359375 72.484375 87.359375 74.894531 C 87.359375 77.320312 85.34375 78.960938 83.082031 78.960938 C 80.824219 78.960938 78.804688 77.335938 78.804688 74.894531 C 78.804688 72.46875 80.824219 70.84375 83.082031 70.84375 Z M 83.082031 77.019531 C 84.222656 77.019531 85.160156 76.109375 85.160156 74.894531 C 85.160156 73.695312 84.222656 72.785156 83.082031 72.785156 C 81.976562 72.785156 81.003906 73.683594 81.003906 74.894531 C 81.003906 76.125 81.976562 77.019531 83.082031 77.019531 Z M 83.082031 77.019531 " fill-opacity="1" fill-rule="nonzero"/><path fill="#ff0196" d="M 91.015625 72.710938 C 91.257812 71.300781 92.488281 70.84375 93.152344 70.84375 C 93.410156 70.84375 93.488281 70.859375 93.730469 70.90625 C 93.730469 70.90625 93.730469 73.136719 93.730469 73.136719 C 93.410156 73.058594 93.003906 73.03125 92.773438 73.03125 C 91.925781 73.03125 91.074219 73.53125 91.074219 74.5625 C 91.074219 74.5625 91.074219 78.792969 91.074219 78.792969 C 91.074219 78.792969 88.816406 78.792969 88.816406 78.792969 C 88.816406 78.792969 88.816406 71.011719 88.816406 71.011719 C 88.816406 71.011719 91.015625 71.011719 91.015625 71.011719 C 91.015625 71.011719 91.015625 72.710938 91.015625 72.710938 Z M 91.015625 72.710938 " fill-opacity="1" fill-rule="nonzero"/><path fill="#ff0196" d="M 99.355469 71.011719 C 99.355469 71.011719 101.859375 71.011719 101.859375 71.011719 C 101.859375 71.011719 101.859375 71.316406 101.859375 71.316406 C 101.859375 71.316406 99.28125 74.5625 99.28125 74.5625 C 99.28125 74.5625 100.296875 76.183594 100.296875 76.183594 C 100.644531 76.714844 100.917969 76.882812 101.359375 76.882812 C 101.527344 76.882812 101.90625 76.804688 102.191406 76.609375 C 102.191406 76.609375 103.042969 78.203125 103.042969 78.203125 C 102.328125 78.824219 101.617188 78.960938 101.011719 78.960938 C 100.113281 78.960938 99.328125 78.6875 98.703125 77.777344 C 98.703125 77.777344 97.140625 75.257812 97.140625 75.257812 C 97.140625 75.257812 97.140625 78.792969 97.140625 78.792969 C 97.140625 78.792969 94.882812 78.792969 94.882812 78.792969 C 94.882812 78.792969 94.882812 67.828125 94.882812 67.828125 C 94.882812 67.828125 97.140625 67.828125 97.140625 67.828125 C 97.140625 67.828125 97.140625 74.167969 97.140625 74.167969 C 97.140625 74.167969 99.355469 71.011719 99.355469 71.011719 Z M 99.355469 71.011719 " fill-opacity="1" fill-rule="nonzero"/><path fill="#ff0196" d="M 110.292969 78.792969 C 110.292969 78.792969 107.941406 78.792969 107.941406 78.792969 C 107.941406 78.792969 107.941406 68.175781 107.941406 68.175781 C 107.941406 68.175781 110.292969 68.175781 110.292969 68.175781 C 110.292969 68.175781 110.292969 78.792969 110.292969 78.792969 Z M 110.292969 78.792969 " fill-opacity="1" fill-rule="nonzero"/><path fill="#ff0196" d="M 112.445312 71.011719 C 112.445312 71.011719 114.707031 71.011719 114.707031 71.011719 C 114.707031 71.011719 114.707031 72.074219 114.707031 72.074219 C 115.355469 71.164062 116.160156 70.84375 117.117188 70.84375 C 119.300781 70.84375 119.890625 72.574219 119.890625 74.5625 C 119.890625 74.5625 119.890625 78.792969 119.890625 78.792969 C 119.890625 78.792969 117.632812 78.792969 117.632812 78.792969 C 117.632812 78.792969 117.632812 74.605469 117.632812 74.605469 C 117.632812 73.53125 117.238281 72.710938 116.191406 72.710938 C 115.144531 72.710938 114.707031 73.546875 114.707031 74.621094 C 114.707031 74.621094 114.707031 78.792969 114.707031 78.792969 C 114.707031 78.792969 112.445312 78.792969 112.445312 78.792969 C 112.445312 78.792969 112.445312 71.011719 112.445312 71.011719 Z M 112.445312 71.011719 " fill-opacity="1" fill-rule="nonzero"/><path fill="#ff0196" d="M 61.175781 96.410156 C 61.175781 96.410156 61.175781 85.792969 61.175781 85.792969 C 61.175781 85.792969 65.832031 85.792969 65.832031 85.792969 C 68.015625 85.792969 69.242188 87.402344 69.242188 89.265625 C 69.242188 91.148438 68.015625 92.664062 65.832031 92.664062 C 65.832031 92.664062 63.527344 92.664062 63.527344 92.664062 C 63.527344 92.664062 63.527344 96.410156 63.527344 96.410156 C 63.527344 96.410156 61.175781 96.410156 61.175781 96.410156 Z M 65.527344 90.8125 C 66.378906 90.8125 66.878906 90.160156 66.878906 89.25 C 66.878906 88.296875 66.378906 87.660156 65.527344 87.660156 C 65.527344 87.660156 63.527344 87.660156 63.527344 87.660156 C 63.527344 87.660156 63.527344 90.8125 63.527344 90.8125 C 63.527344 90.8125 65.527344 90.8125 65.527344 90.8125 Z M 65.527344 90.8125 " fill-opacity="1" fill-rule="nonzero"/><path fill="#ff0196" d="M 72.761719 90.328125 C 73.003906 88.917969 74.234375 88.460938 74.902344 88.460938 C 75.160156 88.460938 75.234375 88.476562 75.476562 88.523438 C 75.476562 88.523438 75.476562 90.753906 75.476562 90.753906 C 75.160156 90.675781 74.75 90.644531 74.523438 90.644531 C 73.671875 90.644531 72.824219 91.148438 72.824219 92.179688 C 72.824219 92.179688 72.824219 96.410156 72.824219 96.410156 C 72.824219 96.410156 70.5625 96.410156 70.5625 96.410156 C 70.5625 96.410156 70.5625 88.628906 70.5625 88.628906 C 70.5625 88.628906 72.761719 88.628906 72.761719 88.628906 C 72.761719 88.628906 72.761719 90.328125 72.761719 90.328125 Z M 72.761719 90.328125 " fill-opacity="1" fill-rule="nonzero"/><path fill="#ff0196" d="M 80.34375 88.460938 C 82.605469 88.460938 84.621094 90.101562 84.621094 92.511719 C 84.621094 94.9375 82.605469 96.578125 80.34375 96.578125 C 78.085938 96.578125 76.066406 94.953125 76.066406 92.511719 C 76.066406 90.085938 78.085938 88.460938 80.34375 88.460938 Z M 80.34375 94.636719 C 81.484375 94.636719 82.421875 93.726562 82.421875 92.511719 C 82.421875 91.3125 81.484375 90.402344 80.34375 90.402344 C 79.238281 90.402344 78.265625 91.296875 78.265625 92.511719 C 78.265625 93.742188 79.238281 94.636719 80.34375 94.636719 Z M 80.34375 94.636719 " fill-opacity="1" fill-rule="nonzero"/><path fill="#ff0196" d="M 94.117188 95.863281 C 94.117188 98.941406 92.113281 100.125 89.898438 100.125 C 88.15625 100.125 87.003906 99.703125 86.214844 99.050781 C 86.214844 99.050781 87.109375 97.289062 87.109375 97.289062 C 87.550781 97.683594 88.609375 98.167969 89.445312 98.167969 C 90.613281 98.167969 91.855469 97.820312 91.855469 96.121094 C 91.855469 96.121094 91.855469 95.273438 91.855469 95.273438 C 91.296875 96.078125 90.566406 96.578125 89.414062 96.578125 C 87.050781 96.578125 85.625 94.757812 85.625 92.480469 C 85.625 90.296875 86.941406 88.460938 89.371094 88.460938 C 90.414062 88.460938 91.324219 88.976562 91.855469 89.691406 C 91.855469 89.691406 91.855469 88.628906 91.855469 88.628906 C 91.855469 88.628906 94.117188 88.628906 94.117188 88.628906 C 94.117188 88.628906 94.117188 95.863281 94.117188 95.863281 Z M 89.886719 94.742188 C 90.992188 94.742188 91.917969 94.011719 91.917969 92.617188 C 91.917969 91.164062 91.054688 90.296875 89.824219 90.296875 C 88.582031 90.296875 87.882812 91.296875 87.882812 92.496094 C 87.882812 93.753906 88.625 94.742188 89.886719 94.742188 Z M 89.886719 94.742188 " fill-opacity="1" fill-rule="nonzero"/><path fill="#ff0196" d="M 98.273438 90.328125 C 98.515625 88.917969 99.742188 88.460938 100.410156 88.460938 C 100.667969 88.460938 100.746094 88.476562 100.988281 88.523438 C 100.988281 88.523438 100.988281 90.753906 100.988281 90.753906 C 100.667969 90.675781 100.257812 90.644531 100.03125 90.644531 C 99.183594 90.644531 98.332031 91.148438 98.332031 92.179688 C 98.332031 92.179688 98.332031 96.410156 98.332031 96.410156 C 98.332031 96.410156 96.074219 96.410156 96.074219 96.410156 C 96.074219 96.410156 96.074219 88.628906 96.074219 88.628906 C 96.074219 88.628906 98.273438 88.628906 98.273438 88.628906 C 98.273438 88.628906 98.273438 90.328125 98.273438 90.328125 Z M 98.273438 90.328125 " fill-opacity="1" fill-rule="nonzero"/><path fill="#ff0196" d="M 109.664062 95.042969 C 108.570312 96.257812 107.085938 96.578125 106.039062 96.578125 C 103.15625 96.578125 101.578125 94.773438 101.578125 92.558594 C 101.578125 90.265625 103.367188 88.460938 105.871094 88.460938 C 108.007812 88.460938 110.085938 89.949219 110.085938 93.042969 C 110.085938 93.042969 103.824219 93.042969 103.824219 93.042969 C 103.867188 94.011719 104.75 94.726562 106.203125 94.726562 C 107.007812 94.726562 107.8125 94.332031 108.359375 93.800781 C 108.359375 93.800781 109.664062 95.042969 109.664062 95.042969 Z M 103.867188 91.675781 C 103.867188 91.675781 107.765625 91.675781 107.765625 91.675781 C 107.613281 90.675781 106.597656 90.296875 105.839844 90.296875 C 105.113281 90.296875 104.15625 90.632812 103.867188 91.675781 Z M 103.867188 91.675781 " fill-opacity="1" fill-rule="nonzero"/><path fill="#ff0196" d="M 112.4375 93.664062 C 112.679688 94.558594 113.4375 94.832031 114.074219 94.832031 C 114.578125 94.832031 115.09375 94.652344 115.09375 94.242188 C 115.09375 93.984375 114.941406 93.816406 114.515625 93.648438 C 114.515625 93.648438 113.152344 93.074219 113.152344 93.074219 C 111.300781 92.4375 111.210938 91.191406 111.210938 90.84375 C 111.210938 89.28125 112.605469 88.460938 114.257812 88.460938 C 115.136719 88.460938 116.335938 88.691406 117.0625 90.101562 C 117.0625 90.101562 115.320312 90.902344 115.320312 90.902344 C 115.105469 90.28125 114.578125 90.160156 114.210938 90.160156 C 113.789062 90.160156 113.347656 90.386719 113.347656 90.796875 C 113.347656 91.148438 113.667969 91.296875 114.074219 91.464844 C 114.074219 91.464844 115.242188 91.921875 115.242188 91.921875 C 117.078125 92.453125 117.246094 93.648438 117.246094 94.164062 C 117.246094 95.757812 115.773438 96.578125 114.0625 96.578125 C 112.90625 96.578125 111.332031 96.210938 110.800781 94.589844 C 110.800781 94.589844 112.4375 93.664062 112.4375 93.664062 Z M 112.4375 93.664062 " fill-opacity="1" fill-rule="nonzero"/><path fill="#ff0196" d="M 119.734375 93.664062 C 119.976562 94.558594 120.734375 94.832031 121.371094 94.832031 C 121.871094 94.832031 122.386719 94.652344 122.386719 94.242188 C 122.386719 93.984375 122.234375 93.816406 121.8125 93.648438 C 121.8125 93.648438 120.445312 93.074219 120.445312 93.074219 C 118.59375 92.4375 118.503906 91.191406 118.503906 90.84375 C 118.503906 89.28125 119.898438 88.460938 121.554688 88.460938 C 122.433594 88.460938 123.628906 88.691406 124.359375 90.101562 C 124.359375 90.101562 122.613281 90.902344 122.613281 90.902344 C 122.402344 90.28125 121.871094 90.160156 121.507812 90.160156 C 121.082031 90.160156 120.644531 90.386719 120.644531 90.796875 C 120.644531 91.148438 120.960938 91.296875 121.371094 91.464844 C 121.371094 91.464844 122.539062 91.921875 122.539062 91.921875 C 124.375 92.453125 124.539062 93.648438 124.539062 94.164062 C 124.539062 95.757812 123.070312 96.578125 121.355469 96.578125 C 120.203125 96.578125 118.625 96.210938 118.09375 94.589844 C 118.09375 94.589844 119.734375 93.664062 119.734375 93.664062 Z M 119.734375 93.664062 " fill-opacity="1" fill-rule="nonzero"/></svg>