<svg xmlns="http://www.w3.org/2000/svg" xmlns:xlink="http://www.w3.org/1999/xlink" width="750" zoomAndPan="magnify" viewBox="0 0 562.5 562.499982" height="750" preserveAspectRatio="xMidYMid meet" version="1.0"><defs><clipPath id="04b8f4206d"><path d="M 116.136719 76 L 446 76 L 446 406 L 116.136719 406 Z M 116.136719 76 " clip-rule="nonzero"/></clipPath></defs><g clip-path="url(#04b8f4206d)"><path fill="#333333" d="M 445.628906 226.078125 C 445.144531 224.160156 443.207031 222.996094 441.285156 223.484375 L 423.160156 228.058594 L 380.5 193.628906 C 379.847656 193.101562 379.078125 192.792969 378.195312 192.839844 L 326.421875 193.664062 C 325.988281 188.285156 324.621094 183.042969 322.128906 177.882812 L 357.882812 153.535156 C 359.046875 152.746094 359.632812 151.34375 359.390625 149.953125 L 350.640625 100.476562 L 364.84375 81.960938 C 366.046875 80.390625 365.75 78.148438 364.175781 76.941406 C 362.617188 75.746094 360.363281 76.042969 359.160156 77.601562 L 343.996094 97.371094 C 343.382812 98.167969 343.132812 99.179688 343.3125 100.167969 L 351.9375 148.917969 L 318.515625 171.683594 C 315.046875 166.691406 310.589844 162.421875 305.445312 159.148438 C 310.171875 158.878906 314.550781 157.15625 317.792969 154.238281 C 331.527344 141.875 318.839844 119.160156 299.257812 118.382812 L 306.484375 110.6875 C 307.835938 109.246094 307.769531 106.980469 306.328125 105.632812 C 304.894531 104.28125 302.628906 104.347656 301.273438 105.789062 L 290.882812 116.863281 C 287.667969 107.652344 274.597656 107.671875 271.390625 116.863281 L 260.996094 105.796875 C 259.640625 104.355469 257.375 104.289062 255.9375 105.636719 C 254.496094 106.992188 254.425781 109.25 255.78125 110.691406 L 263.011719 118.386719 C 243.335938 119.171875 230.792969 141.929688 244.46875 154.238281 C 247.683594 157.136719 252.015625 158.851562 256.828125 159.144531 C 251.679688 162.421875 247.222656 166.691406 243.746094 171.683594 L 210.324219 148.917969 L 218.949219 100.167969 C 219.128906 99.179688 218.878906 98.167969 218.265625 97.371094 L 203.101562 77.609375 C 201.894531 76.042969 199.652344 75.746094 198.085938 76.949219 C 196.515625 78.15625 196.222656 80.398438 197.417969 81.964844 L 211.621094 100.484375 L 202.871094 149.960938 C 202.628906 151.347656 203.21875 152.746094 204.378906 153.539062 L 240.128906 177.890625 C 237.773438 182.769531 236.296875 187.980469 235.835938 193.667969 L 184.066406 192.847656 C 183.242188 192.808594 182.414062 193.109375 181.761719 193.636719 L 139.101562 228.066406 L 120.976562 223.488281 C 119.066406 223.007812 117.117188 224.160156 116.632812 226.082031 C 116.144531 228 117.308594 229.941406 119.226562 230.429688 L 139.082031 235.445312 C 140.167969 235.71875 141.328125 235.46875 142.203125 234.757812 L 185.246094 200.023438 L 231.839844 200.757812 L 147.820312 319.988281 C 136.734375 335.699219 121.824219 363.480469 133.585938 378.679688 C 137.007812 383.101562 142.144531 385.628906 148.855469 386.222656 C 170.410156 388.132812 199.335938 369.871094 216.25 356.410156 L 226.035156 385.734375 L 219.265625 400.257812 C 218.429688 402.046875 219.207031 404.175781 220.996094 405.011719 C 222.792969 405.847656 224.921875 405.0625 225.75 403.28125 L 233.125 387.46875 C 233.511719 386.636719 233.566406 385.691406 233.277344 384.828125 L 222.175781 351.539062 C 227.484375 347.007812 232.671875 342.164062 237.859375 336.8125 C 245.324219 356.113281 260.652344 379.113281 281.148438 379.113281 C 301.6875 379.113281 317.007812 356.042969 324.441406 336.8125 C 329.636719 342.171875 334.832031 347.015625 340.125 351.539062 L 329.023438 384.828125 C 328.734375 385.695312 328.785156 386.644531 329.175781 387.46875 L 336.550781 403.28125 C 337.378906 405.0625 339.507812 405.847656 341.304688 405.011719 C 343.09375 404.175781 343.871094 402.046875 343.035156 400.257812 L 336.265625 385.734375 L 346.050781 356.410156 C 380.222656 383.625 415.851562 395.308594 428.703125 378.691406 C 440.46875 363.480469 425.5625 335.707031 414.472656 319.988281 L 330.425781 200.753906 L 377.023438 200.015625 L 420.0625 234.753906 C 420.925781 235.449219 422.078125 235.71875 423.183594 235.4375 L 443.042969 230.421875 C 444.953125 229.941406 446.117188 227.992188 445.628906 226.078125 Z M 314.609375 341.445312 C 293.296875 343.789062 269.09375 343.804688 247.667969 341.445312 C 245.878906 337.707031 244.523438 334.457031 243.3125 330.980469 C 251.246094 322.164062 258.953125 312.167969 264.953125 301.882812 C 275.414062 301.34375 286.867188 301.34375 297.328125 301.882812 C 303.304688 312.132812 311.148438 322.324219 318.96875 330.980469 C 317.863281 334.148438 316.535156 337.429688 314.609375 341.445312 Z M 255.253906 235.292969 C 270.074219 228.945312 292.199219 228.945312 307.019531 235.292969 C 291.269531 259.765625 271.609375 260.707031 255.253906 235.292969 Z M 286.898438 260.582031 C 284.390625 269.15625 286.640625 280.929688 293.378906 294.550781 C 285.335938 294.253906 276.941406 294.253906 268.898438 294.550781 C 275.632812 280.929688 277.882812 269.15625 275.375 260.582031 C 279.308594 261.484375 283.390625 261.394531 286.898438 260.582031 Z M 310.640625 229.050781 C 293.84375 221.480469 268.460938 221.460938 251.625 229.050781 C 244.542969 215.386719 242.394531 201.699219 242.835938 196.761719 C 243.007812 194.972656 242.816406 193.15625 243.785156 188.917969 C 265.675781 177.378906 296.609375 177.390625 318.476562 188.917969 C 321.398438 201.707031 316.730469 217.316406 310.640625 229.050781 Z M 304.9375 152.035156 L 291.460938 152.035156 L 291.460938 127.195312 C 297.039062 124.074219 305.25 125.386719 310.945312 130.519531 C 320.417969 139.066406 316.625 151.554688 304.9375 152.035156 Z M 277.96875 120.21875 C 277.96875 118.492188 279.390625 117.097656 281.136719 117.097656 C 282.882812 117.097656 284.304688 118.5 284.304688 120.21875 L 284.304688 152.027344 L 277.96875 152.027344 Z M 251.332031 130.519531 C 257.027344 125.386719 265.242188 124.074219 270.8125 127.195312 L 270.8125 152.035156 L 257.480469 152.035156 C 245.523438 151.554688 241.914062 139.011719 251.332031 130.519531 Z M 281.136719 159.1875 C 295.621094 159.1875 308.355469 167.398438 314.847656 179.371094 C 293.945312 171.019531 268.292969 171.03125 247.417969 179.371094 C 253.917969 167.398438 266.652344 159.1875 281.136719 159.1875 Z M 137.679688 356.007812 C 139.972656 346.714844 145.503906 335.6875 153.667969 324.109375 L 236.503906 206.570312 C 239.25 223.015625 248.75 243.191406 262.042969 253.824219 C 262.996094 254.585938 263.898438 255.410156 264.65625 256.363281 C 266.144531 258.226562 268.671875 260.183594 269.152344 266.265625 C 270.53125 284.023438 252.160156 309.949219 240.433594 323.417969 C 194.402344 376.410156 126.574219 400.539062 137.679688 356.007812 Z M 281.136719 371.957031 C 271.015625 371.957031 260.277344 363.492188 251.671875 349.023438 C 270.351562 350.753906 290.699219 350.875 310.609375 349.023438 C 301.996094 363.492188 291.257812 371.957031 281.136719 371.957031 Z M 424.59375 356.015625 C 435.6875 400.460938 367.929688 376.492188 321.867188 323.457031 C 310.074219 309.914062 289.230469 280.707031 293.585938 263.25 C 294.476562 259.714844 295.761719 258.628906 297.492188 256.503906 C 298.296875 255.515625 299.21875 254.632812 300.203125 253.84375 C 313.226562 243.421875 322.941406 223.484375 325.765625 206.578125 L 408.605469 324.109375 C 416.773438 335.6875 422.300781 346.714844 424.59375 356.015625 Z M 424.59375 356.015625 " fill-opacity="1" fill-rule="nonzero"/></g></svg>