<svg xmlns="http://www.w3.org/2000/svg" xmlns:xlink="http://www.w3.org/1999/xlink" width="1000" zoomAndPan="magnify" viewBox="0 0 750 749.999995" height="1000" preserveAspectRatio="xMidYMid meet" version="1.0"><path fill="#333333" d="M 634.625 351.679688 C 633.855469 348.660156 630.804688 346.824219 627.769531 347.59375 L 599.179688 354.804688 L 531.894531 300.546875 C 530.867188 299.71875 529.652344 299.230469 528.261719 299.300781 L 446.601562 300.597656 C 445.917969 292.121094 443.757812 283.863281 439.832031 275.730469 L 496.222656 237.359375 C 498.0625 236.113281 498.984375 233.902344 498.601562 231.714844 L 484.800781 153.742188 L 507.199219 124.5625 C 509.101562 122.089844 508.632812 118.554688 506.152344 116.65625 C 503.691406 114.765625 500.136719 115.234375 498.238281 117.691406 L 474.320312 148.847656 C 473.355469 150.101562 472.960938 151.699219 473.242188 153.253906 L 486.84375 230.085938 L 434.128906 265.960938 C 428.65625 258.097656 421.628906 251.363281 413.515625 246.207031 C 420.972656 245.78125 427.878906 243.0625 432.988281 238.46875 C 454.652344 218.984375 434.640625 183.183594 403.753906 181.960938 L 415.15625 169.832031 C 417.285156 167.5625 417.183594 163.992188 414.90625 161.867188 C 412.644531 159.738281 409.070312 159.84375 406.933594 162.113281 L 390.542969 179.5625 C 385.476562 165.050781 364.863281 165.082031 359.804688 179.5625 L 343.40625 162.125 C 341.265625 159.851562 337.695312 159.75 335.429688 161.875 C 333.15625 164.011719 333.042969 167.570312 335.183594 169.84375 L 346.585938 181.972656 C 315.554688 183.207031 295.769531 219.070312 317.339844 238.46875 C 322.40625 243.03125 329.242188 245.742188 336.832031 246.195312 C 328.710938 251.363281 321.679688 258.097656 316.199219 265.960938 L 263.484375 230.085938 L 277.085938 153.253906 C 277.367188 151.699219 276.972656 150.101562 276.007812 148.847656 L 252.089844 117.703125 C 250.191406 115.234375 246.648438 114.765625 244.175781 116.664062 C 241.707031 118.5625 241.238281 122.101562 243.128906 124.570312 L 265.527344 153.753906 L 251.726562 231.726562 C 251.34375 233.914062 252.277344 236.113281 254.105469 237.367188 L 310.496094 275.742188 C 306.777344 283.429688 304.453125 291.644531 303.726562 300.609375 L 222.066406 299.3125 C 220.769531 299.25 219.460938 299.726562 218.433594 300.558594 L 151.148438 354.8125 L 122.558594 347.605469 C 119.546875 346.847656 116.472656 348.660156 115.703125 351.691406 C 114.933594 354.710938 116.773438 357.769531 119.796875 358.539062 L 151.117188 366.441406 C 152.832031 366.878906 154.65625 366.484375 156.039062 365.363281 L 223.925781 310.621094 L 297.421875 311.78125 L 164.898438 499.675781 C 147.410156 524.441406 123.898438 568.21875 142.445312 592.171875 C 147.84375 599.144531 155.945312 603.128906 166.527344 604.0625 C 200.527344 607.070312 246.152344 578.292969 272.828125 557.078125 L 288.261719 603.292969 L 277.585938 626.179688 C 276.265625 629 277.492188 632.351562 280.316406 633.667969 C 283.152344 634.988281 286.507812 633.753906 287.816406 630.941406 L 299.445312 606.023438 C 300.058594 604.714844 300.144531 603.222656 299.6875 601.863281 L 282.175781 549.402344 C 290.546875 542.261719 298.730469 534.628906 306.914062 526.195312 C 318.691406 556.609375 342.867188 592.859375 375.195312 592.859375 C 407.585938 592.859375 431.753906 556.496094 443.476562 526.195312 C 451.671875 534.636719 459.863281 542.273438 468.214844 549.402344 L 450.707031 601.863281 C 450.25 603.230469 450.332031 604.726562 450.945312 606.023438 L 462.574219 630.941406 C 463.882812 633.753906 467.238281 634.988281 470.074219 633.667969 C 472.898438 632.351562 474.125 629 472.804688 626.179688 L 462.128906 603.292969 L 477.5625 557.078125 C 531.460938 599.964844 587.652344 618.378906 607.925781 592.195312 C 626.484375 568.21875 602.972656 524.449219 585.484375 499.675781 L 452.917969 311.773438 L 526.414062 310.609375 L 594.300781 365.355469 C 595.660156 366.453125 597.476562 366.878906 599.222656 366.433594 L 630.542969 358.527344 C 633.554688 357.769531 635.394531 354.699219 634.625 351.679688 Z M 427.972656 533.496094 C 394.355469 537.191406 356.179688 537.210938 322.386719 533.496094 C 319.5625 527.605469 317.421875 522.480469 315.511719 517.003906 C 328.027344 503.113281 340.1875 487.351562 349.648438 471.148438 C 366.148438 470.296875 384.210938 470.296875 400.710938 471.148438 C 410.140625 487.300781 422.511719 503.359375 434.847656 517.003906 C 433.101562 521.992188 431.003906 527.167969 427.972656 533.496094 Z M 334.351562 366.203125 C 357.726562 356.203125 392.621094 356.203125 416 366.203125 C 391.15625 404.773438 360.148438 406.257812 334.351562 366.203125 Z M 384.261719 406.0625 C 380.304688 419.570312 383.855469 438.128906 394.480469 459.59375 C 381.800781 459.125 368.558594 459.125 355.867188 459.59375 C 366.492188 438.128906 370.042969 419.570312 366.085938 406.0625 C 372.289062 407.484375 378.726562 407.335938 384.261719 406.0625 Z M 421.710938 356.371094 C 395.21875 344.441406 355.183594 344.410156 328.628906 356.371094 C 317.453125 334.832031 314.070312 313.265625 314.765625 305.484375 C 315.035156 302.664062 314.734375 299.800781 316.261719 293.117188 C 350.789062 274.933594 399.578125 274.953125 434.070312 293.117188 C 438.679688 313.277344 431.316406 337.871094 421.710938 356.371094 Z M 412.71875 234.992188 L 391.457031 234.992188 L 391.457031 195.851562 C 400.253906 190.933594 413.203125 193 422.1875 201.089844 C 437.132812 214.554688 431.148438 234.234375 412.71875 234.992188 Z M 370.179688 184.855469 C 370.179688 182.136719 372.421875 179.9375 375.175781 179.9375 C 377.925781 179.9375 380.171875 182.148438 380.171875 184.855469 L 380.171875 234.984375 L 370.179688 234.984375 Z M 328.160156 201.089844 C 337.144531 193 350.105469 190.933594 358.890625 195.851562 L 358.890625 234.992188 L 337.859375 234.992188 C 319 234.234375 313.3125 214.472656 328.160156 201.089844 Z M 375.175781 246.269531 C 398.023438 246.269531 418.105469 259.207031 428.347656 278.078125 C 395.375 264.910156 354.914062 264.933594 321.992188 278.078125 C 332.242188 259.207031 352.328125 246.269531 375.175781 246.269531 Z M 148.90625 556.445312 C 152.519531 541.796875 161.242188 524.417969 174.121094 506.171875 L 304.773438 320.941406 C 309.105469 346.855469 324.089844 378.652344 345.058594 395.40625 C 346.5625 396.609375 347.988281 397.90625 349.179688 399.410156 C 351.527344 402.347656 355.515625 405.429688 356.273438 415.015625 C 358.445312 443.003906 329.46875 483.855469 310.972656 505.082031 C 238.371094 588.59375 131.386719 626.625 148.90625 556.445312 Z M 375.175781 581.582031 C 359.214844 581.582031 342.273438 568.238281 328.703125 545.4375 C 358.164062 548.167969 390.253906 548.351562 421.660156 545.4375 C 408.074219 568.238281 391.136719 581.582031 375.175781 581.582031 Z M 601.445312 556.453125 C 618.945312 626.5 512.070312 588.730469 439.417969 505.144531 C 420.816406 483.804688 387.9375 437.773438 394.8125 410.261719 C 396.214844 404.691406 398.238281 402.980469 400.972656 399.628906 C 402.238281 398.074219 403.691406 396.683594 405.25 395.4375 C 425.792969 379.015625 441.109375 347.59375 445.566406 320.953125 L 576.230469 506.171875 C 589.105469 524.417969 597.832031 541.796875 601.445312 556.453125 Z M 601.445312 556.453125 " fill-opacity="1" fill-rule="nonzero"/></svg>