<svg xmlns="http://www.w3.org/2000/svg" xmlns:xlink="http://www.w3.org/1999/xlink" width="440" zoomAndPan="magnify" viewBox="0 0 330 247.499998" height="330" preserveAspectRatio="xMidYMid meet" version="1.0"><defs><clipPath id="3fbcc0224d"><path d="M 0.332031 2.425781 L 152.613281 2.425781 L 152.613281 154.707031 L 0.332031 154.707031 Z M 0.332031 2.425781 " clip-rule="nonzero"/></clipPath><clipPath id="2c20bf21b4"><path d="M 185 83.511719 L 260 83.511719 L 260 114 L 185 114 Z M 185 83.511719 " clip-rule="nonzero"/></clipPath><clipPath id="79c2cd7753"><path d="M 184 213 L 260 213 L 260 244.679688 L 184 244.679688 Z M 184 213 " clip-rule="nonzero"/></clipPath><clipPath id="371c64bb79"><path d="M 162.210938 119 L 237 119 L 237 208 L 162.210938 208 Z M 162.210938 119 " clip-rule="nonzero"/></clipPath><clipPath id="32e07cbb56"><path d="M 162.210938 134 L 237 134 L 237 137 L 162.210938 137 Z M 162.210938 134 " clip-rule="nonzero"/></clipPath><clipPath id="87035aa603"><path d="M 162.210938 153 L 237 153 L 237 155 L 162.210938 155 Z M 162.210938 153 " clip-rule="nonzero"/></clipPath><clipPath id="f114662170"><path d="M 162.210938 171 L 237 171 L 237 174 L 162.210938 174 Z M 162.210938 171 " clip-rule="nonzero"/></clipPath><clipPath id="ecb8ea03eb"><path d="M 162.210938 189 L 237 189 L 237 192 L 162.210938 192 Z M 162.210938 189 " clip-rule="nonzero"/></clipPath><clipPath id="506132b55d"><path d="M 251 224 L 329.347656 224 L 329.347656 234 L 251 234 Z M 251 224 " clip-rule="nonzero"/></clipPath><clipPath id="8d8a07b8ae"><path d="M 251 180 L 329.347656 180 L 329.347656 227 L 251 227 Z M 251 180 " clip-rule="nonzero"/></clipPath></defs><g clip-path="url(#3fbcc0224d)"><path fill="#82c09a" d="M 76.460938 2.382812 C 34.421875 2.382812 0.34375 36.460938 0.34375 78.5 C 0.34375 120.539062 34.421875 154.621094 76.460938 154.621094 C 118.5 154.621094 152.582031 120.539062 152.582031 78.5 C 152.582031 36.460938 118.5 2.382812 76.460938 2.382812 Z M 36.542969 84.289062 L 36.542969 42.324219 C 36.542969 38.664062 39.511719 35.699219 43.167969 35.699219 L 109.75 35.699219 C 113.410156 35.699219 116.378906 38.664062 116.378906 42.324219 L 116.378906 84.292969 C 116.378906 85.695312 115.933594 86.992188 115.1875 88.066406 L 124.578125 101.605469 L 28.347656 101.605469 L 37.734375 88.066406 C 36.988281 86.996094 36.542969 85.695312 36.542969 84.289062 Z M 124.582031 114.972656 L 28.339844 114.972656 L 28.339844 107.074219 L 124.585938 107.074219 L 124.585938 114.972656 Z M 124.582031 114.972656 " fill-opacity="1" fill-rule="nonzero"/></g><path fill="#82c09a" d="M 46.011719 45.164062 L 106.910156 45.164062 L 106.910156 81.449219 L 46.011719 81.449219 Z M 46.011719 45.164062 " fill-opacity="1" fill-rule="nonzero"/><g clip-path="url(#2c20bf21b4)"><path fill="#4458dc" d="M 186.179688 113.191406 C 185.988281 113.191406 185.796875 113.125 185.640625 112.992188 C 185.289062 112.691406 185.246094 112.164062 185.546875 111.8125 C 187.496094 109.519531 189.597656 107.308594 191.792969 105.246094 C 192.128906 104.929688 192.660156 104.949219 192.972656 105.285156 C 193.289062 105.621094 193.273438 106.152344 192.9375 106.46875 C 190.785156 108.488281 188.726562 110.652344 186.816406 112.898438 C 186.652344 113.09375 186.417969 113.191406 186.179688 113.191406 Z M 199.234375 100.929688 C 198.980469 100.929688 198.726562 100.8125 198.5625 100.59375 C 198.289062 100.222656 198.363281 99.699219 198.734375 99.421875 C 201.144531 97.617188 203.683594 95.933594 206.28125 94.410156 C 206.679688 94.179688 207.191406 94.3125 207.421875 94.710938 C 207.65625 95.113281 207.519531 95.625 207.121094 95.859375 C 204.582031 97.347656 202.09375 98.996094 199.730469 100.761719 C 199.582031 100.875 199.40625 100.929688 199.234375 100.929688 Z M 214.679688 91.886719 C 214.359375 91.886719 214.050781 91.703125 213.914062 91.386719 C 213.726562 90.964844 213.917969 90.472656 214.339844 90.285156 C 217.09375 89.066406 219.945312 87.992188 222.816406 87.09375 C 223.253906 86.957031 223.722656 87.203125 223.859375 87.644531 C 224 88.085938 223.753906 88.554688 223.3125 88.695312 C 220.503906 89.574219 217.710938 90.625 215.015625 91.816406 C 214.90625 91.863281 214.792969 91.886719 214.679688 91.886719 Z M 231.75 86.546875 C 231.359375 86.546875 231.007812 86.269531 230.929688 85.867188 C 230.84375 85.414062 231.140625 84.976562 231.59375 84.886719 C 234.542969 84.324219 237.5625 83.917969 240.566406 83.691406 C 241.027344 83.65625 241.429688 84 241.464844 84.460938 C 241.5 84.921875 241.152344 85.324219 240.695312 85.359375 C 237.753906 85.585938 234.796875 85.980469 231.910156 86.53125 C 231.855469 86.542969 231.800781 86.546875 231.75 86.546875 Z M 258.511719 85.992188 C 258.46875 85.992188 258.429688 85.988281 258.386719 85.980469 C 255.460938 85.550781 252.492188 85.28125 249.558594 85.179688 C 249.097656 85.160156 248.738281 84.773438 248.753906 84.3125 C 248.769531 83.851562 249.160156 83.488281 249.617188 83.503906 C 252.609375 83.609375 255.644531 83.886719 258.628906 84.324219 C 259.085938 84.390625 259.402344 84.816406 259.335938 85.273438 C 259.273438 85.691406 258.917969 85.992188 258.511719 85.992188 Z M 258.511719 85.992188 " fill-opacity="1" fill-rule="nonzero"/></g><g clip-path="url(#79c2cd7753)"><path fill="#4458dc" d="M 249.214844 244.683594 C 248.765625 244.683594 248.394531 244.324219 248.382812 243.871094 C 248.367188 243.410156 248.730469 243.023438 249.191406 243.007812 C 252.207031 242.914062 255.242188 242.648438 258.210938 242.214844 C 258.667969 242.148438 259.09375 242.464844 259.160156 242.921875 C 259.226562 243.378906 258.910156 243.804688 258.453125 243.871094 C 255.421875 244.3125 252.324219 244.585938 249.242188 244.679688 C 249.234375 244.683594 249.222656 244.683594 249.214844 244.683594 Z M 240.070312 244.445312 C 240.046875 244.445312 240.023438 244.445312 240 244.441406 C 236.933594 244.1875 233.851562 243.75 230.84375 243.144531 C 230.390625 243.054688 230.097656 242.613281 230.191406 242.160156 C 230.28125 241.707031 230.722656 241.414062 231.171875 241.503906 C 234.117188 242.097656 237.132812 242.523438 240.136719 242.773438 C 240.597656 242.8125 240.9375 243.214844 240.902344 243.675781 C 240.863281 244.113281 240.5 244.445312 240.070312 244.445312 Z M 222.15625 240.839844 C 222.070312 240.839844 221.984375 240.824219 221.898438 240.796875 C 218.976562 239.847656 216.082031 238.710938 213.285156 237.429688 C 212.867188 237.234375 212.683594 236.738281 212.875 236.320312 C 213.066406 235.898438 213.5625 235.714844 213.980469 235.90625 C 216.71875 237.164062 219.554688 238.273438 222.414062 239.203125 C 222.855469 239.347656 223.09375 239.820312 222.953125 240.257812 C 222.835938 240.613281 222.507812 240.839844 222.15625 240.839844 Z M 205.550781 233.210938 C 205.402344 233.210938 205.253906 233.171875 205.117188 233.085938 C 202.492188 231.492188 199.929688 229.726562 197.5 227.835938 C 197.132812 227.554688 197.066406 227.027344 197.351562 226.664062 C 197.632812 226.296875 198.15625 226.230469 198.523438 226.515625 C 200.902344 228.363281 203.410156 230.09375 205.984375 231.65625 C 206.378906 231.894531 206.503906 232.410156 206.265625 232.804688 C 206.105469 233.066406 205.832031 233.210938 205.550781 233.210938 Z M 191.113281 221.984375 C 190.902344 221.984375 190.691406 221.90625 190.527344 221.746094 C 188.328125 219.59375 186.234375 217.289062 184.296875 214.902344 C 184.003906 214.542969 184.058594 214.015625 184.417969 213.722656 C 184.777344 213.429688 185.300781 213.484375 185.59375 213.84375 C 187.488281 216.183594 189.542969 218.441406 191.695312 220.550781 C 192.023438 220.875 192.03125 221.402344 191.707031 221.734375 C 191.546875 221.902344 191.328125 221.984375 191.113281 221.984375 Z M 191.113281 221.984375 " fill-opacity="1" fill-rule="nonzero"/></g><path fill="#dcd6ff" d="M 305.203125 164.09375 C 305.203125 166.011719 305.109375 167.925781 304.921875 169.835938 C 304.730469 171.746094 304.453125 173.640625 304.078125 175.523438 C 303.703125 177.402344 303.242188 179.261719 302.683594 181.097656 C 302.128906 182.933594 301.484375 184.738281 300.753906 186.511719 C 300.019531 188.285156 299.203125 190.015625 298.300781 191.710938 C 297.398438 193.402344 296.414062 195.046875 295.351562 196.640625 C 294.289062 198.234375 293.148438 199.773438 291.933594 201.257812 C 290.722656 202.742188 289.4375 204.160156 288.082031 205.519531 C 286.730469 206.875 285.3125 208.160156 283.832031 209.378906 C 282.355469 210.597656 280.816406 211.738281 279.226562 212.804688 C 277.636719 213.871094 275.996094 214.855469 274.308594 215.757812 C 272.621094 216.664062 270.890625 217.484375 269.121094 218.21875 C 267.355469 218.953125 265.554688 219.597656 263.722656 220.152344 C 261.890625 220.710938 260.035156 221.175781 258.160156 221.550781 C 256.28125 221.925781 254.390625 222.207031 252.484375 222.394531 C 250.582031 222.582031 248.671875 222.675781 246.757812 222.675781 C 244.84375 222.675781 242.933594 222.582031 241.027344 222.394531 C 239.121094 222.207031 237.230469 221.925781 235.355469 221.550781 C 233.476562 221.175781 231.621094 220.710938 229.789062 220.152344 C 227.960938 219.597656 226.160156 218.953125 224.390625 218.21875 C 222.621094 217.484375 220.894531 216.664062 219.207031 215.757812 C 217.519531 214.855469 215.878906 213.871094 214.285156 212.804688 C 212.695312 211.738281 211.160156 210.597656 209.679688 209.378906 C 208.199219 208.160156 206.785156 206.875 205.429688 205.519531 C 204.078125 204.160156 202.792969 202.742188 201.578125 201.257812 C 200.363281 199.773438 199.226562 198.234375 198.160156 196.640625 C 197.097656 195.046875 196.113281 193.402344 195.210938 191.710938 C 194.308594 190.015625 193.492188 188.285156 192.761719 186.511719 C 192.027344 184.738281 191.382812 182.933594 190.828125 181.097656 C 190.273438 179.261719 189.808594 177.402344 189.433594 175.523438 C 189.0625 173.640625 188.78125 171.746094 188.59375 169.835938 C 188.40625 167.925781 188.3125 166.011719 188.3125 164.09375 C 188.3125 162.175781 188.40625 160.261719 188.59375 158.351562 C 188.78125 156.441406 189.0625 154.546875 189.433594 152.664062 C 189.808594 150.78125 190.273438 148.921875 190.828125 147.085938 C 191.382812 145.25 192.027344 143.445312 192.761719 141.671875 C 193.492188 139.902344 194.308594 138.167969 195.210938 136.476562 C 196.113281 134.785156 197.097656 133.140625 198.160156 131.546875 C 199.226562 129.949219 200.363281 128.410156 201.578125 126.925781 C 202.792969 125.445312 204.078125 124.023438 205.429688 122.667969 C 206.785156 121.3125 208.199219 120.023438 209.679688 118.808594 C 211.160156 117.589844 212.695312 116.449219 214.285156 115.382812 C 215.878906 114.316406 217.519531 113.332031 219.207031 112.425781 C 220.894531 111.523438 222.621094 110.703125 224.390625 109.96875 C 226.160156 109.234375 227.960938 108.589844 229.789062 108.03125 C 231.621094 107.472656 233.476562 107.007812 235.355469 106.632812 C 237.230469 106.261719 239.121094 105.980469 241.027344 105.789062 C 242.933594 105.601562 244.84375 105.507812 246.757812 105.507812 C 248.671875 105.507812 250.582031 105.601562 252.484375 105.789062 C 254.390625 105.980469 256.28125 106.261719 258.160156 106.632812 C 260.035156 107.007812 261.890625 107.472656 263.722656 108.03125 C 265.554688 108.589844 267.355469 109.234375 269.121094 109.96875 C 270.890625 110.703125 272.621094 111.523438 274.308594 112.425781 C 275.996094 113.332031 277.636719 114.316406 279.226562 115.382812 C 280.816406 116.449219 282.355469 117.589844 283.832031 118.808594 C 285.3125 120.023438 286.730469 121.3125 288.082031 122.667969 C 289.4375 124.023438 290.722656 125.445312 291.933594 126.925781 C 293.148438 128.410156 294.289062 129.949219 295.351562 131.546875 C 296.414062 133.140625 297.398438 134.785156 298.300781 136.476562 C 299.203125 138.167969 300.019531 139.902344 300.753906 141.671875 C 301.484375 143.445312 302.128906 145.25 302.683594 147.085938 C 303.242188 148.921875 303.703125 150.78125 304.078125 152.664062 C 304.453125 154.546875 304.730469 156.441406 304.921875 158.351562 C 305.109375 160.261719 305.203125 162.175781 305.203125 164.09375 Z M 305.203125 164.09375 " fill-opacity="1" fill-rule="nonzero"/><path fill="#ffc180" d="M 283.949219 126.074219 L 260.457031 126.074219 C 257.910156 126.074219 255.847656 124.003906 255.847656 121.453125 L 255.847656 97.90625 C 255.847656 95.351562 257.910156 93.285156 260.457031 93.285156 L 283.949219 93.285156 C 286.496094 93.285156 288.558594 95.351562 288.558594 97.90625 L 288.558594 121.453125 C 288.558594 124.003906 286.496094 126.074219 283.949219 126.074219 Z M 283.949219 126.074219 " fill-opacity="1" fill-rule="nonzero"/><path fill="#4458dc" d="M 283.949219 126.910156 L 260.457031 126.910156 C 257.453125 126.910156 255.011719 124.460938 255.011719 121.453125 L 255.011719 97.90625 C 255.011719 94.894531 257.453125 92.445312 260.457031 92.445312 L 283.949219 92.445312 C 286.953125 92.445312 289.394531 94.894531 289.394531 97.90625 L 289.394531 121.453125 C 289.394531 124.460938 286.953125 126.910156 283.949219 126.910156 Z M 260.457031 94.121094 C 258.375 94.121094 256.683594 95.820312 256.683594 97.90625 L 256.683594 121.453125 C 256.683594 123.539062 258.375 125.238281 260.457031 125.238281 L 283.949219 125.238281 C 286.03125 125.238281 287.722656 123.539062 287.722656 121.453125 L 287.722656 97.90625 C 287.722656 95.820312 286.03125 94.121094 283.949219 94.121094 Z M 260.457031 94.121094 " fill-opacity="1" fill-rule="nonzero"/><path fill="#ffffff" d="M 323.367188 126.074219 L 299.875 126.074219 C 297.328125 126.074219 295.265625 124.003906 295.265625 121.453125 L 295.265625 97.90625 C 295.265625 95.351562 297.328125 93.285156 299.875 93.285156 L 323.367188 93.285156 C 325.914062 93.285156 327.976562 95.351562 327.976562 97.90625 L 327.976562 121.453125 C 327.976562 124.003906 325.914062 126.074219 323.367188 126.074219 Z M 323.367188 126.074219 " fill-opacity="1" fill-rule="nonzero"/><path fill="#4458dc" d="M 323.367188 126.910156 L 299.875 126.910156 C 296.871094 126.910156 294.429688 124.460938 294.429688 121.453125 L 294.429688 97.90625 C 294.429688 94.894531 296.871094 92.445312 299.875 92.445312 L 323.367188 92.445312 C 326.371094 92.445312 328.8125 94.894531 328.8125 97.90625 L 328.8125 121.453125 C 328.8125 124.460938 326.371094 126.910156 323.367188 126.910156 Z M 299.875 94.121094 C 297.792969 94.121094 296.101562 95.820312 296.101562 97.90625 L 296.101562 121.453125 C 296.101562 123.539062 297.792969 125.238281 299.875 125.238281 L 323.367188 125.238281 C 325.449219 125.238281 327.140625 123.539062 327.140625 121.453125 L 327.140625 97.90625 C 327.140625 95.820312 325.449219 94.121094 323.367188 94.121094 Z M 299.875 94.121094 " fill-opacity="1" fill-rule="nonzero"/><path fill="#ffffff" d="M 283.949219 165.585938 L 260.457031 165.585938 C 257.910156 165.585938 255.847656 163.519531 255.847656 160.964844 L 255.847656 137.417969 C 255.847656 134.867188 257.910156 132.796875 260.457031 132.796875 L 283.949219 132.796875 C 286.496094 132.796875 288.558594 134.867188 288.558594 137.417969 L 288.558594 160.964844 C 288.558594 163.519531 286.496094 165.585938 283.949219 165.585938 Z M 283.949219 165.585938 " fill-opacity="1" fill-rule="nonzero"/><path fill="#4458dc" d="M 283.949219 166.421875 L 260.457031 166.421875 C 257.453125 166.421875 255.011719 163.976562 255.011719 160.964844 L 255.011719 137.417969 C 255.011719 134.40625 257.453125 131.960938 260.457031 131.960938 L 283.949219 131.960938 C 286.953125 131.960938 289.394531 134.40625 289.394531 137.417969 L 289.394531 160.964844 C 289.394531 163.976562 286.953125 166.421875 283.949219 166.421875 Z M 260.457031 133.632812 C 258.375 133.632812 256.683594 135.332031 256.683594 137.417969 L 256.683594 160.964844 C 256.683594 163.050781 258.375 164.75 260.457031 164.75 L 283.949219 164.75 C 286.03125 164.75 287.722656 163.050781 287.722656 160.964844 L 287.722656 137.417969 C 287.722656 135.332031 286.03125 133.632812 283.949219 133.632812 Z M 260.457031 133.632812 " fill-opacity="1" fill-rule="nonzero"/><path fill="#47e769" d="M 323.367188 165.585938 L 299.875 165.585938 C 297.328125 165.585938 295.265625 163.519531 295.265625 160.964844 L 295.265625 137.417969 C 295.265625 134.867188 297.328125 132.796875 299.875 132.796875 L 323.367188 132.796875 C 325.914062 132.796875 327.976562 134.867188 327.976562 137.417969 L 327.976562 160.964844 C 327.976562 163.519531 325.914062 165.585938 323.367188 165.585938 Z M 323.367188 165.585938 " fill-opacity="1" fill-rule="nonzero"/><path fill="#4458dc" d="M 323.367188 166.421875 L 299.875 166.421875 C 296.871094 166.421875 294.429688 163.976562 294.429688 160.964844 L 294.429688 137.417969 C 294.429688 134.40625 296.871094 131.960938 299.875 131.960938 L 323.367188 131.960938 C 326.371094 131.960938 328.8125 134.40625 328.8125 137.417969 L 328.8125 160.964844 C 328.8125 163.976562 326.371094 166.421875 323.367188 166.421875 Z M 299.875 133.632812 C 297.792969 133.632812 296.101562 135.332031 296.101562 137.417969 L 296.101562 160.964844 C 296.101562 163.050781 297.792969 164.75 299.875 164.75 L 323.367188 164.75 C 325.449219 164.75 327.140625 163.050781 327.140625 160.964844 L 327.140625 137.417969 C 327.140625 135.332031 325.449219 133.632812 323.367188 133.632812 Z M 299.875 133.632812 " fill-opacity="1" fill-rule="nonzero"/><path fill="#4458dc" d="M 280.722656 110.515625 L 263.683594 110.515625 C 263.222656 110.515625 262.847656 110.140625 262.847656 109.679688 C 262.847656 109.214844 263.222656 108.84375 263.683594 108.84375 L 280.722656 108.84375 C 281.183594 108.84375 281.558594 109.214844 281.558594 109.679688 C 281.558594 110.140625 281.183594 110.515625 280.722656 110.515625 Z M 280.722656 110.515625 " fill-opacity="1" fill-rule="nonzero"/><path fill="#4458dc" d="M 280.722656 150.027344 L 263.683594 150.027344 C 263.222656 150.027344 262.847656 149.652344 262.847656 149.191406 C 262.847656 148.730469 263.222656 148.355469 263.683594 148.355469 L 280.722656 148.355469 C 281.183594 148.355469 281.558594 148.730469 281.558594 149.191406 C 281.558594 149.652344 281.183594 150.027344 280.722656 150.027344 Z M 280.722656 150.027344 " fill-opacity="1" fill-rule="nonzero"/><path fill="#4458dc" d="M 272.203125 119.054688 C 271.742188 119.054688 271.367188 118.679688 271.367188 118.21875 L 271.367188 101.140625 C 271.367188 100.675781 271.742188 100.300781 272.203125 100.300781 C 272.664062 100.300781 273.039062 100.675781 273.039062 101.140625 L 273.039062 118.21875 C 273.039062 118.679688 272.664062 119.054688 272.203125 119.054688 Z M 272.203125 119.054688 " fill-opacity="1" fill-rule="nonzero"/><path fill="#4458dc" d="M 317.644531 156.066406 C 317.433594 156.066406 317.21875 155.984375 317.054688 155.820312 L 305.007812 143.746094 C 304.679688 143.417969 304.679688 142.886719 305.007812 142.5625 C 305.332031 142.234375 305.863281 142.234375 306.1875 142.5625 L 318.234375 154.636719 C 318.5625 154.964844 318.5625 155.496094 318.234375 155.820312 C 318.074219 155.984375 317.859375 156.066406 317.644531 156.066406 Z M 317.644531 156.066406 " fill-opacity="1" fill-rule="nonzero"/><path fill="#4458dc" d="M 305.597656 156.066406 C 305.382812 156.066406 305.167969 155.984375 305.007812 155.820312 C 304.679688 155.496094 304.679688 154.964844 305.007812 154.636719 L 317.054688 142.5625 C 317.382812 142.234375 317.910156 142.234375 318.238281 142.5625 C 318.5625 142.886719 318.5625 143.417969 318.238281 143.746094 L 306.1875 155.820312 C 306.023438 155.984375 305.8125 156.066406 305.597656 156.066406 Z M 305.597656 156.066406 " fill-opacity="1" fill-rule="nonzero"/><path fill="#4458dc" d="M 320.140625 110.515625 L 303.101562 110.515625 C 302.640625 110.515625 302.265625 110.140625 302.265625 109.679688 C 302.265625 109.214844 302.640625 108.84375 303.101562 108.84375 L 320.140625 108.84375 C 320.601562 108.84375 320.976562 109.214844 320.976562 109.679688 C 320.976562 110.140625 320.601562 110.515625 320.140625 110.515625 Z M 320.140625 110.515625 " fill-opacity="1" fill-rule="nonzero"/><path fill="#4458dc" d="M 272.203125 145.191406 C 270.386719 145.191406 268.910156 143.710938 268.910156 141.890625 C 268.910156 140.070312 270.386719 138.589844 272.203125 138.589844 C 274.019531 138.589844 275.496094 140.070312 275.496094 141.890625 C 275.496094 143.710938 274.019531 145.191406 272.203125 145.191406 Z M 272.203125 140.261719 C 271.308594 140.261719 270.578125 140.992188 270.578125 141.890625 C 270.578125 142.789062 271.308594 143.519531 272.203125 143.519531 C 273.097656 143.519531 273.828125 142.789062 273.828125 141.890625 C 273.828125 140.992188 273.097656 140.261719 272.203125 140.261719 Z M 272.203125 140.261719 " fill-opacity="1" fill-rule="nonzero"/><path fill="#4458dc" d="M 272.203125 159.796875 C 270.386719 159.796875 268.910156 158.3125 268.910156 156.492188 C 268.910156 154.671875 270.386719 153.191406 272.203125 153.191406 C 274.019531 153.191406 275.496094 154.671875 275.496094 156.492188 C 275.496094 158.3125 274.019531 159.796875 272.203125 159.796875 Z M 272.203125 154.863281 C 271.308594 154.863281 270.578125 155.59375 270.578125 156.492188 C 270.578125 157.390625 271.308594 158.121094 272.203125 158.121094 C 273.097656 158.121094 273.828125 157.390625 273.828125 156.492188 C 273.828125 155.59375 273.097656 154.863281 272.203125 154.863281 Z M 272.203125 154.863281 " fill-opacity="1" fill-rule="nonzero"/><path fill="#ffffff" d="M 230.734375 206.621094 L 167.683594 206.621094 C 165.136719 206.621094 163.074219 204.554688 163.074219 202 L 163.074219 124.628906 C 163.074219 122.074219 165.136719 120.007812 167.683594 120.007812 L 230.734375 120.007812 C 233.28125 120.007812 235.34375 122.074219 235.34375 124.628906 L 235.34375 202 C 235.34375 204.554688 233.28125 206.621094 230.734375 206.621094 Z M 230.734375 206.621094 " fill-opacity="1" fill-rule="nonzero"/><g clip-path="url(#371c64bb79)"><path fill="#4458dc" d="M 230.734375 207.457031 L 167.683594 207.457031 C 164.679688 207.457031 162.238281 205.011719 162.238281 202 L 162.238281 124.628906 C 162.238281 121.617188 164.679688 119.167969 167.683594 119.167969 L 230.734375 119.167969 C 233.738281 119.167969 236.179688 121.617188 236.179688 124.628906 L 236.179688 202 C 236.179688 205.011719 233.738281 207.457031 230.734375 207.457031 Z M 167.683594 120.84375 C 165.601562 120.84375 163.910156 122.539062 163.910156 124.628906 L 163.910156 202 C 163.910156 204.085938 165.601562 205.785156 167.683594 205.785156 L 230.734375 205.785156 C 232.816406 205.785156 234.511719 204.085938 234.511719 202 L 234.511719 124.628906 C 234.511719 122.542969 232.816406 120.84375 230.734375 120.84375 Z M 167.683594 120.84375 " fill-opacity="1" fill-rule="nonzero"/></g><g clip-path="url(#32e07cbb56)"><path fill="#4458dc" d="M 235.34375 136.660156 L 163.074219 136.660156 C 162.613281 136.660156 162.238281 136.289062 162.238281 135.824219 C 162.238281 135.363281 162.613281 134.988281 163.074219 134.988281 L 235.34375 134.988281 C 235.804688 134.988281 236.179688 135.363281 236.179688 135.824219 C 236.179688 136.289062 235.804688 136.660156 235.34375 136.660156 Z M 235.34375 136.660156 " fill-opacity="1" fill-rule="nonzero"/></g><g clip-path="url(#87035aa603)"><path fill="#4458dc" d="M 235.34375 154.988281 L 163.074219 154.988281 C 162.613281 154.988281 162.238281 154.613281 162.238281 154.152344 C 162.238281 153.6875 162.613281 153.3125 163.074219 153.3125 L 235.34375 153.3125 C 235.804688 153.3125 236.179688 153.6875 236.179688 154.152344 C 236.179688 154.613281 235.804688 154.988281 235.34375 154.988281 Z M 235.34375 154.988281 " fill-opacity="1" fill-rule="nonzero"/></g><g clip-path="url(#f114662170)"><path fill="#4458dc" d="M 235.34375 173.3125 L 163.074219 173.3125 C 162.613281 173.3125 162.238281 172.9375 162.238281 172.476562 C 162.238281 172.015625 162.613281 171.640625 163.074219 171.640625 L 235.34375 171.640625 C 235.804688 171.640625 236.179688 172.015625 236.179688 172.476562 C 236.179688 172.9375 235.804688 173.3125 235.34375 173.3125 Z M 235.34375 173.3125 " fill-opacity="1" fill-rule="nonzero"/></g><g clip-path="url(#ecb8ea03eb)"><path fill="#4458dc" d="M 235.34375 191.640625 L 163.074219 191.640625 C 162.613281 191.640625 162.238281 191.265625 162.238281 190.804688 C 162.238281 190.339844 162.613281 189.964844 163.074219 189.964844 L 235.34375 189.964844 C 235.804688 189.964844 236.179688 190.339844 236.179688 190.804688 C 236.179688 191.265625 235.804688 191.640625 235.34375 191.640625 Z M 235.34375 191.640625 " fill-opacity="1" fill-rule="nonzero"/></g><path fill="#47e769" d="M 222 130.191406 L 190.046875 130.191406 C 188.457031 130.191406 187.171875 131.480469 187.171875 133.070312 L 187.171875 138.578125 C 187.171875 140.167969 188.457031 141.457031 190.046875 141.457031 L 222 141.457031 C 223.585938 141.457031 224.875 140.167969 224.875 138.578125 L 224.875 133.070312 C 224.875 131.480469 223.585938 130.191406 222 130.191406 Z M 222 130.191406 " fill-opacity="1" fill-rule="nonzero"/><path fill="#4458dc" d="M 222 142.292969 L 190.046875 142.292969 C 188 142.292969 186.335938 140.628906 186.335938 138.578125 L 186.335938 133.070312 C 186.335938 131.023438 188 129.355469 190.046875 129.355469 L 222 129.355469 C 224.042969 129.355469 225.707031 131.023438 225.707031 133.070312 L 225.707031 138.578125 C 225.707031 140.628906 224.042969 142.292969 222 142.292969 Z M 190.046875 131.03125 C 188.921875 131.03125 188.007812 131.945312 188.007812 133.070312 L 188.007812 138.578125 C 188.007812 139.703125 188.921875 140.621094 190.046875 140.621094 L 222 140.621094 C 223.125 140.621094 224.039062 139.703125 224.039062 138.578125 L 224.039062 133.070312 C 224.039062 131.945312 223.125 131.03125 222 131.03125 Z M 190.046875 131.03125 " fill-opacity="1" fill-rule="nonzero"/><path fill="#4458dc" d="M 196.597656 142.285156 C 196.136719 142.285156 195.761719 141.910156 195.761719 141.449219 L 195.761719 130.191406 C 195.761719 129.730469 196.136719 129.355469 196.597656 129.355469 C 197.058594 129.355469 197.433594 129.730469 197.433594 130.191406 L 197.433594 141.449219 C 197.433594 141.910156 197.058594 142.285156 196.597656 142.285156 Z M 196.597656 142.285156 " fill-opacity="1" fill-rule="nonzero"/><path fill="#4458dc" d="M 206.023438 142.285156 C 205.5625 142.285156 205.1875 141.910156 205.1875 141.449219 L 205.1875 130.191406 C 205.1875 129.730469 205.5625 129.355469 206.023438 129.355469 C 206.484375 129.355469 206.859375 129.730469 206.859375 130.191406 L 206.859375 141.449219 C 206.859375 141.910156 206.484375 142.285156 206.023438 142.285156 Z M 206.023438 142.285156 " fill-opacity="1" fill-rule="nonzero"/><path fill="#4458dc" d="M 215.449219 142.285156 C 214.988281 142.285156 214.613281 141.910156 214.613281 141.449219 L 214.613281 130.191406 C 214.613281 129.730469 214.988281 129.355469 215.449219 129.355469 C 215.910156 129.355469 216.28125 129.730469 216.28125 130.191406 L 216.28125 141.449219 C 216.28125 141.910156 215.910156 142.285156 215.449219 142.285156 Z M 215.449219 142.285156 " fill-opacity="1" fill-rule="nonzero"/><path fill="#ffffff" d="M 177.292969 159.777344 L 173.613281 159.777344 C 172.027344 159.777344 170.742188 158.488281 170.742188 156.898438 L 170.742188 151.402344 C 170.742188 149.8125 172.027344 148.523438 173.613281 148.523438 L 177.292969 148.523438 C 178.878906 148.523438 180.167969 149.8125 180.167969 151.402344 L 180.167969 156.898438 C 180.167969 158.488281 178.878906 159.777344 177.292969 159.777344 Z M 177.292969 159.777344 " fill-opacity="1" fill-rule="nonzero"/><path fill="#4458dc" d="M 177.292969 160.617188 L 173.613281 160.617188 C 171.570312 160.617188 169.90625 158.949219 169.90625 156.898438 L 169.90625 151.402344 C 169.90625 149.351562 171.570312 147.6875 173.613281 147.6875 L 177.292969 147.6875 C 179.339844 147.6875 181 149.351562 181 151.402344 L 181 156.898438 C 181 158.949219 179.339844 160.617188 177.292969 160.617188 Z M 173.613281 149.359375 C 172.492188 149.359375 171.578125 150.277344 171.578125 151.402344 L 171.578125 156.898438 C 171.578125 158.027344 172.492188 158.941406 173.613281 158.941406 L 177.292969 158.941406 C 178.417969 158.941406 179.332031 158.027344 179.332031 156.898438 L 179.332031 151.402344 C 179.332031 150.277344 178.417969 149.359375 177.292969 149.359375 Z M 173.613281 149.359375 " fill-opacity="1" fill-rule="nonzero"/><path fill="#ffffff" d="M 206.023438 159.777344 L 199.46875 159.777344 C 197.882812 159.777344 196.597656 158.488281 196.597656 156.898438 L 196.597656 151.402344 C 196.597656 149.8125 197.882812 148.523438 199.46875 148.523438 L 206.023438 148.523438 Z M 206.023438 159.777344 " fill-opacity="1" fill-rule="nonzero"/><path fill="#4458dc" d="M 206.023438 160.617188 L 199.46875 160.617188 C 197.425781 160.617188 195.761719 158.949219 195.761719 156.898438 L 195.761719 151.402344 C 195.761719 149.351562 197.425781 147.6875 199.46875 147.6875 L 206.023438 147.6875 C 206.484375 147.6875 206.859375 148.0625 206.859375 148.523438 L 206.859375 159.777344 C 206.859375 160.242188 206.484375 160.617188 206.023438 160.617188 Z M 199.46875 149.359375 C 198.347656 149.359375 197.433594 150.277344 197.433594 151.402344 L 197.433594 156.898438 C 197.433594 158.027344 198.347656 158.941406 199.46875 158.941406 L 205.1875 158.941406 L 205.1875 149.359375 Z M 199.46875 149.359375 " fill-opacity="1" fill-rule="nonzero"/><path fill="#ffc180" d="M 215.449219 178.105469 L 208.894531 178.105469 C 207.308594 178.105469 206.023438 176.816406 206.023438 175.226562 L 206.023438 169.730469 C 206.023438 168.136719 207.308594 166.847656 208.894531 166.847656 L 215.449219 166.847656 Z M 215.449219 178.105469 " fill-opacity="1" fill-rule="nonzero"/><path fill="#4458dc" d="M 215.449219 178.941406 L 208.894531 178.941406 C 206.851562 178.941406 205.1875 177.273438 205.1875 175.226562 L 205.1875 169.730469 C 205.1875 167.679688 206.851562 166.011719 208.894531 166.011719 L 215.449219 166.011719 C 215.910156 166.011719 216.28125 166.386719 216.28125 166.847656 L 216.28125 178.105469 C 216.28125 178.566406 215.910156 178.941406 215.449219 178.941406 Z M 208.894531 167.6875 C 207.773438 167.6875 206.859375 168.601562 206.859375 169.730469 L 206.859375 175.226562 C 206.859375 176.351562 207.773438 177.269531 208.894531 177.269531 L 214.613281 177.269531 L 214.613281 167.6875 Z M 208.894531 167.6875 " fill-opacity="1" fill-rule="nonzero"/><path fill="#ffc180" d="M 222 178.105469 L 215.449219 178.105469 L 215.449219 166.847656 L 222 166.847656 C 223.585938 166.847656 224.871094 168.136719 224.871094 169.730469 L 224.871094 175.226562 C 224.871094 176.816406 223.585938 178.105469 222 178.105469 Z M 222 178.105469 " fill-opacity="1" fill-rule="nonzero"/><path fill="#4458dc" d="M 222 178.941406 L 215.449219 178.941406 C 214.988281 178.941406 214.613281 178.566406 214.613281 178.105469 L 214.613281 166.847656 C 214.613281 166.386719 214.988281 166.011719 215.449219 166.011719 L 222 166.011719 C 224.042969 166.011719 225.707031 167.679688 225.707031 169.730469 L 225.707031 175.226562 C 225.707031 177.273438 224.042969 178.941406 222 178.941406 Z M 216.28125 177.269531 L 222 177.269531 C 223.125 177.269531 224.039062 176.351562 224.039062 175.226562 L 224.039062 169.730469 C 224.039062 168.601562 223.125 167.6875 222 167.6875 L 216.28125 167.6875 Z M 216.28125 177.269531 " fill-opacity="1" fill-rule="nonzero"/><path fill="#47e769" d="M 215.449219 196.429688 L 208.894531 196.429688 C 207.308594 196.429688 206.023438 195.140625 206.023438 193.550781 L 206.023438 188.054688 C 206.023438 186.464844 207.308594 185.175781 208.894531 185.175781 L 215.449219 185.175781 Z M 215.449219 196.429688 " fill-opacity="1" fill-rule="nonzero"/><path fill="#4458dc" d="M 215.449219 197.269531 L 208.894531 197.269531 C 206.851562 197.269531 205.1875 195.601562 205.1875 193.550781 L 205.1875 188.054688 C 205.1875 186.003906 206.851562 184.335938 208.894531 184.335938 L 215.449219 184.335938 C 215.910156 184.335938 216.28125 184.710938 216.28125 185.175781 L 216.28125 196.429688 C 216.28125 196.894531 215.910156 197.269531 215.449219 197.269531 Z M 208.894531 186.011719 C 207.773438 186.011719 206.859375 186.929688 206.859375 188.054688 L 206.859375 193.550781 C 206.859375 194.679688 207.773438 195.59375 208.894531 195.59375 L 214.613281 195.59375 L 214.613281 186.011719 Z M 208.894531 186.011719 " fill-opacity="1" fill-rule="nonzero"/><path fill="#47e769" d="M 186.71875 196.429688 L 180.167969 196.429688 L 180.167969 185.175781 L 186.71875 185.175781 C 188.304688 185.175781 189.589844 186.464844 189.589844 188.054688 L 189.589844 193.550781 C 189.589844 195.140625 188.304688 196.429688 186.71875 196.429688 Z M 186.71875 196.429688 " fill-opacity="1" fill-rule="nonzero"/><path fill="#4458dc" d="M 186.71875 197.269531 L 180.167969 197.269531 C 179.703125 197.269531 179.332031 196.894531 179.332031 196.429688 L 179.332031 185.175781 C 179.332031 184.710938 179.703125 184.339844 180.167969 184.339844 L 186.71875 184.339844 C 188.761719 184.339844 190.425781 186.003906 190.425781 188.054688 L 190.425781 193.550781 C 190.425781 195.601562 188.761719 197.269531 186.71875 197.269531 Z M 181 195.59375 L 186.71875 195.59375 C 187.84375 195.59375 188.757812 194.679688 188.757812 193.550781 L 188.757812 188.054688 C 188.757812 186.929688 187.84375 186.011719 186.71875 186.011719 L 181 186.011719 Z M 181 195.59375 " fill-opacity="1" fill-rule="nonzero"/><path fill="#47e769" d="M 180.167969 196.429688 L 173.613281 196.429688 C 172.027344 196.429688 170.742188 195.140625 170.742188 193.550781 L 170.742188 188.054688 C 170.742188 186.464844 172.027344 185.175781 173.613281 185.175781 L 180.167969 185.175781 Z M 180.167969 196.429688 " fill-opacity="1" fill-rule="nonzero"/><path fill="#4458dc" d="M 180.167969 197.269531 L 173.613281 197.269531 C 171.570312 197.269531 169.90625 195.601562 169.90625 193.550781 L 169.90625 188.054688 C 169.90625 186.003906 171.570312 184.335938 173.613281 184.335938 L 180.167969 184.335938 C 180.628906 184.335938 181 184.710938 181 185.175781 L 181 196.429688 C 181 196.894531 180.628906 197.269531 180.167969 197.269531 Z M 173.613281 186.011719 C 172.492188 186.011719 171.578125 186.929688 171.578125 188.054688 L 171.578125 193.550781 C 171.578125 194.679688 172.492188 195.59375 173.613281 195.59375 L 179.332031 195.59375 L 179.332031 186.011719 Z M 173.613281 186.011719 " fill-opacity="1" fill-rule="nonzero"/><path fill="#47e769" d="M 222 196.429688 L 215.449219 196.429688 L 215.449219 185.175781 L 222 185.175781 C 223.585938 185.175781 224.871094 186.464844 224.871094 188.054688 L 224.871094 193.550781 C 224.871094 195.140625 223.585938 196.429688 222 196.429688 Z M 222 196.429688 " fill-opacity="1" fill-rule="nonzero"/><path fill="#4458dc" d="M 222 197.269531 L 215.449219 197.269531 C 214.988281 197.269531 214.613281 196.894531 214.613281 196.429688 L 214.613281 185.175781 C 214.613281 184.710938 214.988281 184.339844 215.449219 184.339844 L 222 184.339844 C 224.042969 184.339844 225.707031 186.003906 225.707031 188.054688 L 225.707031 193.550781 C 225.707031 195.601562 224.042969 197.269531 222 197.269531 Z M 216.28125 195.59375 L 222 195.59375 C 223.125 195.59375 224.039062 194.679688 224.039062 193.550781 L 224.039062 188.054688 C 224.039062 186.929688 223.125 186.011719 222 186.011719 L 216.28125 186.011719 Z M 216.28125 195.59375 " fill-opacity="1" fill-rule="nonzero"/><path fill="#ffffff" d="M 206.023438 148.523438 L 215.449219 148.523438 L 215.449219 159.777344 L 206.023438 159.777344 Z M 206.023438 148.523438 " fill-opacity="1" fill-rule="nonzero"/><path fill="#4458dc" d="M 215.449219 160.617188 L 206.023438 160.617188 C 205.5625 160.617188 205.1875 160.242188 205.1875 159.777344 L 205.1875 148.523438 C 205.1875 148.0625 205.5625 147.6875 206.023438 147.6875 L 215.449219 147.6875 C 215.910156 147.6875 216.28125 148.0625 216.28125 148.523438 L 216.28125 159.777344 C 216.28125 160.242188 215.910156 160.617188 215.449219 160.617188 Z M 206.859375 158.941406 L 214.613281 158.941406 L 214.613281 149.359375 L 206.859375 149.359375 Z M 206.859375 158.941406 " fill-opacity="1" fill-rule="nonzero"/><path fill="#ffffff" d="M 222 159.777344 L 215.449219 159.777344 L 215.449219 148.523438 L 222 148.523438 C 223.585938 148.523438 224.871094 149.8125 224.871094 151.402344 L 224.871094 156.898438 C 224.871094 158.488281 223.585938 159.777344 222 159.777344 Z M 222 159.777344 " fill-opacity="1" fill-rule="nonzero"/><path fill="#4458dc" d="M 222 160.617188 L 215.449219 160.617188 C 214.988281 160.617188 214.613281 160.242188 214.613281 159.777344 L 214.613281 148.523438 C 214.613281 148.0625 214.988281 147.6875 215.449219 147.6875 L 222 147.6875 C 224.042969 147.6875 225.707031 149.351562 225.707031 151.402344 L 225.707031 156.898438 C 225.707031 158.949219 224.042969 160.617188 222 160.617188 Z M 216.28125 158.941406 L 222 158.941406 C 223.125 158.941406 224.039062 158.027344 224.039062 156.898438 L 224.039062 151.402344 C 224.039062 150.277344 223.125 149.359375 222 149.359375 L 216.28125 149.359375 Z M 216.28125 158.941406 " fill-opacity="1" fill-rule="nonzero"/><path fill="#47e769" d="M 252.574219 225.582031 L 252.574219 229.34375 C 252.574219 231.164062 254.046875 232.640625 255.867188 232.640625 L 325.199219 232.640625 C 327.015625 232.640625 328.492188 231.164062 328.492188 229.34375 L 328.492188 225.582031 Z M 252.574219 225.582031 " fill-opacity="1" fill-rule="nonzero"/><g clip-path="url(#506132b55d)"><path fill="#4458dc" d="M 325.199219 233.480469 L 255.867188 233.480469 C 253.589844 233.480469 251.738281 231.625 251.738281 229.34375 L 251.738281 225.582031 C 251.738281 225.121094 252.113281 224.746094 252.574219 224.746094 C 253.035156 224.746094 253.410156 225.121094 253.410156 225.582031 L 253.410156 229.34375 C 253.410156 230.699219 254.511719 231.804688 255.867188 231.804688 L 325.199219 231.804688 C 326.554688 231.804688 327.65625 230.699219 327.65625 229.34375 L 327.65625 225.582031 C 327.65625 225.121094 328.03125 224.746094 328.492188 224.746094 C 328.953125 224.746094 329.324219 225.121094 329.324219 225.582031 L 329.324219 229.34375 C 329.324219 231.625 327.472656 233.480469 325.199219 233.480469 Z M 325.199219 233.480469 " fill-opacity="1" fill-rule="nonzero"/></g><path fill="#ffffff" d="M 257.195312 181.285156 C 254.648438 181.285156 252.585938 183.355469 252.585938 185.90625 L 252.585938 225.582031 L 328.492188 225.582031 L 328.492188 185.90625 C 328.492188 183.355469 326.425781 181.285156 323.882812 181.285156 Z M 257.195312 181.285156 " fill-opacity="1" fill-rule="nonzero"/><g clip-path="url(#8d8a07b8ae)"><path fill="#4458dc" d="M 328.492188 226.421875 L 252.585938 226.421875 C 252.125 226.421875 251.75 226.046875 251.75 225.582031 L 251.75 185.90625 C 251.75 182.898438 254.191406 180.449219 257.195312 180.449219 L 323.882812 180.449219 C 326.882812 180.449219 329.324219 182.898438 329.324219 185.90625 L 329.324219 225.582031 C 329.324219 226.046875 328.953125 226.421875 328.492188 226.421875 Z M 253.417969 224.746094 L 327.65625 224.746094 L 327.65625 185.90625 C 327.65625 183.820312 325.960938 182.125 323.882812 182.125 L 257.195312 182.125 C 255.113281 182.125 253.417969 183.820312 253.417969 185.90625 Z M 253.417969 224.746094 " fill-opacity="1" fill-rule="nonzero"/></g><path fill="#47e769" d="M 279.605469 241.347656 L 283.554688 232.640625 L 297.507812 232.640625 L 301.457031 241.347656 Z M 279.605469 241.347656 " fill-opacity="1" fill-rule="nonzero"/><path fill="#4458dc" d="M 301.457031 242.1875 C 301.140625 242.1875 300.835938 242.003906 300.699219 241.695312 L 296.96875 233.480469 L 284.09375 233.480469 L 280.367188 241.695312 C 280.175781 242.117188 279.679688 242.300781 279.261719 242.109375 C 278.839844 241.917969 278.65625 241.421875 278.847656 241.003906 L 282.796875 232.296875 C 282.933594 231.996094 283.230469 231.804688 283.554688 231.804688 L 297.507812 231.804688 C 297.835938 231.804688 298.132812 231.996094 298.269531 232.296875 L 302.21875 241.003906 C 302.410156 241.421875 302.222656 241.917969 301.804688 242.109375 C 301.691406 242.160156 301.574219 242.1875 301.457031 242.1875 Z M 301.457031 242.1875 " fill-opacity="1" fill-rule="nonzero"/><path fill="#4458dc" d="M 310.273438 242.1875 L 270.789062 242.1875 C 270.328125 242.1875 269.957031 241.8125 269.957031 241.347656 C 269.957031 240.886719 270.328125 240.511719 270.789062 240.511719 L 310.273438 240.511719 C 310.734375 240.511719 311.109375 240.886719 311.109375 241.347656 C 311.109375 241.8125 310.734375 242.1875 310.273438 242.1875 Z M 310.273438 242.1875 " fill-opacity="1" fill-rule="nonzero"/><path fill="#4458dc" d="M 273.269531 202.570312 C 272.808594 202.570312 272.433594 202.195312 272.433594 201.734375 L 272.433594 195.640625 L 270.929688 197.152344 C 270.601562 197.476562 270.074219 197.476562 269.75 197.152344 C 269.421875 196.824219 269.421875 196.292969 269.75 195.964844 L 272.679688 193.027344 C 272.917969 192.789062 273.277344 192.71875 273.589844 192.847656 C 273.902344 192.976562 274.105469 193.28125 274.105469 193.621094 L 274.105469 201.734375 C 274.105469 202.195312 273.730469 202.570312 273.269531 202.570312 Z M 273.269531 202.570312 " fill-opacity="1" fill-rule="nonzero"/><path fill="#4458dc" d="M 297.601562 202.570312 C 297.140625 202.570312 296.769531 202.195312 296.769531 201.734375 L 296.769531 195.640625 L 295.261719 197.152344 C 294.9375 197.476562 294.40625 197.476562 294.082031 197.152344 C 293.753906 196.824219 293.753906 196.292969 294.082031 195.964844 L 297.011719 193.027344 C 297.25 192.789062 297.609375 192.71875 297.921875 192.847656 C 298.234375 192.976562 298.4375 193.28125 298.4375 193.621094 L 298.4375 201.734375 C 298.4375 202.195312 298.066406 202.570312 297.601562 202.570312 Z M 297.601562 202.570312 " fill-opacity="1" fill-rule="nonzero"/><path fill="#4458dc" d="M 283.972656 202.722656 C 282.167969 202.722656 280.703125 201.253906 280.703125 199.449219 L 280.703125 195.859375 C 280.703125 194.054688 282.167969 192.585938 283.972656 192.585938 C 285.773438 192.585938 287.238281 194.054688 287.238281 195.859375 L 287.238281 199.449219 C 287.238281 201.253906 285.773438 202.722656 283.972656 202.722656 Z M 283.972656 194.257812 C 283.089844 194.257812 282.375 194.976562 282.375 195.859375 L 282.375 199.449219 C 282.375 200.332031 283.089844 201.050781 283.972656 201.050781 C 284.851562 201.050781 285.566406 200.332031 285.566406 199.449219 L 285.566406 195.859375 C 285.566406 194.976562 284.851562 194.257812 283.972656 194.257812 Z M 283.972656 194.257812 " fill-opacity="1" fill-rule="nonzero"/><path fill="#4458dc" d="M 308.304688 202.722656 C 306.503906 202.722656 305.035156 201.253906 305.035156 199.449219 L 305.035156 195.859375 C 305.035156 194.054688 306.503906 192.585938 308.304688 192.585938 C 310.105469 192.585938 311.570312 194.054688 311.570312 195.859375 L 311.570312 199.449219 C 311.570312 201.253906 310.105469 202.722656 308.304688 202.722656 Z M 308.304688 194.257812 C 307.421875 194.257812 306.707031 194.976562 306.707031 195.859375 L 306.707031 199.449219 C 306.707031 200.332031 307.421875 201.050781 308.304688 201.050781 C 309.183594 201.050781 309.902344 200.332031 309.902344 199.449219 L 309.902344 195.859375 C 309.902344 194.976562 309.183594 194.257812 308.304688 194.257812 Z M 308.304688 194.257812 " fill-opacity="1" fill-rule="nonzero"/><path fill="#4458dc" d="M 273.269531 215.839844 C 272.808594 215.839844 272.433594 215.464844 272.433594 215.003906 L 272.433594 208.910156 L 270.929688 210.417969 C 270.601562 210.746094 270.074219 210.746094 269.75 210.417969 C 269.421875 210.09375 269.421875 209.5625 269.75 209.234375 L 272.679688 206.296875 C 272.917969 206.058594 273.277344 205.984375 273.589844 206.117188 C 273.902344 206.246094 274.105469 206.550781 274.105469 206.890625 L 274.105469 215.003906 C 274.105469 215.464844 273.730469 215.839844 273.269531 215.839844 Z M 273.269531 215.839844 " fill-opacity="1" fill-rule="nonzero"/><path fill="#4458dc" d="M 309.769531 215.839844 C 309.308594 215.839844 308.933594 215.464844 308.933594 215.003906 L 308.933594 208.910156 L 307.429688 210.417969 C 307.101562 210.746094 306.574219 210.746094 306.25 210.417969 C 305.921875 210.09375 305.921875 209.5625 306.25 209.234375 L 309.179688 206.296875 C 309.417969 206.058594 309.777344 205.984375 310.089844 206.117188 C 310.402344 206.246094 310.605469 206.550781 310.605469 206.890625 L 310.605469 215.003906 C 310.605469 215.464844 310.230469 215.839844 309.769531 215.839844 Z M 309.769531 215.839844 " fill-opacity="1" fill-rule="nonzero"/><path fill="#4458dc" d="M 283.972656 215.992188 C 282.167969 215.992188 280.703125 214.523438 280.703125 212.71875 L 280.703125 209.128906 C 280.703125 207.324219 282.167969 205.855469 283.972656 205.855469 C 285.773438 205.855469 287.238281 207.324219 287.238281 209.128906 L 287.238281 212.71875 C 287.238281 214.523438 285.773438 215.992188 283.972656 215.992188 Z M 283.972656 207.527344 C 283.089844 207.527344 282.375 208.246094 282.375 209.128906 L 282.375 212.71875 C 282.375 213.601562 283.089844 214.316406 283.972656 214.316406 C 284.851562 214.316406 285.566406 213.601562 285.566406 212.71875 L 285.566406 209.128906 C 285.566406 208.246094 284.851562 207.527344 283.972656 207.527344 Z M 283.972656 207.527344 " fill-opacity="1" fill-rule="nonzero"/><path fill="#4458dc" d="M 296.136719 215.992188 C 294.335938 215.992188 292.871094 214.523438 292.871094 212.71875 L 292.871094 209.128906 C 292.871094 207.324219 294.335938 205.855469 296.136719 205.855469 C 297.9375 205.855469 299.40625 207.324219 299.40625 209.128906 L 299.40625 212.71875 C 299.40625 214.523438 297.9375 215.992188 296.136719 215.992188 Z M 296.136719 207.527344 C 295.257812 207.527344 294.539062 208.246094 294.539062 209.128906 L 294.539062 212.71875 C 294.539062 213.601562 295.257812 214.316406 296.136719 214.316406 C 297.019531 214.316406 297.734375 213.601562 297.734375 212.71875 L 297.734375 209.128906 C 297.734375 208.246094 297.019531 207.527344 296.136719 207.527344 Z M 296.136719 207.527344 " fill-opacity="1" fill-rule="nonzero"/></svg>