<svg xmlns="http://www.w3.org/2000/svg" xmlns:xlink="http://www.w3.org/1999/xlink" width="80" zoomAndPan="magnify" viewBox="0 0 60 60" height="80" preserveAspectRatio="xMidYMid meet" version="1.0"><defs><clipPath id="c9f920ce63"><path d="M 0.671875 0.671875 L 59.171875 0.671875 L 59.171875 59.171875 L 0.671875 59.171875 Z M 0.671875 0.671875 " clip-rule="nonzero"/></clipPath></defs><g clip-path="url(#c9f920ce63)"><path fill="#dfe8f4" d="M 59.171875 29.921875 C 59.171875 30.878906 59.125 31.835938 59.03125 32.789062 C 58.9375 33.742188 58.796875 34.6875 58.609375 35.628906 C 58.421875 36.570312 58.191406 37.496094 57.914062 38.414062 C 57.636719 39.328125 57.3125 40.230469 56.945312 41.117188 C 56.578125 42 56.171875 42.867188 55.71875 43.710938 C 55.265625 44.554688 54.773438 45.375 54.242188 46.171875 C 53.710938 46.96875 53.140625 47.738281 52.53125 48.476562 C 51.925781 49.21875 51.28125 49.929688 50.605469 50.605469 C 49.929688 51.28125 49.21875 51.925781 48.476562 52.53125 C 47.738281 53.140625 46.96875 53.710938 46.171875 54.242188 C 45.375 54.773438 44.554688 55.265625 43.710938 55.71875 C 42.867188 56.171875 42 56.578125 41.117188 56.945312 C 40.230469 57.3125 39.328125 57.636719 38.414062 57.914062 C 37.496094 58.191406 36.570312 58.421875 35.628906 58.609375 C 34.6875 58.796875 33.742188 58.9375 32.789062 59.03125 C 31.835938 59.125 30.878906 59.171875 29.921875 59.171875 C 28.964844 59.171875 28.007812 59.125 27.054688 59.03125 C 26.101562 58.9375 25.15625 58.796875 24.214844 58.609375 C 23.277344 58.421875 22.347656 58.191406 21.429688 57.914062 C 20.515625 57.636719 19.613281 57.3125 18.730469 56.945312 C 17.84375 56.578125 16.980469 56.171875 16.132812 55.71875 C 15.289062 55.265625 14.46875 54.773438 13.671875 54.242188 C 12.875 53.710938 12.105469 53.140625 11.367188 52.53125 C 10.625 51.925781 9.917969 51.28125 9.238281 50.605469 C 8.5625 49.929688 7.917969 49.21875 7.3125 48.476562 C 6.703125 47.738281 6.132812 46.96875 5.601562 46.171875 C 5.070312 45.375 4.578125 44.554688 4.125 43.710938 C 3.675781 42.867188 3.265625 42 2.898438 41.117188 C 2.53125 40.230469 2.210938 39.328125 1.933594 38.414062 C 1.652344 37.496094 1.421875 36.570312 1.234375 35.628906 C 1.046875 34.6875 0.90625 33.742188 0.8125 32.789062 C 0.71875 31.835938 0.671875 30.878906 0.671875 29.921875 C 0.671875 28.964844 0.71875 28.007812 0.8125 27.054688 C 0.90625 26.101562 1.046875 25.15625 1.234375 24.214844 C 1.421875 23.277344 1.652344 22.347656 1.933594 21.429688 C 2.210938 20.515625 2.53125 19.613281 2.898438 18.730469 C 3.265625 17.84375 3.675781 16.980469 4.125 16.132812 C 4.578125 15.289062 5.070312 14.46875 5.601562 13.671875 C 6.132812 12.875 6.703125 12.105469 7.3125 11.367188 C 7.917969 10.625 8.5625 9.917969 9.238281 9.238281 C 9.917969 8.5625 10.625 7.917969 11.367188 7.3125 C 12.105469 6.703125 12.875 6.132812 13.671875 5.601562 C 14.46875 5.070312 15.289062 4.578125 16.132812 4.125 C 16.980469 3.675781 17.84375 3.265625 18.730469 2.898438 C 19.613281 2.53125 20.515625 2.210938 21.429688 1.933594 C 22.347656 1.652344 23.277344 1.421875 24.214844 1.234375 C 25.15625 1.046875 26.101562 0.90625 27.054688 0.8125 C 28.007812 0.71875 28.964844 0.671875 29.921875 0.671875 C 30.878906 0.671875 31.835938 0.71875 32.789062 0.8125 C 33.742188 0.90625 34.6875 1.046875 35.628906 1.234375 C 36.570312 1.421875 37.496094 1.652344 38.414062 1.933594 C 39.328125 2.210938 40.230469 2.53125 41.117188 2.898438 C 42 3.265625 42.867188 3.675781 43.710938 4.125 C 44.554688 4.578125 45.375 5.070312 46.171875 5.601562 C 46.96875 6.132812 47.738281 6.703125 48.476562 7.3125 C 49.21875 7.917969 49.929688 8.5625 50.605469 9.238281 C 51.28125 9.917969 51.925781 10.625 52.53125 11.367188 C 53.140625 12.105469 53.710938 12.875 54.242188 13.671875 C 54.773438 14.46875 55.265625 15.289062 55.71875 16.132812 C 56.171875 16.980469 56.578125 17.84375 56.945312 18.730469 C 57.3125 19.613281 57.636719 20.515625 57.914062 21.429688 C 58.191406 22.347656 58.421875 23.277344 58.609375 24.214844 C 58.796875 25.15625 58.9375 26.101562 59.03125 27.054688 C 59.125 28.007812 59.171875 28.964844 59.171875 29.921875 Z M 59.171875 29.921875 " fill-opacity="1" fill-rule="nonzero"/></g><path fill="#0795ff" d="M 25.644531 21.28125 L 26.179688 21.28125 C 26.347656 21.28125 26.492188 21.222656 26.613281 21.101562 C 26.730469 20.984375 26.789062 20.839844 26.789062 20.671875 L 26.789062 18.160156 C 26.789062 17.992188 26.730469 17.847656 26.613281 17.730469 C 26.492188 17.613281 26.347656 17.550781 26.179688 17.550781 L 25.144531 17.550781 C 21.867188 17.550781 20.050781 19.183594 20.050781 22.148438 C 20.058594 22.960938 20.117188 23.773438 20.222656 24.585938 C 20.3125 25.292969 20.367188 26.003906 20.378906 26.71875 C 20.378906 27.351562 20.378906 28.058594 18.734375 28.105469 C 18.566406 28.113281 18.425781 28.175781 18.308594 28.296875 C 18.195312 28.417969 18.136719 28.5625 18.136719 28.726562 L 18.136719 30.996094 C 18.140625 31.160156 18.199219 31.300781 18.316406 31.417969 C 18.429688 31.535156 18.570312 31.597656 18.734375 31.605469 C 20.257812 31.605469 20.378906 32.285156 20.378906 32.992188 C 20.355469 33.757812 20.285156 34.515625 20.171875 35.273438 C 20.070312 36.082031 20.019531 36.894531 20.015625 37.710938 C 20.015625 39.820312 20.890625 42.328125 25.082031 42.328125 L 26.144531 42.328125 C 26.3125 42.328125 26.457031 42.269531 26.574219 42.152344 C 26.695312 42.03125 26.753906 41.886719 26.753906 41.71875 L 26.753906 39.28125 C 26.753906 39.113281 26.695312 38.96875 26.574219 38.851562 C 26.457031 38.734375 26.3125 38.671875 26.144531 38.671875 L 25.609375 38.671875 C 24.863281 38.671875 24.390625 38.429688 24.390625 37.160156 C 24.390625 36.832031 24.390625 36.46875 24.472656 36.089844 L 24.570312 35.210938 C 24.648438 34.628906 24.6875 34.042969 24.695312 33.457031 C 24.804688 32.78125 24.730469 32.121094 24.472656 31.488281 C 24.214844 30.851562 23.808594 30.328125 23.253906 29.921875 C 23.808594 29.53125 24.21875 29.027344 24.488281 28.40625 C 24.761719 27.789062 24.851562 27.144531 24.765625 26.472656 C 24.761719 25.890625 24.71875 25.308594 24.644531 24.730469 L 24.546875 23.828125 C 24.546875 23.464844 24.460938 23.121094 24.460938 22.78125 C 24.460938 21.523438 24.902344 21.28125 25.644531 21.28125 Z M 25.644531 21.28125 " fill-opacity="1" fill-rule="nonzero"/><path fill="#156cdd" d="M 34.199219 21.28125 L 33.664062 21.28125 C 33.496094 21.28125 33.351562 21.222656 33.234375 21.101562 C 33.113281 20.984375 33.054688 20.839844 33.054688 20.671875 L 33.054688 18.160156 C 33.054688 17.992188 33.113281 17.847656 33.234375 17.730469 C 33.351562 17.613281 33.496094 17.550781 33.664062 17.550781 L 34.699219 17.550781 C 37.976562 17.550781 39.792969 19.183594 39.792969 22.148438 C 39.785156 22.960938 39.726562 23.773438 39.625 24.585938 C 39.53125 25.292969 39.480469 26.003906 39.464844 26.71875 C 39.464844 27.351562 39.464844 28.058594 41.109375 28.105469 C 41.277344 28.113281 41.417969 28.175781 41.535156 28.296875 C 41.648438 28.417969 41.707031 28.5625 41.707031 28.726562 L 41.707031 30.996094 C 41.703125 31.160156 41.644531 31.300781 41.53125 31.417969 C 41.414062 31.535156 41.273438 31.597656 41.109375 31.605469 C 39.585938 31.605469 39.464844 32.285156 39.464844 32.992188 C 39.488281 33.757812 39.558594 34.515625 39.671875 35.273438 C 39.773438 36.082031 39.828125 36.894531 39.832031 37.710938 C 39.832031 39.820312 38.953125 42.328125 34.761719 42.328125 L 33.699219 42.328125 C 33.53125 42.328125 33.386719 42.269531 33.269531 42.152344 C 33.152344 42.03125 33.089844 41.886719 33.089844 41.71875 L 33.089844 39.28125 C 33.089844 39.113281 33.152344 38.96875 33.269531 38.851562 C 33.386719 38.734375 33.53125 38.671875 33.699219 38.671875 L 34.238281 38.671875 C 34.980469 38.671875 35.457031 38.429688 35.457031 37.160156 C 35.457031 36.832031 35.457031 36.46875 35.371094 36.089844 L 35.273438 35.210938 C 35.199219 34.628906 35.15625 34.042969 35.152344 33.457031 C 35.039062 32.78125 35.113281 32.121094 35.371094 31.488281 C 35.632812 30.851562 36.035156 30.328125 36.589844 29.921875 C 36.039062 29.53125 35.625 29.027344 35.355469 28.40625 C 35.082031 27.789062 34.992188 27.144531 35.078125 26.472656 C 35.085938 25.890625 35.125 25.308594 35.199219 24.730469 L 35.296875 23.839844 C 35.296875 23.476562 35.382812 23.132812 35.382812 22.792969 C 35.382812 21.523438 34.945312 21.28125 34.199219 21.28125 Z M 34.199219 21.28125 " fill-opacity="1" fill-rule="nonzero"/></svg>