<svg xmlns="http://www.w3.org/2000/svg" xmlns:xlink="http://www.w3.org/1999/xlink" width="80" zoomAndPan="magnify" viewBox="0 0 60 60" height="80" preserveAspectRatio="xMidYMid meet" version="1.0"><defs><clipPath id="c750f98c92"><path d="M 0.777344 0.777344 L 59.277344 0.777344 L 59.277344 59.277344 L 0.777344 59.277344 Z M 0.777344 0.777344 " clip-rule="nonzero"/></clipPath></defs><g clip-path="url(#c750f98c92)"><path fill="#e8f6fd" d="M 30.027344 59.277344 C 46.136719 59.277344 59.277344 46.136719 59.277344 30.027344 C 59.277344 13.914062 46.136719 0.777344 30.027344 0.777344 C 13.914062 0.777344 0.777344 13.914062 0.777344 30.027344 C 0.777344 46.136719 13.914062 59.277344 30.027344 59.277344 " fill-opacity="1" fill-rule="evenodd"/></g><path fill="#2a3856" d="M 15.335938 15.761719 C 15.167969 15.558594 14.933594 15.519531 14.753906 15.730469 L 12.964844 17.988281 C 12.84375 18.140625 12.867188 18.363281 13.023438 18.484375 C 13.175781 18.609375 13.398438 18.582031 13.523438 18.425781 L 14.675781 16.972656 L 14.675781 42.320312 C 14.675781 42.515625 14.835938 42.675781 15.03125 42.675781 L 45.785156 42.675781 L 44.332031 43.828125 C 44.179688 43.949219 44.152344 44.175781 44.273438 44.328125 C 44.394531 44.480469 44.617188 44.507812 44.773438 44.386719 L 47.003906 42.621094 C 47.214844 42.484375 47.226562 42.164062 47.003906 42.019531 L 44.773438 40.253906 C 44.617188 40.132812 44.394531 40.15625 44.273438 40.3125 C 44.152344 40.464844 44.179688 40.6875 44.332031 40.8125 L 45.785156 41.964844 L 15.390625 41.964844 L 15.390625 16.976562 L 16.539062 18.425781 C 16.660156 18.582031 16.886719 18.609375 17.039062 18.484375 C 17.191406 18.363281 17.21875 18.140625 17.097656 17.988281 L 15.335938 15.761719 " fill-opacity="1" fill-rule="nonzero"/><path fill="#2a3856" d="M 14.914062 41.984375 C 14.730469 42.050781 14.632812 42.253906 14.695312 42.4375 C 14.761719 42.625 14.964844 42.722656 15.152344 42.65625 C 21.242188 40.496094 24.261719 33.257812 26.523438 27.824219 C 27.957031 24.394531 29.070312 21.71875 30.304688 21.71875 C 31.539062 21.71875 32.652344 24.394531 34.085938 27.824219 C 36.347656 33.257812 39.367188 40.496094 45.457031 42.65625 C 45.644531 42.722656 45.847656 42.625 45.914062 42.4375 C 45.976562 42.253906 45.882812 42.050781 45.695312 41.984375 C 39.902344 39.929688 36.953125 32.855469 34.742188 27.550781 C 33.207031 23.871094 32.011719 21.003906 30.304688 21.003906 C 28.597656 21.003906 27.402344 23.871094 25.867188 27.550781 C 23.65625 32.855469 20.707031 39.929688 14.914062 41.984375 " fill-opacity="1" fill-rule="nonzero"/><path fill="#2a3856" d="M 24.554688 32.257812 C 24.554688 32.0625 24.394531 31.902344 24.199219 31.902344 C 24 31.902344 23.839844 32.0625 23.839844 32.257812 L 23.839844 42.1875 C 23.839844 42.382812 24 42.542969 24.199219 42.542969 C 24.394531 42.542969 24.554688 42.382812 24.554688 42.1875 L 24.554688 32.257812 " fill-opacity="1" fill-rule="nonzero"/><path fill="#2a3856" d="M 36.769531 32.257812 C 36.769531 32.0625 36.609375 31.902344 36.410156 31.902344 C 36.214844 31.902344 36.054688 32.0625 36.054688 32.257812 L 36.054688 42.1875 C 36.054688 42.382812 36.214844 42.542969 36.410156 42.542969 C 36.609375 42.542969 36.769531 42.382812 36.769531 42.1875 L 36.769531 32.257812 " fill-opacity="1" fill-rule="nonzero"/><path fill="#df4045" d="M 36.769531 33.761719 L 36.769531 41.964844 L 43.902344 41.964844 C 40.738281 40.25 38.503906 37.097656 36.769531 33.761719 " fill-opacity="1" fill-rule="evenodd"/><path fill="#59c59c" d="M 36.054688 41.964844 L 36.054688 32.328125 C 35.320312 30.785156 34.675781 29.242188 34.085938 27.824219 C 32.652344 24.394531 31.539062 21.71875 30.304688 21.71875 C 29.070312 21.71875 27.957031 24.394531 26.523438 27.824219 C 25.933594 29.242188 25.292969 30.785156 24.554688 32.328125 L 24.554688 41.964844 L 36.054688 41.964844 " fill-opacity="1" fill-rule="evenodd"/><path fill="#efce2f" d="M 23.839844 41.964844 L 23.839844 33.761719 C 22.105469 37.097656 19.871094 40.25 16.707031 41.964844 L 23.839844 41.964844 " fill-opacity="1" fill-rule="evenodd"/></svg>