<svg xmlns="http://www.w3.org/2000/svg" xmlns:xlink="http://www.w3.org/1999/xlink" width="80" zoomAndPan="magnify" viewBox="0 0 60 60" height="80" preserveAspectRatio="xMidYMid meet" version="1.0"><defs><clipPath id="e77d8f430a"><path d="M 0.671875 0.671875 L 59.171875 0.671875 L 59.171875 59.171875 L 0.671875 59.171875 Z M 0.671875 0.671875 " clip-rule="nonzero"/></clipPath><clipPath id="4469ed346f"><path d="M 59.167969 29.925781 C 59.167969 30.886719 59.121094 31.839844 59.027344 32.792969 C 58.933594 33.746094 58.792969 34.695312 58.605469 35.632812 C 58.417969 36.574219 58.1875 37.5 57.90625 38.417969 C 57.628906 39.335938 57.308594 40.234375 56.941406 41.121094 C 56.574219 42.003906 56.164062 42.871094 55.714844 43.714844 C 55.261719 44.558594 54.769531 45.382812 54.238281 46.175781 C 53.707031 46.972656 53.136719 47.742188 52.527344 48.484375 C 51.921875 49.222656 51.277344 49.933594 50.601562 50.609375 C 49.921875 51.289062 49.214844 51.929688 48.472656 52.539062 C 47.734375 53.144531 46.964844 53.714844 46.167969 54.246094 C 45.371094 54.78125 44.550781 55.273438 43.707031 55.722656 C 42.859375 56.175781 41.996094 56.585938 41.109375 56.949219 C 40.226562 57.316406 39.324219 57.640625 38.410156 57.917969 C 37.492188 58.195312 36.5625 58.429688 35.625 58.617188 C 34.683594 58.800781 33.738281 58.941406 32.785156 59.035156 C 31.832031 59.128906 30.875 59.175781 29.917969 59.175781 C 28.960938 59.175781 28.003906 59.128906 27.050781 59.035156 C 26.097656 58.941406 25.152344 58.800781 24.210938 58.617188 C 23.273438 58.429688 22.34375 58.195312 21.425781 57.917969 C 20.511719 57.640625 19.609375 57.316406 18.722656 56.949219 C 17.839844 56.585938 16.972656 56.175781 16.128906 55.722656 C 15.285156 55.273438 14.464844 54.78125 13.667969 54.246094 C 12.871094 53.714844 12.101562 53.144531 11.363281 52.539062 C 10.621094 51.929688 9.910156 51.289062 9.234375 50.609375 C 8.558594 49.933594 7.914062 49.222656 7.308594 48.484375 C 6.699219 47.742188 6.128906 46.972656 5.597656 46.175781 C 5.066406 45.382812 4.574219 44.558594 4.121094 43.714844 C 3.667969 42.871094 3.261719 42.003906 2.894531 41.121094 C 2.527344 40.234375 2.207031 39.335938 1.925781 38.417969 C 1.648438 37.5 1.417969 36.574219 1.230469 35.632812 C 1.042969 34.695312 0.902344 33.746094 0.808594 32.792969 C 0.714844 31.839844 0.667969 30.886719 0.667969 29.925781 C 0.667969 28.96875 0.714844 28.011719 0.808594 27.058594 C 0.902344 26.105469 1.042969 25.160156 1.230469 24.222656 C 1.417969 23.28125 1.648438 22.351562 1.925781 21.4375 C 2.207031 20.519531 2.527344 19.617188 2.894531 18.734375 C 3.261719 17.847656 3.667969 16.984375 4.121094 16.140625 C 4.574219 15.292969 5.066406 14.472656 5.597656 13.675781 C 6.128906 12.878906 6.699219 12.113281 7.308594 11.371094 C 7.914062 10.628906 8.558594 9.921875 9.234375 9.246094 C 9.910156 8.566406 10.621094 7.925781 11.363281 7.316406 C 12.101562 6.710938 12.871094 6.140625 13.667969 5.605469 C 14.464844 5.074219 15.285156 4.582031 16.128906 4.132812 C 16.972656 3.679688 17.839844 3.269531 18.722656 2.902344 C 19.609375 2.539062 20.511719 2.214844 21.425781 1.9375 C 22.34375 1.660156 23.273438 1.425781 24.210938 1.238281 C 25.152344 1.050781 26.097656 0.910156 27.050781 0.816406 C 28.003906 0.722656 28.960938 0.675781 29.917969 0.675781 C 30.875 0.675781 31.832031 0.722656 32.785156 0.816406 C 33.738281 0.910156 34.683594 1.050781 35.625 1.238281 C 36.5625 1.425781 37.492188 1.660156 38.410156 1.9375 C 39.324219 2.214844 40.226562 2.539062 41.109375 2.902344 C 41.996094 3.269531 42.859375 3.679688 43.707031 4.132812 C 44.550781 4.582031 45.371094 5.074219 46.167969 5.605469 C 46.964844 6.140625 47.734375 6.710938 48.472656 7.316406 C 49.214844 7.925781 49.921875 8.566406 50.601562 9.246094 C 51.277344 9.921875 51.921875 10.628906 52.527344 11.371094 C 53.136719 12.113281 53.707031 12.878906 54.238281 13.675781 C 54.769531 14.472656 55.261719 15.292969 55.714844 16.140625 C 56.164062 16.984375 56.574219 17.847656 56.941406 18.734375 C 57.308594 19.617188 57.628906 20.519531 57.90625 21.4375 C 58.1875 22.351562 58.417969 23.28125 58.605469 24.222656 C 58.792969 25.160156 58.933594 26.105469 59.027344 27.058594 C 59.121094 28.011719 59.167969 28.96875 59.167969 29.925781 Z M 59.167969 29.925781 " clip-rule="nonzero"/></clipPath><linearGradient x1="6.279914" gradientTransform="matrix(0.121875, 0, 0, 0.121875, -0.0953987, -0.14414)" y1="6.760103" x2="486.240603" gradientUnits="userSpaceOnUse" y2="486.71941" id="ef00ddebbf"><stop stop-opacity="1" stop-color="rgb(58.799744%, 45.899963%, 70.599365%)" offset="0"/><stop stop-opacity="1" stop-color="rgb(58.799744%, 45.899963%, 70.599365%)" offset="0.125"/><stop stop-opacity="1" stop-color="rgb(58.816528%, 45.909119%, 70.593262%)" offset="0.140625"/><stop stop-opacity="1" stop-color="rgb(59.043884%, 46.044922%, 70.516968%)" offset="0.144531"/><stop stop-opacity="1" stop-color="rgb(59.254456%, 46.170044%, 70.446777%)" offset="0.148438"/><stop stop-opacity="1" stop-color="rgb(59.465027%, 46.295166%, 70.375061%)" offset="0.152344"/><stop stop-opacity="1" stop-color="rgb(59.675598%, 46.420288%, 70.304871%)" offset="0.15625"/><stop stop-opacity="1" stop-color="rgb(59.886169%, 46.54541%, 70.23468%)" offset="0.160156"/><stop stop-opacity="1" stop-color="rgb(60.096741%, 46.672058%, 70.16449%)" offset="0.164062"/><stop stop-opacity="1" stop-color="rgb(60.307312%, 46.79718%, 70.094299%)" offset="0.167969"/><stop stop-opacity="1" stop-color="rgb(60.517883%, 46.922302%, 70.024109%)" offset="0.171875"/><stop stop-opacity="1" stop-color="rgb(60.728455%, 47.047424%, 69.952393%)" offset="0.175781"/><stop stop-opacity="1" stop-color="rgb(60.939026%, 47.172546%, 69.882202%)" offset="0.179687"/><stop stop-opacity="1" stop-color="rgb(61.149597%, 47.297668%, 69.812012%)" offset="0.183594"/><stop stop-opacity="1" stop-color="rgb(61.360168%, 47.424316%, 69.741821%)" offset="0.1875"/><stop stop-opacity="1" stop-color="rgb(61.57074%, 47.549438%, 69.670105%)" offset="0.191406"/><stop stop-opacity="1" stop-color="rgb(61.781311%, 47.674561%, 69.599915%)" offset="0.195312"/><stop stop-opacity="1" stop-color="rgb(61.990356%, 47.799683%, 69.529724%)" offset="0.199219"/><stop stop-opacity="1" stop-color="rgb(62.200928%, 47.924805%, 69.459534%)" offset="0.203125"/><stop stop-opacity="1" stop-color="rgb(62.411499%, 48.049927%, 69.387817%)" offset="0.207031"/><stop stop-opacity="1" stop-color="rgb(62.62207%, 48.175049%, 69.317627%)" offset="0.210938"/><stop stop-opacity="1" stop-color="rgb(62.832642%, 48.300171%, 69.247437%)" offset="0.214844"/><stop stop-opacity="1" stop-color="rgb(63.043213%, 48.426819%, 69.177246%)" offset="0.21875"/><stop stop-opacity="1" stop-color="rgb(63.253784%, 48.551941%, 69.107056%)" offset="0.222656"/><stop stop-opacity="1" stop-color="rgb(63.464355%, 48.677063%, 69.036865%)" offset="0.226562"/><stop stop-opacity="1" stop-color="rgb(63.674927%, 48.802185%, 68.965149%)" offset="0.230469"/><stop stop-opacity="1" stop-color="rgb(63.885498%, 48.927307%, 68.894958%)" offset="0.234375"/><stop stop-opacity="1" stop-color="rgb(64.096069%, 49.052429%, 68.824768%)" offset="0.238281"/><stop stop-opacity="1" stop-color="rgb(64.306641%, 49.177551%, 68.754578%)" offset="0.242187"/><stop stop-opacity="1" stop-color="rgb(64.517212%, 49.302673%, 68.682861%)" offset="0.246094"/><stop stop-opacity="1" stop-color="rgb(64.727783%, 49.429321%, 68.612671%)" offset="0.25"/><stop stop-opacity="1" stop-color="rgb(64.938354%, 49.554443%, 68.54248%)" offset="0.253906"/><stop stop-opacity="1" stop-color="rgb(65.148926%, 49.679565%, 68.47229%)" offset="0.257812"/><stop stop-opacity="1" stop-color="rgb(65.359497%, 49.804688%, 68.400574%)" offset="0.261719"/><stop stop-opacity="1" stop-color="rgb(65.570068%, 49.92981%, 68.330383%)" offset="0.265625"/><stop stop-opacity="1" stop-color="rgb(65.78064%, 50.054932%, 68.260193%)" offset="0.269531"/><stop stop-opacity="1" stop-color="rgb(65.991211%, 50.180054%, 68.190002%)" offset="0.273438"/><stop stop-opacity="1" stop-color="rgb(66.200256%, 50.305176%, 68.118286%)" offset="0.277344"/><stop stop-opacity="1" stop-color="rgb(66.410828%, 50.431824%, 68.048096%)" offset="0.28125"/><stop stop-opacity="1" stop-color="rgb(66.621399%, 50.556946%, 67.977905%)" offset="0.285156"/><stop stop-opacity="1" stop-color="rgb(66.83197%, 50.682068%, 67.907715%)" offset="0.289062"/><stop stop-opacity="1" stop-color="rgb(67.042542%, 50.80719%, 67.837524%)" offset="0.292969"/><stop stop-opacity="1" stop-color="rgb(67.253113%, 50.932312%, 67.767334%)" offset="0.296875"/><stop stop-opacity="1" stop-color="rgb(67.463684%, 51.057434%, 67.695618%)" offset="0.300781"/><stop stop-opacity="1" stop-color="rgb(67.674255%, 51.182556%, 67.625427%)" offset="0.304688"/><stop stop-opacity="1" stop-color="rgb(67.884827%, 51.307678%, 67.555237%)" offset="0.308594"/><stop stop-opacity="1" stop-color="rgb(68.095398%, 51.434326%, 67.485046%)" offset="0.3125"/><stop stop-opacity="1" stop-color="rgb(68.305969%, 51.559448%, 67.41333%)" offset="0.316406"/><stop stop-opacity="1" stop-color="rgb(68.516541%, 51.68457%, 67.34314%)" offset="0.320312"/><stop stop-opacity="1" stop-color="rgb(68.727112%, 51.809692%, 67.272949%)" offset="0.324219"/><stop stop-opacity="1" stop-color="rgb(68.937683%, 51.934814%, 67.202759%)" offset="0.328125"/><stop stop-opacity="1" stop-color="rgb(69.148254%, 52.059937%, 67.131042%)" offset="0.332031"/><stop stop-opacity="1" stop-color="rgb(69.358826%, 52.185059%, 67.060852%)" offset="0.335937"/><stop stop-opacity="1" stop-color="rgb(69.569397%, 52.310181%, 66.990662%)" offset="0.339844"/><stop stop-opacity="1" stop-color="rgb(69.779968%, 52.436829%, 66.920471%)" offset="0.34375"/><stop stop-opacity="1" stop-color="rgb(69.99054%, 52.561951%, 66.848755%)" offset="0.347656"/><stop stop-opacity="1" stop-color="rgb(70.201111%, 52.687073%, 66.778564%)" offset="0.351562"/><stop stop-opacity="1" stop-color="rgb(70.410156%, 52.812195%, 66.708374%)" offset="0.355469"/><stop stop-opacity="1" stop-color="rgb(70.620728%, 52.937317%, 66.638184%)" offset="0.359375"/><stop stop-opacity="1" stop-color="rgb(70.831299%, 53.062439%, 66.567993%)" offset="0.363281"/><stop stop-opacity="1" stop-color="rgb(71.04187%, 53.187561%, 66.497803%)" offset="0.367188"/><stop stop-opacity="1" stop-color="rgb(71.252441%, 53.312683%, 66.426086%)" offset="0.371094"/><stop stop-opacity="1" stop-color="rgb(71.463013%, 53.439331%, 66.355896%)" offset="0.375"/><stop stop-opacity="1" stop-color="rgb(71.673584%, 53.564453%, 66.285706%)" offset="0.378906"/><stop stop-opacity="1" stop-color="rgb(71.884155%, 53.689575%, 66.215515%)" offset="0.382812"/><stop stop-opacity="1" stop-color="rgb(72.094727%, 53.814697%, 66.143799%)" offset="0.386719"/><stop stop-opacity="1" stop-color="rgb(72.305298%, 53.939819%, 66.073608%)" offset="0.390625"/><stop stop-opacity="1" stop-color="rgb(72.515869%, 54.064941%, 66.003418%)" offset="0.394531"/><stop stop-opacity="1" stop-color="rgb(72.72644%, 54.191589%, 65.933228%)" offset="0.398438"/><stop stop-opacity="1" stop-color="rgb(72.937012%, 54.316711%, 65.861511%)" offset="0.402344"/><stop stop-opacity="1" stop-color="rgb(73.147583%, 54.441833%, 65.791321%)" offset="0.40625"/><stop stop-opacity="1" stop-color="rgb(73.358154%, 54.566956%, 65.72113%)" offset="0.410156"/><stop stop-opacity="1" stop-color="rgb(73.568726%, 54.692078%, 65.65094%)" offset="0.414062"/><stop stop-opacity="1" stop-color="rgb(73.779297%, 54.8172%, 65.579224%)" offset="0.417969"/><stop stop-opacity="1" stop-color="rgb(73.989868%, 54.942322%, 65.509033%)" offset="0.421875"/><stop stop-opacity="1" stop-color="rgb(74.200439%, 55.067444%, 65.438843%)" offset="0.425781"/><stop stop-opacity="1" stop-color="rgb(74.411011%, 55.194092%, 65.368652%)" offset="0.429688"/><stop stop-opacity="1" stop-color="rgb(74.620056%, 55.319214%, 65.298462%)" offset="0.433594"/><stop stop-opacity="1" stop-color="rgb(74.830627%, 55.444336%, 65.228271%)" offset="0.4375"/><stop stop-opacity="1" stop-color="rgb(75.041199%, 55.569458%, 65.156555%)" offset="0.441406"/><stop stop-opacity="1" stop-color="rgb(75.25177%, 55.69458%, 65.086365%)" offset="0.445312"/><stop stop-opacity="1" stop-color="rgb(75.462341%, 55.819702%, 65.016174%)" offset="0.449219"/><stop stop-opacity="1" stop-color="rgb(75.672913%, 55.944824%, 64.945984%)" offset="0.453125"/><stop stop-opacity="1" stop-color="rgb(75.883484%, 56.069946%, 64.874268%)" offset="0.457031"/><stop stop-opacity="1" stop-color="rgb(76.094055%, 56.196594%, 64.804077%)" offset="0.460937"/><stop stop-opacity="1" stop-color="rgb(76.304626%, 56.321716%, 64.733887%)" offset="0.464844"/><stop stop-opacity="1" stop-color="rgb(76.515198%, 56.446838%, 64.663696%)" offset="0.46875"/><stop stop-opacity="1" stop-color="rgb(76.725769%, 56.57196%, 64.59198%)" offset="0.472656"/><stop stop-opacity="1" stop-color="rgb(76.93634%, 56.697083%, 64.52179%)" offset="0.476562"/><stop stop-opacity="1" stop-color="rgb(77.146912%, 56.822205%, 64.451599%)" offset="0.480469"/><stop stop-opacity="1" stop-color="rgb(77.357483%, 56.947327%, 64.381409%)" offset="0.484375"/><stop stop-opacity="1" stop-color="rgb(77.568054%, 57.072449%, 64.311218%)" offset="0.488281"/><stop stop-opacity="1" stop-color="rgb(77.778625%, 57.199097%, 64.241028%)" offset="0.492188"/><stop stop-opacity="1" stop-color="rgb(77.989197%, 57.324219%, 64.169312%)" offset="0.496094"/><stop stop-opacity="1" stop-color="rgb(78.199768%, 57.449341%, 64.099121%)" offset="0.5"/><stop stop-opacity="1" stop-color="rgb(78.410339%, 57.574463%, 64.028931%)" offset="0.503906"/><stop stop-opacity="1" stop-color="rgb(78.620911%, 57.699585%, 63.95874%)" offset="0.507812"/><stop stop-opacity="1" stop-color="rgb(78.829956%, 57.824707%, 63.887024%)" offset="0.511719"/><stop stop-opacity="1" stop-color="rgb(79.040527%, 57.949829%, 63.816833%)" offset="0.515625"/><stop stop-opacity="1" stop-color="rgb(79.251099%, 58.074951%, 63.746643%)" offset="0.519531"/><stop stop-opacity="1" stop-color="rgb(79.46167%, 58.201599%, 63.676453%)" offset="0.523437"/><stop stop-opacity="1" stop-color="rgb(79.672241%, 58.326721%, 63.604736%)" offset="0.527344"/><stop stop-opacity="1" stop-color="rgb(79.882812%, 58.451843%, 63.534546%)" offset="0.53125"/><stop stop-opacity="1" stop-color="rgb(80.093384%, 58.576965%, 63.464355%)" offset="0.535156"/><stop stop-opacity="1" stop-color="rgb(80.303955%, 58.702087%, 63.394165%)" offset="0.539062"/><stop stop-opacity="1" stop-color="rgb(80.514526%, 58.827209%, 63.322449%)" offset="0.542969"/><stop stop-opacity="1" stop-color="rgb(80.725098%, 58.952332%, 63.252258%)" offset="0.546875"/><stop stop-opacity="1" stop-color="rgb(80.935669%, 59.077454%, 63.182068%)" offset="0.550781"/><stop stop-opacity="1" stop-color="rgb(81.14624%, 59.204102%, 63.111877%)" offset="0.554688"/><stop stop-opacity="1" stop-color="rgb(81.356812%, 59.329224%, 63.041687%)" offset="0.558594"/><stop stop-opacity="1" stop-color="rgb(81.567383%, 59.454346%, 62.971497%)" offset="0.5625"/><stop stop-opacity="1" stop-color="rgb(81.777954%, 59.579468%, 62.89978%)" offset="0.566406"/><stop stop-opacity="1" stop-color="rgb(81.988525%, 59.70459%, 62.82959%)" offset="0.570312"/><stop stop-opacity="1" stop-color="rgb(82.199097%, 59.829712%, 62.759399%)" offset="0.574219"/><stop stop-opacity="1" stop-color="rgb(82.409668%, 59.95636%, 62.689209%)" offset="0.578125"/><stop stop-opacity="1" stop-color="rgb(82.620239%, 60.081482%, 62.617493%)" offset="0.582031"/><stop stop-opacity="1" stop-color="rgb(82.830811%, 60.206604%, 62.547302%)" offset="0.585938"/><stop stop-opacity="1" stop-color="rgb(83.039856%, 60.331726%, 62.477112%)" offset="0.589844"/><stop stop-opacity="1" stop-color="rgb(83.250427%, 60.456848%, 62.406921%)" offset="0.59375"/><stop stop-opacity="1" stop-color="rgb(83.460999%, 60.58197%, 62.335205%)" offset="0.597656"/><stop stop-opacity="1" stop-color="rgb(83.67157%, 60.707092%, 62.265015%)" offset="0.601562"/><stop stop-opacity="1" stop-color="rgb(83.882141%, 60.832214%, 62.194824%)" offset="0.605469"/><stop stop-opacity="1" stop-color="rgb(84.092712%, 60.958862%, 62.124634%)" offset="0.609375"/><stop stop-opacity="1" stop-color="rgb(84.303284%, 61.083984%, 62.052917%)" offset="0.613281"/><stop stop-opacity="1" stop-color="rgb(84.513855%, 61.209106%, 61.982727%)" offset="0.617188"/><stop stop-opacity="1" stop-color="rgb(84.724426%, 61.334229%, 61.912537%)" offset="0.621094"/><stop stop-opacity="1" stop-color="rgb(84.934998%, 61.459351%, 61.842346%)" offset="0.625"/><stop stop-opacity="1" stop-color="rgb(85.145569%, 61.584473%, 61.772156%)" offset="0.628906"/><stop stop-opacity="1" stop-color="rgb(85.35614%, 61.709595%, 61.701965%)" offset="0.632812"/><stop stop-opacity="1" stop-color="rgb(85.566711%, 61.834717%, 61.630249%)" offset="0.636719"/><stop stop-opacity="1" stop-color="rgb(85.777283%, 61.961365%, 61.560059%)" offset="0.640625"/><stop stop-opacity="1" stop-color="rgb(85.987854%, 62.086487%, 61.489868%)" offset="0.644531"/><stop stop-opacity="1" stop-color="rgb(86.198425%, 62.211609%, 61.419678%)" offset="0.648438"/><stop stop-opacity="1" stop-color="rgb(86.408997%, 62.336731%, 61.347961%)" offset="0.652344"/><stop stop-opacity="1" stop-color="rgb(86.619568%, 62.461853%, 61.277771%)" offset="0.65625"/><stop stop-opacity="1" stop-color="rgb(86.830139%, 62.586975%, 61.207581%)" offset="0.660156"/><stop stop-opacity="1" stop-color="rgb(87.04071%, 62.712097%, 61.13739%)" offset="0.664062"/><stop stop-opacity="1" stop-color="rgb(87.249756%, 62.837219%, 61.065674%)" offset="0.667969"/><stop stop-opacity="1" stop-color="rgb(87.460327%, 62.963867%, 60.995483%)" offset="0.671875"/><stop stop-opacity="1" stop-color="rgb(87.670898%, 63.088989%, 60.925293%)" offset="0.675781"/><stop stop-opacity="1" stop-color="rgb(87.88147%, 63.214111%, 60.855103%)" offset="0.679688"/><stop stop-opacity="1" stop-color="rgb(88.092041%, 63.339233%, 60.784912%)" offset="0.683594"/><stop stop-opacity="1" stop-color="rgb(88.302612%, 63.464355%, 60.714722%)" offset="0.6875"/><stop stop-opacity="1" stop-color="rgb(88.513184%, 63.589478%, 60.643005%)" offset="0.691406"/><stop stop-opacity="1" stop-color="rgb(88.723755%, 63.7146%, 60.572815%)" offset="0.695312"/><stop stop-opacity="1" stop-color="rgb(88.934326%, 63.839722%, 60.502625%)" offset="0.699219"/><stop stop-opacity="1" stop-color="rgb(89.144897%, 63.96637%, 60.432434%)" offset="0.703125"/><stop stop-opacity="1" stop-color="rgb(89.355469%, 64.091492%, 60.360718%)" offset="0.707031"/><stop stop-opacity="1" stop-color="rgb(89.56604%, 64.216614%, 60.290527%)" offset="0.710937"/><stop stop-opacity="1" stop-color="rgb(89.776611%, 64.341736%, 60.220337%)" offset="0.714844"/><stop stop-opacity="1" stop-color="rgb(89.987183%, 64.466858%, 60.150146%)" offset="0.71875"/><stop stop-opacity="1" stop-color="rgb(90.197754%, 64.59198%, 60.07843%)" offset="0.722656"/><stop stop-opacity="1" stop-color="rgb(90.408325%, 64.717102%, 60.00824%)" offset="0.726562"/><stop stop-opacity="1" stop-color="rgb(90.618896%, 64.842224%, 59.938049%)" offset="0.730469"/><stop stop-opacity="1" stop-color="rgb(90.829468%, 64.968872%, 59.867859%)" offset="0.734375"/><stop stop-opacity="1" stop-color="rgb(91.040039%, 65.093994%, 59.796143%)" offset="0.738281"/><stop stop-opacity="1" stop-color="rgb(91.25061%, 65.219116%, 59.725952%)" offset="0.742187"/><stop stop-opacity="1" stop-color="rgb(91.459656%, 65.344238%, 59.655762%)" offset="0.746094"/><stop stop-opacity="1" stop-color="rgb(91.670227%, 65.46936%, 59.585571%)" offset="0.75"/><stop stop-opacity="1" stop-color="rgb(91.880798%, 65.594482%, 59.515381%)" offset="0.753906"/><stop stop-opacity="1" stop-color="rgb(92.09137%, 65.72113%, 59.44519%)" offset="0.757812"/><stop stop-opacity="1" stop-color="rgb(92.301941%, 65.846252%, 59.373474%)" offset="0.761719"/><stop stop-opacity="1" stop-color="rgb(92.512512%, 65.971375%, 59.303284%)" offset="0.765625"/><stop stop-opacity="1" stop-color="rgb(92.723083%, 66.096497%, 59.233093%)" offset="0.769531"/><stop stop-opacity="1" stop-color="rgb(92.933655%, 66.221619%, 59.162903%)" offset="0.773437"/><stop stop-opacity="1" stop-color="rgb(93.144226%, 66.346741%, 59.091187%)" offset="0.777344"/><stop stop-opacity="1" stop-color="rgb(93.354797%, 66.471863%, 59.020996%)" offset="0.78125"/><stop stop-opacity="1" stop-color="rgb(93.565369%, 66.596985%, 58.950806%)" offset="0.785156"/><stop stop-opacity="1" stop-color="rgb(93.77594%, 66.723633%, 58.880615%)" offset="0.789062"/><stop stop-opacity="1" stop-color="rgb(93.986511%, 66.848755%, 58.808899%)" offset="0.792969"/><stop stop-opacity="1" stop-color="rgb(94.197083%, 66.973877%, 58.738708%)" offset="0.796875"/><stop stop-opacity="1" stop-color="rgb(94.407654%, 67.098999%, 58.668518%)" offset="0.800781"/><stop stop-opacity="1" stop-color="rgb(94.618225%, 67.224121%, 58.598328%)" offset="0.804687"/><stop stop-opacity="1" stop-color="rgb(94.828796%, 67.349243%, 58.526611%)" offset="0.808594"/><stop stop-opacity="1" stop-color="rgb(95.039368%, 67.474365%, 58.456421%)" offset="0.8125"/><stop stop-opacity="1" stop-color="rgb(95.249939%, 67.599487%, 58.38623%)" offset="0.816406"/><stop stop-opacity="1" stop-color="rgb(95.46051%, 67.726135%, 58.31604%)" offset="0.820312"/><stop stop-opacity="1" stop-color="rgb(95.669556%, 67.851257%, 58.24585%)" offset="0.824219"/><stop stop-opacity="1" stop-color="rgb(95.880127%, 67.976379%, 58.175659%)" offset="0.828125"/><stop stop-opacity="1" stop-color="rgb(96.090698%, 68.101501%, 58.103943%)" offset="0.832031"/><stop stop-opacity="1" stop-color="rgb(96.30127%, 68.226624%, 58.033752%)" offset="0.835937"/><stop stop-opacity="1" stop-color="rgb(96.511841%, 68.351746%, 57.963562%)" offset="0.839844"/><stop stop-opacity="1" stop-color="rgb(96.722412%, 68.476868%, 57.893372%)" offset="0.84375"/><stop stop-opacity="1" stop-color="rgb(96.932983%, 68.60199%, 57.821655%)" offset="0.847656"/><stop stop-opacity="1" stop-color="rgb(97.143555%, 68.728638%, 57.751465%)" offset="0.851562"/><stop stop-opacity="1" stop-color="rgb(97.354126%, 68.85376%, 57.681274%)" offset="0.855469"/><stop stop-opacity="1" stop-color="rgb(97.564697%, 68.978882%, 57.611084%)" offset="0.859375"/><stop stop-opacity="1" stop-color="rgb(97.581482%, 68.988037%, 57.60498%)" offset="0.875"/><stop stop-opacity="1" stop-color="rgb(97.599792%, 68.998718%, 57.598877%)" offset="1"/></linearGradient></defs><g clip-path="url(#e77d8f430a)"><g clip-path="url(#4469ed346f)"><path fill="url(#ef00ddebbf)" d="M 0.671875 0.675781 L 0.671875 59.171875 L 59.167969 59.171875 L 59.167969 0.675781 Z M 0.671875 0.675781 " fill-rule="nonzero"/></g></g><path fill="#fffffd" d="M 21.824219 31.320312 L 48.222656 31.320312 L 48.222656 16.441406 L 21.824219 16.441406 Z M 48.515625 31.902344 L 21.535156 31.902344 C 21.375 31.902344 21.242188 31.769531 21.242188 31.609375 L 21.242188 16.152344 C 21.242188 15.992188 21.371094 15.859375 21.535156 15.859375 L 48.515625 15.859375 C 48.675781 15.859375 48.804688 15.992188 48.804688 16.152344 L 48.804688 31.609375 C 48.804688 31.769531 48.675781 31.902344 48.515625 31.902344 Z M 48.515625 31.902344 " fill-opacity="1" fill-rule="evenodd"/><path fill="#fffffd" d="M 21.824219 18.96875 L 48.222656 18.96875 L 48.222656 16.441406 L 21.824219 16.441406 Z M 48.515625 19.546875 L 21.535156 19.546875 C 21.375 19.546875 21.242188 19.417969 21.242188 19.257812 L 21.242188 16.152344 C 21.242188 15.992188 21.371094 15.859375 21.535156 15.859375 L 48.515625 15.859375 C 48.675781 15.859375 48.804688 15.992188 48.804688 16.152344 L 48.804688 19.257812 C 48.804688 19.417969 48.675781 19.546875 48.515625 19.546875 Z M 48.515625 19.546875 " fill-opacity="1" fill-rule="evenodd"/><path fill="#fffffd" d="M 15.691406 16.269531 C 14.515625 16.269531 13.558594 17.226562 13.558594 18.402344 C 13.558594 19.582031 14.515625 20.539062 15.691406 20.539062 C 16.871094 20.539062 17.828125 19.582031 17.828125 18.402344 C 17.828125 17.226562 16.871094 16.269531 15.691406 16.269531 Z M 15.691406 21.121094 C 14.195312 21.121094 12.976562 19.902344 12.976562 18.402344 C 12.976562 16.90625 14.195312 15.6875 15.691406 15.6875 C 17.191406 15.6875 18.410156 16.90625 18.410156 18.402344 C 18.410156 19.902344 17.191406 21.121094 15.691406 21.121094 Z M 15.691406 21.121094 " fill-opacity="1" fill-rule="evenodd"/><path fill="#fffffd" d="M 15.011719 36.695312 L 12.925781 36.695312 C 12.765625 36.695312 12.636719 36.566406 12.636719 36.402344 L 12.636719 24.796875 C 12.636719 24.636719 12.765625 24.507812 12.925781 24.507812 C 13.085938 24.507812 13.21875 24.636719 13.21875 24.796875 L 13.21875 36.113281 L 15.015625 36.113281 C 15.175781 36.113281 15.304688 36.242188 15.304688 36.40625 C 15.304688 36.566406 15.175781 36.695312 15.011719 36.695312 Z M 18.457031 36.695312 L 16.1875 36.695312 C 16.023438 36.695312 15.894531 36.566406 15.894531 36.402344 C 15.894531 36.242188 16.023438 36.113281 16.183594 36.113281 L 18.167969 36.113281 L 18.167969 24.796875 C 18.167969 24.636719 18.296875 24.507812 18.457031 24.507812 C 18.621094 24.507812 18.75 24.636719 18.75 24.796875 L 18.75 36.402344 C 18.75 36.566406 18.621094 36.695312 18.457031 36.695312 Z M 18.457031 36.695312 " fill-opacity="1" fill-rule="evenodd"/><path fill="#fffffd" d="M 15.011719 36.695312 C 15.003906 36.695312 14.992188 36.695312 14.980469 36.691406 C 14.820312 36.675781 14.707031 36.53125 14.722656 36.371094 L 15.425781 30.085938 C 15.445312 29.9375 15.570312 29.824219 15.722656 29.828125 C 15.871094 29.828125 15.996094 29.945312 16.007812 30.09375 L 16.476562 36.382812 C 16.488281 36.542969 16.367188 36.683594 16.207031 36.695312 C 16.046875 36.707031 15.90625 36.585938 15.894531 36.425781 L 15.660156 33.246094 L 15.300781 36.4375 C 15.285156 36.585938 15.160156 36.695312 15.011719 36.695312 Z M 15.011719 36.695312 " fill-opacity="1" fill-rule="evenodd"/><path fill="#fffffd" d="M 20.40625 27.070312 C 20.246094 27.070312 20.113281 26.941406 20.113281 26.78125 L 20.113281 25.070312 C 20.113281 23.523438 18.296875 22.265625 16.066406 22.265625 L 15.660156 22.265625 C 13.425781 22.265625 11.613281 23.527344 11.613281 25.070312 L 11.613281 26.78125 C 11.613281 26.941406 11.480469 27.070312 11.320312 27.070312 C 11.160156 27.070312 11.03125 26.941406 11.03125 26.78125 L 11.03125 25.070312 C 11.03125 23.203125 13.109375 21.6875 15.660156 21.6875 L 16.066406 21.6875 C 18.617188 21.6875 20.695312 23.203125 20.695312 25.070312 L 20.695312 26.78125 C 20.695312 26.941406 20.566406 27.070312 20.40625 27.070312 Z M 20.40625 27.070312 " fill-opacity="1" fill-rule="evenodd"/><path fill="#fffffd" d="M 12.925781 30.863281 C 11.863281 30.863281 11.03125 30.171875 11.03125 29.285156 L 11.03125 26.78125 C 11.03125 26.621094 11.160156 26.488281 11.320312 26.488281 C 11.480469 26.488281 11.613281 26.621094 11.613281 26.78125 L 11.613281 29.285156 C 11.613281 29.84375 12.191406 30.28125 12.925781 30.28125 C 13.085938 30.28125 13.21875 30.414062 13.21875 30.574219 C 13.21875 30.734375 13.085938 30.863281 12.925781 30.863281 Z M 12.925781 30.863281 " fill-opacity="1" fill-rule="evenodd"/><path fill="#fffffd" d="M 20.554688 30.066406 C 20.453125 30.066406 20.355469 30.011719 20.300781 29.917969 C 20.222656 29.78125 20.269531 29.601562 20.410156 29.523438 L 20.449219 29.5 C 20.699219 29.355469 20.902344 29.144531 21.007812 28.929688 C 21.058594 28.820312 21.128906 28.617188 21.035156 28.449219 L 20.152344 26.925781 C 20.074219 26.785156 20.121094 26.609375 20.257812 26.527344 C 20.398438 26.449219 20.578125 26.496094 20.65625 26.636719 L 21.535156 28.160156 C 21.703125 28.449219 21.703125 28.820312 21.53125 29.179688 C 21.378906 29.503906 21.097656 29.796875 20.742188 30 L 20.699219 30.027344 C 20.652344 30.050781 20.601562 30.066406 20.554688 30.066406 Z M 20.554688 30.066406 " fill-opacity="1" fill-rule="evenodd"/><path fill="#fffffd" d="M 20.554688 30.066406 C 20.464844 30.066406 20.378906 30.027344 20.324219 29.949219 L 18.226562 27.21875 C 18.128906 27.09375 18.152344 26.910156 18.28125 26.8125 C 18.410156 26.714844 18.589844 26.738281 18.6875 26.867188 L 20.785156 29.597656 C 20.882812 29.726562 20.859375 29.90625 20.730469 30.003906 C 20.675781 30.046875 20.617188 30.066406 20.554688 30.066406 Z M 20.554688 30.066406 " fill-opacity="1" fill-rule="evenodd"/><path fill="#fffffd" d="M 23.964844 43.585938 L 30.382812 43.585938 L 30.382812 41.628906 C 30.382812 41.011719 30.609375 40.421875 31.011719 39.960938 C 30.703125 39.769531 30.347656 39.667969 29.988281 39.667969 L 29.914062 39.667969 C 29.457031 40.214844 28.777344 40.535156 28.0625 40.535156 C 27.347656 40.535156 26.667969 40.214844 26.210938 39.667969 L 25.921875 39.667969 C 24.84375 39.667969 23.964844 40.546875 23.964844 41.628906 Z M 30.675781 44.167969 L 23.675781 44.167969 C 23.511719 44.167969 23.382812 44.039062 23.382812 43.875 L 23.382812 41.628906 C 23.382812 40.226562 24.523438 39.089844 25.921875 39.089844 L 26.355469 39.089844 C 26.445312 39.089844 26.535156 39.132812 26.589844 39.207031 C 26.933594 39.675781 27.484375 39.957031 28.0625 39.957031 C 28.644531 39.957031 29.195312 39.675781 29.539062 39.207031 C 29.59375 39.132812 29.679688 39.089844 29.773438 39.089844 L 29.988281 39.089844 C 30.59375 39.089844 31.183594 39.308594 31.644531 39.707031 C 31.710938 39.761719 31.746094 39.84375 31.746094 39.925781 C 31.746094 40.011719 31.707031 40.09375 31.644531 40.148438 C 31.210938 40.519531 30.964844 41.0625 30.964844 41.628906 L 30.964844 43.875 C 30.964844 44.039062 30.835938 44.167969 30.675781 44.167969 Z M 30.675781 44.167969 " fill-opacity="1" fill-rule="evenodd"/><path fill="#fffffd" d="M 27.957031 35.105469 C 26.949219 35.105469 26.128906 35.921875 26.128906 36.933594 C 26.128906 37.9375 26.945312 38.757812 27.957031 38.757812 C 28.960938 38.757812 29.78125 37.9375 29.78125 36.933594 C 29.78125 35.921875 28.960938 35.105469 27.957031 35.105469 Z M 27.957031 39.339844 C 26.628906 39.339844 25.546875 38.257812 25.546875 36.929688 C 25.546875 35.601562 26.628906 34.523438 27.957031 34.523438 C 29.285156 34.523438 30.363281 35.601562 30.363281 36.929688 C 30.363281 38.257812 29.28125 39.339844 27.957031 39.339844 Z M 27.957031 39.339844 " fill-opacity="1" fill-rule="evenodd"/><path fill="#fffffd" d="M 30.964844 43.585938 L 38.945312 43.585938 L 38.945312 41.628906 C 38.945312 40.546875 38.066406 39.667969 36.988281 39.667969 L 36.914062 39.667969 C 36.457031 40.214844 35.777344 40.535156 35.0625 40.535156 C 34.347656 40.535156 33.667969 40.214844 33.210938 39.667969 L 32.921875 39.667969 C 31.84375 39.667969 30.964844 40.546875 30.964844 41.628906 Z M 39.234375 44.167969 L 30.675781 44.167969 C 30.511719 44.167969 30.382812 44.039062 30.382812 43.875 L 30.382812 41.628906 C 30.382812 40.226562 31.523438 39.089844 32.921875 39.089844 L 33.355469 39.089844 C 33.445312 39.089844 33.53125 39.132812 33.589844 39.207031 C 33.933594 39.675781 34.484375 39.957031 35.0625 39.957031 C 35.644531 39.957031 36.195312 39.675781 36.539062 39.207031 C 36.59375 39.132812 36.679688 39.089844 36.773438 39.089844 L 36.988281 39.089844 C 38.386719 39.089844 39.527344 40.226562 39.527344 41.628906 L 39.527344 43.875 C 39.527344 44.039062 39.394531 44.167969 39.234375 44.167969 Z M 39.234375 44.167969 " fill-opacity="1" fill-rule="evenodd"/><path fill="#fffffd" d="M 34.953125 35.105469 C 33.949219 35.105469 33.128906 35.921875 33.128906 36.933594 C 33.128906 37.9375 33.945312 38.757812 34.953125 38.757812 C 35.960938 38.757812 36.78125 37.9375 36.78125 36.933594 C 36.78125 35.921875 35.960938 35.105469 34.953125 35.105469 Z M 34.953125 39.339844 C 33.625 39.339844 32.546875 38.257812 32.546875 36.929688 C 32.546875 35.601562 33.625 34.523438 34.953125 34.523438 C 36.28125 34.523438 37.363281 35.601562 37.363281 36.929688 C 37.363281 38.257812 36.28125 39.339844 34.953125 39.339844 Z M 34.953125 39.339844 " fill-opacity="1" fill-rule="evenodd"/><path fill="#fffffd" d="M 39.527344 43.585938 L 46.082031 43.585938 L 46.082031 41.628906 C 46.082031 40.546875 45.203125 39.667969 44.125 39.667969 L 44.050781 39.667969 C 43.597656 40.214844 42.914062 40.535156 42.199219 40.535156 C 41.488281 40.535156 40.804688 40.214844 40.351562 39.667969 L 40.058594 39.667969 C 39.660156 39.667969 39.273438 39.792969 38.949219 40.019531 C 39.320312 40.472656 39.527344 41.042969 39.527344 41.628906 Z M 46.375 44.167969 L 39.234375 44.167969 C 39.074219 44.167969 38.945312 44.039062 38.945312 43.875 L 38.945312 41.628906 C 38.945312 41.089844 38.71875 40.570312 38.324219 40.203125 C 38.265625 40.148438 38.234375 40.070312 38.234375 39.988281 C 38.234375 39.910156 38.265625 39.832031 38.324219 39.777344 C 38.796875 39.332031 39.414062 39.089844 40.058594 39.089844 L 40.492188 39.089844 C 40.585938 39.089844 40.671875 39.132812 40.726562 39.207031 C 41.070312 39.675781 41.621094 39.957031 42.199219 39.957031 C 42.78125 39.957031 43.332031 39.675781 43.675781 39.207031 C 43.730469 39.132812 43.816406 39.089844 43.910156 39.089844 L 44.125 39.089844 C 45.523438 39.089844 46.664062 40.226562 46.664062 41.628906 L 46.664062 43.878906 C 46.664062 44.039062 46.535156 44.167969 46.375 44.167969 Z M 46.375 44.167969 " fill-opacity="1" fill-rule="evenodd"/><path fill="#fffffd" d="M 42.09375 35.105469 C 41.085938 35.105469 40.265625 35.921875 40.265625 36.933594 C 40.265625 37.9375 41.085938 38.757812 42.09375 38.757812 C 43.101562 38.757812 43.917969 37.9375 43.917969 36.933594 C 43.917969 35.921875 43.101562 35.105469 42.09375 35.105469 Z M 42.09375 39.339844 C 40.765625 39.339844 39.683594 38.257812 39.683594 36.929688 C 39.683594 35.601562 40.765625 34.523438 42.09375 34.523438 C 43.421875 34.523438 44.5 35.601562 44.5 36.929688 C 44.5 38.257812 43.421875 39.339844 42.09375 39.339844 Z M 42.09375 39.339844 " fill-opacity="1" fill-rule="evenodd"/><path fill="#fffffd" d="M 20.546875 29.875 C 20.457031 29.875 20.363281 29.832031 20.308594 29.75 C 20.21875 29.617188 20.25 29.4375 20.382812 29.34375 L 27.1875 24.652344 C 27.316406 24.558594 27.5 24.59375 27.589844 24.722656 C 27.679688 24.855469 27.648438 25.035156 27.515625 25.128906 L 20.714844 29.824219 C 20.664062 29.859375 20.605469 29.875 20.546875 29.875 Z M 20.546875 29.875 " fill-opacity="1" fill-rule="evenodd"/><path fill="#fffffd" d="M 39.738281 29.875 L 40.679688 29.875 L 40.679688 20.992188 L 39.738281 20.992188 Z M 40.972656 30.457031 L 39.449219 30.457031 C 39.289062 30.457031 39.15625 30.328125 39.15625 30.167969 L 39.15625 20.703125 C 39.15625 20.539062 39.289062 20.410156 39.449219 20.410156 L 40.972656 20.410156 C 41.132812 20.410156 41.261719 20.539062 41.261719 20.703125 L 41.261719 30.167969 C 41.261719 30.328125 41.132812 30.457031 40.972656 30.457031 Z M 40.972656 30.457031 " fill-opacity="1" fill-rule="evenodd"/><path fill="#fffffd" d="M 36 29.875 L 36.945312 29.875 L 36.945312 22.710938 L 36 22.710938 Z M 37.234375 30.457031 L 35.710938 30.457031 C 35.550781 30.457031 35.421875 30.328125 35.421875 30.167969 L 35.421875 22.417969 C 35.421875 22.257812 35.550781 22.128906 35.710938 22.128906 L 37.234375 22.128906 C 37.394531 22.128906 37.523438 22.257812 37.523438 22.417969 L 37.523438 30.167969 C 37.523438 30.328125 37.394531 30.457031 37.234375 30.457031 Z M 37.234375 30.457031 " fill-opacity="1" fill-rule="evenodd"/><path fill="#fffffd" d="M 32.265625 29.875 L 33.207031 29.875 L 33.207031 24.007812 L 32.265625 24.007812 Z M 33.496094 30.457031 L 31.972656 30.457031 C 31.8125 30.457031 31.683594 30.328125 31.683594 30.167969 L 31.683594 23.714844 C 31.683594 23.554688 31.8125 23.425781 31.972656 23.425781 L 33.496094 23.425781 C 33.660156 23.425781 33.789062 23.554688 33.789062 23.714844 L 33.789062 30.167969 C 33.789062 30.328125 33.65625 30.457031 33.496094 30.457031 Z M 33.496094 30.457031 " fill-opacity="1" fill-rule="evenodd"/><path fill="#fffffd" d="M 28.527344 29.875 L 29.46875 29.875 L 29.46875 26.535156 L 28.527344 26.535156 Z M 29.761719 30.457031 L 28.238281 30.457031 C 28.074219 30.457031 27.945312 30.328125 27.945312 30.167969 L 27.945312 26.242188 C 27.945312 26.082031 28.074219 25.953125 28.238281 25.953125 L 29.761719 25.953125 C 29.921875 25.953125 30.050781 26.082031 30.050781 26.242188 L 30.050781 30.167969 C 30.050781 30.328125 29.921875 30.457031 29.761719 30.457031 Z M 29.761719 30.457031 " fill-opacity="1" fill-rule="evenodd"/></svg>